<svg width="264" height="533" fill="none" xmlns="http://www.w3.org/2000/svg"><g opacity=".16" fill="#8BABFB"><ellipse cx="1.117" cy="1.102" rx="1.117" ry="1.102" transform="matrix(-1 0 0 1 89.374 46.292)"/><ellipse cx="1.117" cy="1.102" rx="1.117" ry="1.102" transform="matrix(-1 0 0 1 89.374 52.906)"/><ellipse cx="1.117" cy="1.102" rx="1.117" ry="1.102" transform="matrix(-1 0 0 1 89.374 59.519)"/><ellipse cx="1.117" cy="1.102" rx="1.117" ry="1.102" transform="matrix(-1 0 0 1 89.374 66.132)"/><ellipse cx="1.117" cy="1.102" rx="1.117" ry="1.102" transform="matrix(-1 0 0 1 89.374 72.745)"/><ellipse cx="1.117" cy="1.102" rx="1.117" ry="1.102" transform="matrix(-1 0 0 1 89.374 79.358)"/><ellipse cx="1.117" cy="1.102" rx="1.117" ry="1.102" transform="matrix(-1 0 0 1 89.374 85.972)"/><ellipse cx="1.117" cy="1.102" rx="1.117" ry="1.102" transform="matrix(-1 0 0 1 89.374 92.585)"/><ellipse cx="1.117" cy="1.102" rx="1.117" ry="1.102" transform="matrix(-1 0 0 1 89.374 99.198)"/><ellipse cx="1.117" cy="1.102" rx="1.117" ry="1.102" transform="matrix(-1 0 0 1 89.374 105.811)"/><ellipse cx="1.117" cy="1.102" rx="1.117" ry="1.102" transform="matrix(-1 0 0 1 89.374 112.424)"/><ellipse cx="1.117" cy="1.102" rx="1.117" ry="1.102" transform="matrix(-1 0 0 1 89.374 119.037)"/><ellipse cx="1.117" cy="1.102" rx="1.117" ry="1.102" transform="matrix(-1 0 0 1 82.67 46.292)"/><ellipse cx="1.117" cy="1.102" rx="1.117" ry="1.102" transform="matrix(-1 0 0 1 82.67 52.906)"/><ellipse cx="1.117" cy="1.102" rx="1.117" ry="1.102" transform="matrix(-1 0 0 1 82.67 59.519)"/><ellipse cx="1.117" cy="1.102" rx="1.117" ry="1.102" transform="matrix(-1 0 0 1 82.67 66.132)"/><ellipse cx="1.117" cy="1.102" rx="1.117" ry="1.102" transform="matrix(-1 0 0 1 82.67 72.745)"/><ellipse cx="1.117" cy="1.102" rx="1.117" ry="1.102" transform="matrix(-1 0 0 1 82.67 79.358)"/><ellipse cx="1.117" cy="1.102" rx="1.117" ry="1.102" transform="matrix(-1 0 0 1 82.67 85.972)"/><ellipse cx="1.117" cy="1.102" rx="1.117" ry="1.102" transform="matrix(-1 0 0 1 82.67 92.585)"/><ellipse cx="1.117" cy="1.102" rx="1.117" ry="1.102" transform="matrix(-1 0 0 1 82.67 99.198)"/><ellipse cx="1.117" cy="1.102" rx="1.117" ry="1.102" transform="matrix(-1 0 0 1 82.67 105.811)"/><ellipse cx="1.117" cy="1.102" rx="1.117" ry="1.102" transform="matrix(-1 0 0 1 82.67 112.424)"/><ellipse cx="1.117" cy="1.102" rx="1.117" ry="1.102" transform="matrix(-1 0 0 1 82.67 119.037)"/><ellipse cx="1.117" cy="1.102" rx="1.117" ry="1.102" transform="matrix(-1 0 0 1 75.968 26.453)"/><ellipse cx="1.117" cy="1.102" rx="1.117" ry="1.102" transform="matrix(-1 0 0 1 75.968 33.066)"/><ellipse cx="1.117" cy="1.102" rx="1.117" ry="1.102" transform="matrix(-1 0 0 1 75.968 39.68)"/><ellipse cx="1.117" cy="1.102" rx="1.117" ry="1.102" transform="matrix(-1 0 0 1 75.968 46.292)"/><ellipse cx="1.117" cy="1.102" rx="1.117" ry="1.102" transform="matrix(-1 0 0 1 75.968 52.906)"/><ellipse cx="1.117" cy="1.102" rx="1.117" ry="1.102" transform="matrix(-1 0 0 1 75.968 59.519)"/><ellipse cx="1.117" cy="1.102" rx="1.117" ry="1.102" transform="matrix(-1 0 0 1 75.968 66.132)"/><ellipse cx="1.117" cy="1.102" rx="1.117" ry="1.102" transform="matrix(-1 0 0 1 75.968 72.745)"/><ellipse cx="1.117" cy="1.102" rx="1.117" ry="1.102" transform="matrix(-1 0 0 1 75.968 79.358)"/><ellipse cx="1.117" cy="1.102" rx="1.117" ry="1.102" transform="matrix(-1 0 0 1 75.968 85.972)"/><ellipse cx="1.117" cy="1.102" rx="1.117" ry="1.102" transform="matrix(-1 0 0 1 75.968 92.585)"/><ellipse cx="1.117" cy="1.102" rx="1.117" ry="1.102" transform="matrix(-1 0 0 1 75.968 99.198)"/><ellipse cx="1.117" cy="1.102" rx="1.117" ry="1.102" transform="matrix(-1 0 0 1 75.968 105.811)"/><ellipse cx="1.117" cy="1.102" rx="1.117" ry="1.102" transform="matrix(-1 0 0 1 75.968 112.424)"/><ellipse cx="1.117" cy="1.102" rx="1.117" ry="1.102" transform="matrix(-1 0 0 1 75.968 119.037)"/><ellipse cx="1.117" cy="1.102" rx="1.117" ry="1.102" transform="matrix(-1 0 0 1 69.264 13.226)"/><ellipse cx="1.117" cy="1.102" rx="1.117" ry="1.102" transform="matrix(-1 0 0 1 69.264 19.84)"/><ellipse cx="1.117" cy="1.102" rx="1.117" ry="1.102" transform="matrix(-1 0 0 1 69.264 26.453)"/><ellipse cx="1.117" cy="1.102" rx="1.117" ry="1.102" transform="matrix(-1 0 0 1 69.264 33.066)"/><ellipse cx="1.117" cy="1.102" rx="1.117" ry="1.102" transform="matrix(-1 0 0 1 69.264 39.68)"/><ellipse cx="1.117" cy="1.102" rx="1.117" ry="1.102" transform="matrix(-1 0 0 1 69.264 46.292)"/><ellipse cx="1.117" cy="1.102" rx="1.117" ry="1.102" transform="matrix(-1 0 0 1 69.264 52.906)"/><ellipse cx="1.117" cy="1.102" rx="1.117" ry="1.102" transform="matrix(-1 0 0 1 69.264 59.519)"/><ellipse cx="1.117" cy="1.102" rx="1.117" ry="1.102" transform="matrix(-1 0 0 1 69.264 66.132)"/><ellipse cx="1.117" cy="1.102" rx="1.117" ry="1.102" transform="matrix(-1 0 0 1 69.264 72.745)"/><ellipse cx="1.117" cy="1.102" rx="1.117" ry="1.102" transform="matrix(-1 0 0 1 69.264 79.358)"/><ellipse cx="1.117" cy="1.102" rx="1.117" ry="1.102" transform="matrix(-1 0 0 1 69.264 85.972)"/><ellipse cx="1.117" cy="1.102" rx="1.117" ry="1.102" transform="matrix(-1 0 0 1 69.264 92.585)"/><ellipse cx="1.117" cy="1.102" rx="1.117" ry="1.102" transform="matrix(-1 0 0 1 69.264 99.198)"/><ellipse cx="1.117" cy="1.102" rx="1.117" ry="1.102" transform="matrix(-1 0 0 1 69.264 105.811)"/><ellipse cx="1.117" cy="1.102" rx="1.117" ry="1.102" transform="matrix(-1 0 0 1 69.264 112.424)"/><ellipse cx="1.117" cy="1.102" rx="1.117" ry="1.102" transform="matrix(-1 0 0 1 69.264 119.037)"/><ellipse cx="1.117" cy="1.102" rx="1.117" ry="1.102" transform="matrix(-1 0 0 1 62.562 13.226)"/><ellipse cx="1.117" cy="1.102" rx="1.117" ry="1.102" transform="matrix(-1 0 0 1 62.562 19.84)"/><ellipse cx="1.117" cy="1.102" rx="1.117" ry="1.102" transform="matrix(-1 0 0 1 62.562 26.453)"/><ellipse cx="1.117" cy="1.102" rx="1.117" ry="1.102" transform="matrix(-1 0 0 1 62.562 33.066)"/><ellipse cx="1.117" cy="1.102" rx="1.117" ry="1.102" transform="matrix(-1 0 0 1 62.562 39.68)"/><ellipse cx="1.117" cy="1.102" rx="1.117" ry="1.102" transform="matrix(-1 0 0 1 62.562 46.292)"/><ellipse cx="1.117" cy="1.102" rx="1.117" ry="1.102" transform="matrix(-1 0 0 1 62.562 52.906)"/><ellipse cx="1.117" cy="1.102" rx="1.117" ry="1.102" transform="matrix(-1 0 0 1 62.562 59.519)"/><ellipse cx="1.117" cy="1.102" rx="1.117" ry="1.102" transform="matrix(-1 0 0 1 62.562 66.132)"/><ellipse cx="1.117" cy="1.102" rx="1.117" ry="1.102" transform="matrix(-1 0 0 1 62.562 72.745)"/><ellipse cx="1.117" cy="1.102" rx="1.117" ry="1.102" transform="matrix(-1 0 0 1 62.562 79.358)"/><ellipse cx="1.117" cy="1.102" rx="1.117" ry="1.102" transform="matrix(-1 0 0 1 62.562 85.972)"/><ellipse cx="1.117" cy="1.102" rx="1.117" ry="1.102" transform="matrix(-1 0 0 1 62.562 92.585)"/><ellipse cx="1.117" cy="1.102" rx="1.117" ry="1.102" transform="matrix(-1 0 0 1 62.562 99.198)"/><ellipse cx="1.117" cy="1.102" rx="1.117" ry="1.102" transform="matrix(-1 0 0 1 62.562 105.811)"/><ellipse cx="1.117" cy="1.102" rx="1.117" ry="1.102" transform="matrix(-1 0 0 1 62.562 112.424)"/><ellipse cx="1.117" cy="1.102" rx="1.117" ry="1.102" transform="matrix(-1 0 0 1 62.562 119.037)"/><ellipse cx="1.117" cy="1.102" rx="1.117" ry="1.102" transform="matrix(-1 0 0 1 55.858 13.226)"/><ellipse cx="1.117" cy="1.102" rx="1.117" ry="1.102" transform="matrix(-1 0 0 1 55.858 19.84)"/><ellipse cx="1.117" cy="1.102" rx="1.117" ry="1.102" transform="matrix(-1 0 0 1 55.858 26.453)"/><ellipse cx="1.117" cy="1.102" rx="1.117" ry="1.102" transform="matrix(-1 0 0 1 55.858 33.066)"/><ellipse cx="1.117" cy="1.102" rx="1.117" ry="1.102" transform="matrix(-1 0 0 1 55.858 39.68)"/><ellipse cx="1.117" cy="1.102" rx="1.117" ry="1.102" transform="matrix(-1 0 0 1 55.858 46.292)"/><ellipse cx="1.117" cy="1.102" rx="1.117" ry="1.102" transform="matrix(-1 0 0 1 55.858 52.906)"/><ellipse cx="1.117" cy="1.102" rx="1.117" ry="1.102" transform="matrix(-1 0 0 1 55.858 59.519)"/><ellipse cx="1.117" cy="1.102" rx="1.117" ry="1.102" transform="matrix(-1 0 0 1 55.858 66.132)"/><ellipse cx="1.117" cy="1.102" rx="1.117" ry="1.102" transform="matrix(-1 0 0 1 55.858 72.745)"/><ellipse cx="1.117" cy="1.102" rx="1.117" ry="1.102" transform="matrix(-1 0 0 1 55.858 79.358)"/><ellipse cx="1.117" cy="1.102" rx="1.117" ry="1.102" transform="matrix(-1 0 0 1 55.858 85.972)"/><ellipse cx="1.117" cy="1.102" rx="1.117" ry="1.102" transform="matrix(-1 0 0 1 55.858 92.585)"/><ellipse cx="1.117" cy="1.102" rx="1.117" ry="1.102" transform="matrix(-1 0 0 1 55.858 99.198)"/><ellipse cx="1.117" cy="1.102" rx="1.117" ry="1.102" transform="matrix(-1 0 0 1 55.858 105.811)"/><ellipse cx="1.117" cy="1.102" rx="1.117" ry="1.102" transform="matrix(-1 0 0 1 55.858 112.424)"/><ellipse cx="1.117" cy="1.102" rx="1.117" ry="1.102" transform="matrix(-1 0 0 1 55.858 119.037)"/><ellipse cx="1.117" cy="1.102" rx="1.117" ry="1.102" transform="matrix(-1 0 0 1 49.156 13.226)"/><ellipse cx="1.117" cy="1.102" rx="1.117" ry="1.102" transform="matrix(-1 0 0 1 49.156 19.84)"/><ellipse cx="1.117" cy="1.102" rx="1.117" ry="1.102" transform="matrix(-1 0 0 1 49.156 26.453)"/><ellipse cx="1.117" cy="1.102" rx="1.117" ry="1.102" transform="matrix(-1 0 0 1 49.156 33.066)"/><ellipse cx="1.117" cy="1.102" rx="1.117" ry="1.102" transform="matrix(-1 0 0 1 49.156 39.68)"/><ellipse cx="1.117" cy="1.102" rx="1.117" ry="1.102" transform="matrix(-1 0 0 1 49.156 46.292)"/><ellipse cx="1.117" cy="1.102" rx="1.117" ry="1.102" transform="matrix(-1 0 0 1 49.156 52.906)"/><ellipse cx="1.117" cy="1.102" rx="1.117" ry="1.102" transform="matrix(-1 0 0 1 49.156 59.519)"/><ellipse cx="1.117" cy="1.102" rx="1.117" ry="1.102" transform="matrix(-1 0 0 1 49.156 66.132)"/><ellipse cx="1.117" cy="1.102" rx="1.117" ry="1.102" transform="matrix(-1 0 0 1 49.156 72.745)"/><ellipse cx="1.117" cy="1.102" rx="1.117" ry="1.102" transform="matrix(-1 0 0 1 49.156 79.358)"/><ellipse cx="1.117" cy="1.102" rx="1.117" ry="1.102" transform="matrix(-1 0 0 1 49.156 85.972)"/><ellipse cx="1.117" cy="1.102" rx="1.117" ry="1.102" transform="matrix(-1 0 0 1 49.156 92.585)"/><ellipse cx="1.117" cy="1.102" rx="1.117" ry="1.102" transform="matrix(-1 0 0 1 49.156 125.651)"/><ellipse cx="1.117" cy="1.102" rx="1.117" ry="1.102" transform="matrix(-1 0 0 1 49.156 99.198)"/><ellipse cx="1.117" cy="1.102" rx="1.117" ry="1.102" transform="matrix(-1 0 0 1 49.156 132.264)"/><ellipse cx="1.117" cy="1.102" rx="1.117" ry="1.102" transform="matrix(-1 0 0 1 49.156 105.811)"/><ellipse cx="1.117" cy="1.102" rx="1.117" ry="1.102" transform="matrix(-1 0 0 1 49.156 138.877)"/><ellipse cx="1.117" cy="1.102" rx="1.117" ry="1.102" transform="matrix(-1 0 0 1 49.156 112.424)"/><ellipse cx="1.117" cy="1.102" rx="1.117" ry="1.102" transform="matrix(-1 0 0 1 49.156 145.49)"/><ellipse cx="1.117" cy="1.102" rx="1.117" ry="1.102" transform="matrix(-1 0 0 1 49.156 119.037)"/><ellipse cx="1.117" cy="1.102" rx="1.117" ry="1.102" transform="matrix(-1 0 0 1 49.156 152.103)"/><ellipse cx="1.117" cy="1.102" rx="1.117" ry="1.102" transform="matrix(-1 0 0 1 42.452 0)"/><ellipse cx="1.117" cy="1.102" rx="1.117" ry="1.102" transform="matrix(-1 0 0 1 42.452 6.613)"/><ellipse cx="1.117" cy="1.102" rx="1.117" ry="1.102" transform="matrix(-1 0 0 1 42.452 13.226)"/><ellipse cx="1.117" cy="1.102" rx="1.117" ry="1.102" transform="matrix(-1 0 0 1 42.452 19.84)"/><ellipse cx="1.117" cy="1.102" rx="1.117" ry="1.102" transform="matrix(-1 0 0 1 42.452 26.453)"/><ellipse cx="1.117" cy="1.102" rx="1.117" ry="1.102" transform="matrix(-1 0 0 1 42.452 33.066)"/><ellipse cx="1.117" cy="1.102" rx="1.117" ry="1.102" transform="matrix(-1 0 0 1 42.452 39.68)"/><ellipse cx="1.117" cy="1.102" rx="1.117" ry="1.102" transform="matrix(-1 0 0 1 42.452 46.292)"/><ellipse cx="1.117" cy="1.102" rx="1.117" ry="1.102" transform="matrix(-1 0 0 1 42.452 52.906)"/><ellipse cx="1.117" cy="1.102" rx="1.117" ry="1.102" transform="matrix(-1 0 0 1 42.452 59.519)"/><ellipse cx="1.117" cy="1.102" rx="1.117" ry="1.102" transform="matrix(-1 0 0 1 42.452 66.132)"/><ellipse cx="1.117" cy="1.102" rx="1.117" ry="1.102" transform="matrix(-1 0 0 1 42.452 72.745)"/><ellipse cx="1.117" cy="1.102" rx="1.117" ry="1.102" transform="matrix(-1 0 0 1 42.452 79.358)"/><ellipse cx="1.117" cy="1.102" rx="1.117" ry="1.102" transform="matrix(-1 0 0 1 42.452 85.972)"/><ellipse cx="1.117" cy="1.102" rx="1.117" ry="1.102" transform="matrix(-1 0 0 1 42.452 92.585)"/><ellipse cx="1.117" cy="1.102" rx="1.117" ry="1.102" transform="matrix(-1 0 0 1 42.452 125.651)"/><ellipse cx="1.117" cy="1.102" rx="1.117" ry="1.102" transform="matrix(-1 0 0 1 42.452 99.198)"/><ellipse cx="1.117" cy="1.102" rx="1.117" ry="1.102" transform="matrix(-1 0 0 1 42.452 132.264)"/><ellipse cx="1.117" cy="1.102" rx="1.117" ry="1.102" transform="matrix(-1 0 0 1 42.452 105.811)"/><ellipse cx="1.117" cy="1.102" rx="1.117" ry="1.102" transform="matrix(-1 0 0 1 42.452 138.877)"/><ellipse cx="1.117" cy="1.102" rx="1.117" ry="1.102" transform="matrix(-1 0 0 1 42.452 112.424)"/><ellipse cx="1.117" cy="1.102" rx="1.117" ry="1.102" transform="matrix(-1 0 0 1 42.452 145.49)"/><ellipse cx="1.117" cy="1.102" rx="1.117" ry="1.102" transform="matrix(-1 0 0 1 42.452 119.037)"/><ellipse cx="1.117" cy="1.102" rx="1.117" ry="1.102" transform="matrix(-1 0 0 1 42.452 152.103)"/><ellipse cx="1.117" cy="1.102" rx="1.117" ry="1.102" transform="matrix(-1 0 0 1 35.75 0)"/><ellipse cx="1.117" cy="1.102" rx="1.117" ry="1.102" transform="matrix(-1 0 0 1 35.75 6.613)"/><ellipse cx="1.117" cy="1.102" rx="1.117" ry="1.102" transform="matrix(-1 0 0 1 35.75 13.226)"/><ellipse cx="1.117" cy="1.102" rx="1.117" ry="1.102" transform="matrix(-1 0 0 1 35.75 19.84)"/><ellipse cx="1.117" cy="1.102" rx="1.117" ry="1.102" transform="matrix(-1 0 0 1 35.75 26.453)"/><ellipse cx="1.117" cy="1.102" rx="1.117" ry="1.102" transform="matrix(-1 0 0 1 35.75 33.066)"/><ellipse cx="1.117" cy="1.102" rx="1.117" ry="1.102" transform="matrix(-1 0 0 1 35.75 85.972)"/><ellipse cx="1.117" cy="1.102" rx="1.117" ry="1.102" transform="matrix(-1 0 0 1 35.75 92.585)"/><ellipse cx="1.117" cy="1.102" rx="1.117" ry="1.102" transform="matrix(-1 0 0 1 35.75 125.651)"/><ellipse cx="1.117" cy="1.102" rx="1.117" ry="1.102" transform="matrix(-1 0 0 1 35.75 99.198)"/><ellipse cx="1.117" cy="1.102" rx="1.117" ry="1.102" transform="matrix(-1 0 0 1 35.75 132.264)"/><ellipse cx="1.117" cy="1.102" rx="1.117" ry="1.102" transform="matrix(-1 0 0 1 35.75 105.811)"/><ellipse cx="1.117" cy="1.102" rx="1.117" ry="1.102" transform="matrix(-1 0 0 1 35.75 138.877)"/><ellipse cx="1.117" cy="1.102" rx="1.117" ry="1.102" transform="matrix(-1 0 0 1 35.75 112.424)"/><ellipse cx="1.117" cy="1.102" rx="1.117" ry="1.102" transform="matrix(-1 0 0 1 35.75 145.49)"/><ellipse cx="1.117" cy="1.102" rx="1.117" ry="1.102" transform="matrix(-1 0 0 1 35.75 119.037)"/><ellipse cx="1.117" cy="1.102" rx="1.117" ry="1.102" transform="matrix(-1 0 0 1 35.75 152.103)"/><ellipse cx="1.117" cy="1.102" rx="1.117" ry="1.102" transform="matrix(-1 0 0 1 2.234 0)"/><ellipse cx="1.117" cy="1.102" rx="1.117" ry="1.102" transform="matrix(-1 0 0 1 2.234 6.613)"/><ellipse cx="1.117" cy="1.102" rx="1.117" ry="1.102" transform="matrix(-1 0 0 1 2.234 13.226)"/><ellipse cx="1.117" cy="1.102" rx="1.117" ry="1.102" transform="matrix(-1 0 0 1 2.234 19.84)"/><ellipse cx="1.117" cy="1.102" rx="1.117" ry="1.102" transform="matrix(-1 0 0 1 2.234 26.453)"/><ellipse cx="1.117" cy="1.102" rx="1.117" ry="1.102" transform="matrix(-1 0 0 1 2.234 33.066)"/><ellipse cx="1.117" cy="1.102" rx="1.117" ry="1.102" transform="matrix(-1 0 0 1 2.234 85.972)"/><ellipse cx="1.117" cy="1.102" rx="1.117" ry="1.102" transform="matrix(-1 0 0 1 2.234 92.585)"/><ellipse cx="1.117" cy="1.102" rx="1.117" ry="1.102" transform="matrix(-1 0 0 1 2.234 125.651)"/><ellipse cx="1.117" cy="1.102" rx="1.117" ry="1.102" transform="matrix(-1 0 0 1 2.234 99.198)"/><ellipse cx="1.117" cy="1.102" rx="1.117" ry="1.102" transform="matrix(-1 0 0 1 2.234 132.264)"/><ellipse cx="1.117" cy="1.102" rx="1.117" ry="1.102" transform="matrix(-1 0 0 1 2.234 105.811)"/><ellipse cx="1.117" cy="1.102" rx="1.117" ry="1.102" transform="matrix(-1 0 0 1 2.234 112.424)"/><ellipse cx="1.117" cy="1.102" rx="1.117" ry="1.102" transform="matrix(-1 0 0 1 2.234 119.037)"/><ellipse cx="1.117" cy="1.102" rx="1.117" ry="1.102" transform="matrix(-1 0 0 1 29.047 0)"/><ellipse cx="1.117" cy="1.102" rx="1.117" ry="1.102" transform="matrix(-1 0 0 1 29.046 6.613)"/><ellipse cx="1.117" cy="1.102" rx="1.117" ry="1.102" transform="matrix(-1 0 0 1 29.046 13.226)"/><ellipse cx="1.117" cy="1.102" rx="1.117" ry="1.102" transform="matrix(-1 0 0 1 29.046 19.84)"/><ellipse cx="1.117" cy="1.102" rx="1.117" ry="1.102" transform="matrix(-1 0 0 1 29.046 26.453)"/><ellipse cx="1.117" cy="1.102" rx="1.117" ry="1.102" transform="matrix(-1 0 0 1 29.046 33.066)"/><ellipse cx="1.117" cy="1.102" rx="1.117" ry="1.102" transform="matrix(-1 0 0 1 29.046 85.972)"/><ellipse cx="1.117" cy="1.102" rx="1.117" ry="1.102" transform="matrix(-1 0 0 1 29.046 92.585)"/><ellipse cx="1.117" cy="1.102" rx="1.117" ry="1.102" transform="matrix(-1 0 0 1 29.046 125.651)"/><ellipse cx="1.117" cy="1.102" rx="1.117" ry="1.102" transform="matrix(-1 0 0 1 29.046 99.198)"/><ellipse cx="1.117" cy="1.102" rx="1.117" ry="1.102" transform="matrix(-1 0 0 1 29.046 132.264)"/><ellipse cx="1.117" cy="1.102" rx="1.117" ry="1.102" transform="matrix(-1 0 0 1 29.046 105.811)"/><ellipse cx="1.117" cy="1.102" rx="1.117" ry="1.102" transform="matrix(-1 0 0 1 29.046 138.877)"/><ellipse cx="1.117" cy="1.102" rx="1.117" ry="1.102" transform="matrix(-1 0 0 1 29.046 112.424)"/><ellipse cx="1.117" cy="1.102" rx="1.117" ry="1.102" transform="matrix(-1 0 0 1 29.046 145.49)"/><ellipse cx="1.117" cy="1.102" rx="1.117" ry="1.102" transform="matrix(-1 0 0 1 29.046 119.037)"/><ellipse cx="1.117" cy="1.102" rx="1.117" ry="1.102" transform="matrix(-1 0 0 1 29.046 152.103)"/><ellipse cx="1.117" cy="1.102" rx="1.117" ry="1.102" transform="matrix(-1 0 0 1 22.343 0)"/><ellipse cx="1.117" cy="1.102" rx="1.117" ry="1.102" transform="matrix(-1 0 0 1 22.343 6.613)"/><ellipse cx="1.117" cy="1.102" rx="1.117" ry="1.102" transform="matrix(-1 0 0 1 22.343 13.226)"/><ellipse cx="1.117" cy="1.102" rx="1.117" ry="1.102" transform="matrix(-1 0 0 1 22.343 19.84)"/><ellipse cx="1.117" cy="1.102" rx="1.117" ry="1.102" transform="matrix(-1 0 0 1 22.343 26.453)"/><ellipse cx="1.117" cy="1.102" rx="1.117" ry="1.102" transform="matrix(-1 0 0 1 22.343 33.066)"/><ellipse cx="1.117" cy="1.102" rx="1.117" ry="1.102" transform="matrix(-1 0 0 1 22.343 85.972)"/><ellipse cx="1.117" cy="1.102" rx="1.117" ry="1.102" transform="matrix(-1 0 0 1 22.343 92.585)"/><ellipse cx="1.117" cy="1.102" rx="1.117" ry="1.102" transform="matrix(-1 0 0 1 22.343 125.651)"/><ellipse cx="1.117" cy="1.102" rx="1.117" ry="1.102" transform="matrix(-1 0 0 1 22.343 99.198)"/><ellipse cx="1.117" cy="1.102" rx="1.117" ry="1.102" transform="matrix(-1 0 0 1 22.343 132.264)"/><ellipse cx="1.117" cy="1.102" rx="1.117" ry="1.102" transform="matrix(-1 0 0 1 22.343 105.811)"/><ellipse cx="1.117" cy="1.102" rx="1.117" ry="1.102" transform="matrix(-1 0 0 1 22.343 138.877)"/><ellipse cx="1.117" cy="1.102" rx="1.117" ry="1.102" transform="matrix(-1 0 0 1 22.343 112.424)"/><ellipse cx="1.117" cy="1.102" rx="1.117" ry="1.102" transform="matrix(-1 0 0 1 22.343 145.49)"/><ellipse cx="1.117" cy="1.102" rx="1.117" ry="1.102" transform="matrix(-1 0 0 1 22.343 119.037)"/><ellipse cx="1.117" cy="1.102" rx="1.117" ry="1.102" transform="matrix(-1 0 0 1 22.343 152.103)"/><ellipse cx="1.117" cy="1.102" rx="1.117" ry="1.102" transform="matrix(-1 0 0 1 15.64 0)"/><ellipse cx="1.117" cy="1.102" rx="1.117" ry="1.102" transform="matrix(-1 0 0 1 15.64 6.613)"/><ellipse cx="1.117" cy="1.102" rx="1.117" ry="1.102" transform="matrix(-1 0 0 1 15.64 13.226)"/><ellipse cx="1.117" cy="1.102" rx="1.117" ry="1.102" transform="matrix(-1 0 0 1 15.64 19.84)"/><ellipse cx="1.117" cy="1.102" rx="1.117" ry="1.102" transform="matrix(-1 0 0 1 15.64 26.453)"/><ellipse cx="1.117" cy="1.102" rx="1.117" ry="1.102" transform="matrix(-1 0 0 1 15.64 33.066)"/><ellipse cx="1.117" cy="1.102" rx="1.117" ry="1.102" transform="matrix(-1 0 0 1 15.64 85.972)"/><ellipse cx="1.117" cy="1.102" rx="1.117" ry="1.102" transform="matrix(-1 0 0 1 15.64 92.585)"/><ellipse cx="1.117" cy="1.102" rx="1.117" ry="1.102" transform="matrix(-1 0 0 1 15.64 125.651)"/><ellipse cx="1.117" cy="1.102" rx="1.117" ry="1.102" transform="matrix(-1 0 0 1 15.64 99.198)"/><ellipse cx="1.117" cy="1.102" rx="1.117" ry="1.102" transform="matrix(-1 0 0 1 15.64 132.264)"/><ellipse cx="1.117" cy="1.102" rx="1.117" ry="1.102" transform="matrix(-1 0 0 1 15.64 105.811)"/><ellipse cx="1.117" cy="1.102" rx="1.117" ry="1.102" transform="matrix(-1 0 0 1 15.64 112.424)"/><ellipse cx="1.117" cy="1.102" rx="1.117" ry="1.102" transform="matrix(-1 0 0 1 15.64 119.037)"/><ellipse cx="1.117" cy="1.102" rx="1.117" ry="1.102" transform="matrix(-1 0 0 1 8.938 0)"/><ellipse cx="1.117" cy="1.102" rx="1.117" ry="1.102" transform="matrix(-1 0 0 1 8.938 6.613)"/><ellipse cx="1.117" cy="1.102" rx="1.117" ry="1.102" transform="matrix(-1 0 0 1 8.938 13.226)"/><ellipse cx="1.117" cy="1.102" rx="1.117" ry="1.102" transform="matrix(-1 0 0 1 8.938 19.84)"/><ellipse cx="1.117" cy="1.102" rx="1.117" ry="1.102" transform="matrix(-1 0 0 1 8.938 26.453)"/><ellipse cx="1.117" cy="1.102" rx="1.117" ry="1.102" transform="matrix(-1 0 0 1 8.937 33.066)"/><ellipse cx="1.117" cy="1.102" rx="1.117" ry="1.102" transform="matrix(-1 0 0 1 8.937 85.972)"/><ellipse cx="1.117" cy="1.102" rx="1.117" ry="1.102" transform="matrix(-1 0 0 1 8.938 92.585)"/><ellipse cx="1.117" cy="1.102" rx="1.117" ry="1.102" transform="matrix(-1 0 0 1 8.938 125.651)"/><ellipse cx="1.117" cy="1.102" rx="1.117" ry="1.102" transform="matrix(-1 0 0 1 8.938 99.198)"/><ellipse cx="1.117" cy="1.102" rx="1.117" ry="1.102" transform="matrix(-1 0 0 1 8.938 132.264)"/><ellipse cx="1.117" cy="1.102" rx="1.117" ry="1.102" transform="matrix(-1 0 0 1 8.938 105.811)"/><ellipse cx="1.117" cy="1.102" rx="1.117" ry="1.102" transform="matrix(-1 0 0 1 8.938 112.424)"/><ellipse cx="1.117" cy="1.102" rx="1.117" ry="1.102" transform="matrix(-1 0 0 1 8.938 119.037)"/></g><g opacity=".24" fill="#8BABFB"><ellipse cx="193.82" cy="308.395" rx="1.117" ry="1.102"/><ellipse cx="193.82" cy="315.008" rx="1.117" ry="1.102"/><ellipse cx="193.82" cy="321.621" rx="1.117" ry="1.102"/><ellipse cx="193.82" cy="328.234" rx="1.117" ry="1.102"/><ellipse cx="193.82" cy="334.847" rx="1.117" ry="1.102"/><ellipse cx="193.82" cy="341.461" rx="1.117" ry="1.102"/><ellipse cx="193.82" cy="348.074" rx="1.117" ry="1.102"/><ellipse cx="193.82" cy="354.687" rx="1.117" ry="1.102"/><ellipse cx="193.82" cy="361.3" rx="1.117" ry="1.102"/><ellipse cx="193.82" cy="367.913" rx="1.117" ry="1.102"/><ellipse cx="193.82" cy="374.527" rx="1.117" ry="1.102"/><ellipse cx="193.82" cy="381.14" rx="1.117" ry="1.102"/><ellipse cx="200.523" cy="308.395" rx="1.117" ry="1.102"/><ellipse cx="200.523" cy="315.008" rx="1.117" ry="1.102"/><ellipse cx="200.523" cy="321.621" rx="1.117" ry="1.102"/><ellipse cx="200.523" cy="328.234" rx="1.117" ry="1.102"/><ellipse cx="200.523" cy="334.847" rx="1.117" ry="1.102"/><ellipse cx="200.523" cy="341.461" rx="1.117" ry="1.102"/><ellipse cx="200.523" cy="348.074" rx="1.117" ry="1.102"/><ellipse cx="200.523" cy="354.687" rx="1.117" ry="1.102"/><ellipse cx="200.523" cy="361.3" rx="1.117" ry="1.102"/><ellipse cx="200.523" cy="367.913" rx="1.117" ry="1.102"/><ellipse cx="200.523" cy="374.527" rx="1.117" ry="1.102"/><ellipse cx="200.523" cy="381.14" rx="1.117" ry="1.102"/><ellipse cx="207.226" cy="288.555" rx="1.117" ry="1.102"/><ellipse cx="207.226" cy="295.168" rx="1.117" ry="1.102"/><ellipse cx="207.226" cy="301.781" rx="1.117" ry="1.102"/><ellipse cx="207.226" cy="308.395" rx="1.117" ry="1.102"/><ellipse cx="207.226" cy="315.008" rx="1.117" ry="1.102"/><ellipse cx="207.226" cy="321.621" rx="1.117" ry="1.102"/><ellipse cx="207.226" cy="328.234" rx="1.117" ry="1.102"/><ellipse cx="207.226" cy="334.847" rx="1.117" ry="1.102"/><ellipse cx="207.226" cy="341.461" rx="1.117" ry="1.102"/><ellipse cx="207.226" cy="348.074" rx="1.117" ry="1.102"/><ellipse cx="207.226" cy="354.687" rx="1.117" ry="1.102"/><ellipse cx="207.226" cy="361.3" rx="1.117" ry="1.102"/><ellipse cx="207.226" cy="367.913" rx="1.117" ry="1.102"/><ellipse cx="207.226" cy="374.527" rx="1.117" ry="1.102"/><ellipse cx="207.226" cy="381.14" rx="1.117" ry="1.102"/><ellipse cx="213.929" cy="275.329" rx="1.117" ry="1.102"/><ellipse cx="213.929" cy="281.942" rx="1.117" ry="1.102"/><ellipse cx="213.929" cy="288.555" rx="1.117" ry="1.102"/><ellipse cx="213.929" cy="295.168" rx="1.117" ry="1.102"/><ellipse cx="213.929" cy="301.781" rx="1.117" ry="1.102"/><ellipse cx="213.929" cy="308.395" rx="1.117" ry="1.102"/><ellipse cx="213.929" cy="315.008" rx="1.117" ry="1.102"/><ellipse cx="213.929" cy="321.621" rx="1.117" ry="1.102"/><ellipse cx="213.929" cy="328.234" rx="1.117" ry="1.102"/><ellipse cx="213.929" cy="334.847" rx="1.117" ry="1.102"/><ellipse cx="213.929" cy="341.461" rx="1.117" ry="1.102"/><ellipse cx="213.929" cy="348.074" rx="1.117" ry="1.102"/><ellipse cx="213.929" cy="354.687" rx="1.117" ry="1.102"/><ellipse cx="213.929" cy="361.3" rx="1.117" ry="1.102"/><ellipse cx="213.929" cy="367.913" rx="1.117" ry="1.102"/><ellipse cx="213.929" cy="374.527" rx="1.117" ry="1.102"/><ellipse cx="213.929" cy="381.14" rx="1.117" ry="1.102"/><ellipse cx="220.632" cy="275.329" rx="1.117" ry="1.102"/><ellipse cx="220.632" cy="281.942" rx="1.117" ry="1.102"/><ellipse cx="220.632" cy="288.555" rx="1.117" ry="1.102"/><ellipse cx="220.632" cy="295.168" rx="1.117" ry="1.102"/><ellipse cx="220.632" cy="301.781" rx="1.117" ry="1.102"/><ellipse cx="220.632" cy="308.395" rx="1.117" ry="1.102"/><ellipse cx="220.632" cy="315.008" rx="1.117" ry="1.102"/><ellipse cx="220.632" cy="321.621" rx="1.117" ry="1.102"/><ellipse cx="220.632" cy="328.234" rx="1.117" ry="1.102"/><ellipse cx="220.632" cy="334.847" rx="1.117" ry="1.102"/><ellipse cx="220.632" cy="341.461" rx="1.117" ry="1.102"/><ellipse cx="220.632" cy="348.074" rx="1.117" ry="1.102"/><ellipse cx="220.632" cy="354.687" rx="1.117" ry="1.102"/><ellipse cx="220.632" cy="361.3" rx="1.117" ry="1.102"/><ellipse cx="220.632" cy="367.913" rx="1.117" ry="1.102"/><ellipse cx="220.632" cy="374.527" rx="1.117" ry="1.102"/><ellipse cx="220.632" cy="381.14" rx="1.117" ry="1.102"/><ellipse cx="227.335" cy="275.329" rx="1.117" ry="1.102"/><ellipse cx="227.335" cy="281.942" rx="1.117" ry="1.102"/><ellipse cx="227.335" cy="288.555" rx="1.117" ry="1.102"/><ellipse cx="227.335" cy="295.168" rx="1.117" ry="1.102"/><ellipse cx="227.335" cy="301.781" rx="1.117" ry="1.102"/><ellipse cx="227.335" cy="308.395" rx="1.117" ry="1.102"/><ellipse cx="227.335" cy="315.008" rx="1.117" ry="1.102"/><ellipse cx="227.335" cy="321.621" rx="1.117" ry="1.102"/><ellipse cx="227.335" cy="328.234" rx="1.117" ry="1.102"/><ellipse cx="227.335" cy="334.847" rx="1.117" ry="1.102"/><ellipse cx="227.335" cy="341.461" rx="1.117" ry="1.102"/><ellipse cx="227.335" cy="348.074" rx="1.117" ry="1.102"/><ellipse cx="227.335" cy="354.687" rx="1.117" ry="1.102"/><ellipse cx="227.335" cy="361.3" rx="1.117" ry="1.102"/><ellipse cx="227.335" cy="367.913" rx="1.117" ry="1.102"/><ellipse cx="227.335" cy="374.527" rx="1.117" ry="1.102"/><ellipse cx="227.335" cy="381.14" rx="1.117" ry="1.102"/><ellipse cx="234.038" cy="275.329" rx="1.117" ry="1.102"/><ellipse cx="234.038" cy="281.942" rx="1.117" ry="1.102"/><ellipse cx="234.038" cy="288.555" rx="1.117" ry="1.102"/><ellipse cx="234.038" cy="295.168" rx="1.117" ry="1.102"/><ellipse cx="234.038" cy="301.781" rx="1.117" ry="1.102"/><ellipse cx="234.038" cy="308.395" rx="1.117" ry="1.102"/><ellipse cx="234.038" cy="315.008" rx="1.117" ry="1.102"/><ellipse cx="234.038" cy="321.621" rx="1.117" ry="1.102"/><ellipse cx="234.038" cy="328.234" rx="1.117" ry="1.102"/><ellipse cx="234.038" cy="334.847" rx="1.117" ry="1.102"/><ellipse cx="234.038" cy="341.461" rx="1.117" ry="1.102"/><ellipse cx="234.038" cy="348.074" rx="1.117" ry="1.102"/><ellipse cx="234.038" cy="354.687" rx="1.117" ry="1.102"/><ellipse cx="234.038" cy="387.753" rx="1.117" ry="1.102"/><ellipse cx="234.038" cy="361.3" rx="1.117" ry="1.102"/><ellipse cx="234.038" cy="394.366" rx="1.117" ry="1.102"/><ellipse cx="234.038" cy="367.913" rx="1.117" ry="1.102"/><ellipse cx="234.038" cy="400.979" rx="1.117" ry="1.102"/><ellipse cx="234.038" cy="374.527" rx="1.117" ry="1.102"/><ellipse cx="234.038" cy="407.593" rx="1.117" ry="1.102"/><ellipse cx="234.038" cy="381.14" rx="1.117" ry="1.102"/><ellipse cx="234.038" cy="414.206" rx="1.117" ry="1.102"/><ellipse cx="240.741" cy="262.102" rx="1.117" ry="1.102"/><ellipse cx="240.741" cy="268.715" rx="1.117" ry="1.102"/><ellipse cx="240.741" cy="275.329" rx="1.117" ry="1.102"/><ellipse cx="240.741" cy="281.942" rx="1.117" ry="1.102"/><ellipse cx="240.741" cy="288.555" rx="1.117" ry="1.102"/><ellipse cx="240.741" cy="295.168" rx="1.117" ry="1.102"/><ellipse cx="240.741" cy="301.781" rx="1.117" ry="1.102"/><ellipse cx="240.741" cy="308.395" rx="1.117" ry="1.102"/><ellipse cx="240.741" cy="315.008" rx="1.117" ry="1.102"/><ellipse cx="240.741" cy="321.621" rx="1.117" ry="1.102"/><ellipse cx="240.741" cy="328.234" rx="1.117" ry="1.102"/><ellipse cx="240.741" cy="334.847" rx="1.117" ry="1.102"/><ellipse cx="240.741" cy="341.461" rx="1.117" ry="1.102"/><ellipse cx="240.741" cy="348.074" rx="1.117" ry="1.102"/><ellipse cx="240.741" cy="354.687" rx="1.117" ry="1.102"/><ellipse cx="240.741" cy="387.753" rx="1.117" ry="1.102"/><ellipse cx="240.741" cy="361.3" rx="1.117" ry="1.102"/><ellipse cx="240.741" cy="394.366" rx="1.117" ry="1.102"/><ellipse cx="240.741" cy="367.913" rx="1.117" ry="1.102"/><ellipse cx="240.741" cy="400.979" rx="1.117" ry="1.102"/><ellipse cx="240.741" cy="374.527" rx="1.117" ry="1.102"/><ellipse cx="240.741" cy="407.593" rx="1.117" ry="1.102"/><ellipse cx="240.741" cy="381.14" rx="1.117" ry="1.102"/><ellipse cx="240.741" cy="414.206" rx="1.117" ry="1.102"/><ellipse cx="247.444" cy="262.102" rx="1.117" ry="1.102"/><ellipse cx="247.444" cy="268.715" rx="1.117" ry="1.102"/><ellipse cx="247.444" cy="275.329" rx="1.117" ry="1.102"/><ellipse cx="247.444" cy="281.942" rx="1.117" ry="1.102"/><ellipse cx="247.444" cy="288.555" rx="1.117" ry="1.102"/><ellipse cx="247.444" cy="295.168" rx="1.117" ry="1.102"/><ellipse cx="247.444" cy="348.074" rx="1.117" ry="1.102"/><ellipse cx="247.444" cy="354.687" rx="1.117" ry="1.102"/><ellipse cx="247.444" cy="387.753" rx="1.117" ry="1.102"/><ellipse cx="247.444" cy="361.3" rx="1.117" ry="1.102"/><ellipse cx="247.444" cy="394.366" rx="1.117" ry="1.102"/><ellipse cx="247.444" cy="367.913" rx="1.117" ry="1.102"/><ellipse cx="247.444" cy="400.979" rx="1.117" ry="1.102"/><ellipse cx="247.444" cy="374.527" rx="1.117" ry="1.102"/><ellipse cx="247.444" cy="407.593" rx="1.117" ry="1.102"/><ellipse cx="247.444" cy="381.14" rx="1.117" ry="1.102"/><ellipse cx="247.444" cy="414.206" rx="1.117" ry="1.102"/><ellipse cx="254.147" cy="262.102" rx="1.117" ry="1.102"/><ellipse cx="254.147" cy="268.715" rx="1.117" ry="1.102"/><ellipse cx="254.147" cy="275.329" rx="1.117" ry="1.102"/><ellipse cx="254.147" cy="281.942" rx="1.117" ry="1.102"/><ellipse cx="254.147" cy="288.555" rx="1.117" ry="1.102"/><ellipse cx="254.147" cy="295.168" rx="1.117" ry="1.102"/><ellipse cx="254.147" cy="348.074" rx="1.117" ry="1.102"/><ellipse cx="254.147" cy="354.687" rx="1.117" ry="1.102"/><ellipse cx="254.147" cy="387.753" rx="1.117" ry="1.102"/><ellipse cx="254.147" cy="361.3" rx="1.117" ry="1.102"/><ellipse cx="254.147" cy="394.366" rx="1.117" ry="1.102"/><ellipse cx="254.147" cy="367.913" rx="1.117" ry="1.102"/><ellipse cx="254.147" cy="400.979" rx="1.117" ry="1.102"/><ellipse cx="254.147" cy="374.527" rx="1.117" ry="1.102"/><ellipse cx="254.147" cy="407.593" rx="1.117" ry="1.102"/><ellipse cx="254.147" cy="381.14" rx="1.117" ry="1.102"/><ellipse cx="254.147" cy="414.206" rx="1.117" ry="1.102"/><ellipse cx="260.85" cy="262.102" rx="1.117" ry="1.102"/><ellipse cx="260.85" cy="268.715" rx="1.117" ry="1.102"/><ellipse cx="260.85" cy="275.329" rx="1.117" ry="1.102"/><ellipse cx="260.85" cy="281.942" rx="1.117" ry="1.102"/><ellipse cx="260.85" cy="288.555" rx="1.117" ry="1.102"/><ellipse cx="260.85" cy="295.168" rx="1.117" ry="1.102"/><ellipse cx="260.85" cy="348.074" rx="1.117" ry="1.102"/><ellipse cx="260.85" cy="354.687" rx="1.117" ry="1.102"/><ellipse cx="260.85" cy="387.753" rx="1.117" ry="1.102"/><ellipse cx="260.85" cy="361.3" rx="1.117" ry="1.102"/><ellipse cx="260.85" cy="394.366" rx="1.117" ry="1.102"/><ellipse cx="260.85" cy="367.913" rx="1.117" ry="1.102"/><ellipse cx="260.85" cy="400.979" rx="1.117" ry="1.102"/><ellipse cx="260.85" cy="374.527" rx="1.117" ry="1.102"/><ellipse cx="260.85" cy="407.593" rx="1.117" ry="1.102"/><ellipse cx="260.85" cy="381.14" rx="1.117" ry="1.102"/><ellipse cx="260.85" cy="414.206" rx="1.117" ry="1.102"/></g><g opacity=".24" fill="#8BABFB"><ellipse cx="99.82" cy="202.395" rx="1.117" ry="1.102"/><ellipse cx="99.82" cy="209.008" rx="1.117" ry="1.102"/><ellipse cx="99.82" cy="215.621" rx="1.117" ry="1.102"/><ellipse cx="99.82" cy="222.234" rx="1.117" ry="1.102"/><ellipse cx="99.82" cy="228.847" rx="1.117" ry="1.102"/><ellipse cx="99.82" cy="235.461" rx="1.117" ry="1.102"/><ellipse cx="99.82" cy="242.074" rx="1.117" ry="1.102"/><ellipse cx="99.82" cy="248.687" rx="1.117" ry="1.102"/><ellipse cx="99.82" cy="255.3" rx="1.117" ry="1.102"/><ellipse cx="99.82" cy="261.913" rx="1.117" ry="1.102"/><ellipse cx="99.82" cy="268.526" rx="1.117" ry="1.102"/><ellipse cx="99.82" cy="275.14" rx="1.117" ry="1.102"/><ellipse cx="106.523" cy="202.395" rx="1.117" ry="1.102"/><ellipse cx="106.523" cy="209.008" rx="1.117" ry="1.102"/><ellipse cx="106.523" cy="215.621" rx="1.117" ry="1.102"/><ellipse cx="106.523" cy="222.234" rx="1.117" ry="1.102"/><ellipse cx="106.523" cy="228.847" rx="1.117" ry="1.102"/><ellipse cx="106.523" cy="235.461" rx="1.117" ry="1.102"/><ellipse cx="106.523" cy="242.074" rx="1.117" ry="1.102"/><ellipse cx="106.523" cy="248.687" rx="1.117" ry="1.102"/><ellipse cx="106.523" cy="255.3" rx="1.117" ry="1.102"/><ellipse cx="106.523" cy="261.913" rx="1.117" ry="1.102"/><ellipse cx="106.523" cy="268.527" rx="1.117" ry="1.102"/><ellipse cx="106.523" cy="275.14" rx="1.117" ry="1.102"/><ellipse cx="113.226" cy="182.555" rx="1.117" ry="1.102"/><ellipse cx="113.226" cy="189.168" rx="1.117" ry="1.102"/><ellipse cx="113.226" cy="195.781" rx="1.117" ry="1.102"/><ellipse cx="113.226" cy="202.395" rx="1.117" ry="1.102"/><ellipse cx="113.226" cy="209.008" rx="1.117" ry="1.102"/><ellipse cx="113.226" cy="215.621" rx="1.117" ry="1.102"/><ellipse cx="113.226" cy="222.234" rx="1.117" ry="1.102"/><ellipse cx="113.226" cy="228.847" rx="1.117" ry="1.102"/><ellipse cx="113.226" cy="235.461" rx="1.117" ry="1.102"/><ellipse cx="113.226" cy="242.074" rx="1.117" ry="1.102"/><ellipse cx="113.226" cy="248.687" rx="1.117" ry="1.102"/><ellipse cx="113.226" cy="255.3" rx="1.117" ry="1.102"/><ellipse cx="113.226" cy="261.913" rx="1.117" ry="1.102"/><ellipse cx="113.226" cy="268.527" rx="1.117" ry="1.102"/><ellipse cx="113.226" cy="275.14" rx="1.117" ry="1.102"/><ellipse cx="119.929" cy="169.329" rx="1.117" ry="1.102"/><ellipse cx="119.929" cy="175.942" rx="1.117" ry="1.102"/><ellipse cx="119.929" cy="182.555" rx="1.117" ry="1.102"/><ellipse cx="119.929" cy="189.168" rx="1.117" ry="1.102"/><ellipse cx="119.929" cy="195.781" rx="1.117" ry="1.102"/><ellipse cx="119.929" cy="202.395" rx="1.117" ry="1.102"/><ellipse cx="119.929" cy="209.008" rx="1.117" ry="1.102"/><ellipse cx="119.929" cy="215.621" rx="1.117" ry="1.102"/><ellipse cx="119.929" cy="222.234" rx="1.117" ry="1.102"/><ellipse cx="119.929" cy="228.847" rx="1.117" ry="1.102"/><ellipse cx="119.929" cy="235.461" rx="1.117" ry="1.102"/><ellipse cx="119.929" cy="242.074" rx="1.117" ry="1.102"/><ellipse cx="119.929" cy="248.687" rx="1.117" ry="1.102"/><ellipse cx="119.929" cy="255.3" rx="1.117" ry="1.102"/><ellipse cx="119.929" cy="261.913" rx="1.117" ry="1.102"/><ellipse cx="119.929" cy="268.526" rx="1.117" ry="1.102"/><ellipse cx="119.929" cy="275.14" rx="1.117" ry="1.102"/><ellipse cx="126.632" cy="169.329" rx="1.117" ry="1.102"/><ellipse cx="126.632" cy="175.942" rx="1.117" ry="1.102"/><ellipse cx="126.632" cy="182.555" rx="1.117" ry="1.102"/><ellipse cx="126.632" cy="189.168" rx="1.117" ry="1.102"/><ellipse cx="126.632" cy="195.781" rx="1.117" ry="1.102"/><ellipse cx="126.632" cy="202.395" rx="1.117" ry="1.102"/><ellipse cx="126.632" cy="209.008" rx="1.117" ry="1.102"/><ellipse cx="126.632" cy="215.621" rx="1.117" ry="1.102"/><ellipse cx="126.632" cy="222.234" rx="1.117" ry="1.102"/><ellipse cx="126.632" cy="228.847" rx="1.117" ry="1.102"/><ellipse cx="126.632" cy="235.461" rx="1.117" ry="1.102"/><ellipse cx="126.632" cy="242.074" rx="1.117" ry="1.102"/><ellipse cx="126.632" cy="248.687" rx="1.117" ry="1.102"/><ellipse cx="126.632" cy="255.3" rx="1.117" ry="1.102"/><ellipse cx="126.632" cy="261.913" rx="1.117" ry="1.102"/><ellipse cx="126.632" cy="268.527" rx="1.117" ry="1.102"/><ellipse cx="126.632" cy="275.14" rx="1.117" ry="1.102"/><ellipse cx="133.335" cy="169.329" rx="1.117" ry="1.102"/><ellipse cx="133.335" cy="175.942" rx="1.117" ry="1.102"/><ellipse cx="133.335" cy="182.555" rx="1.117" ry="1.102"/><ellipse cx="133.335" cy="189.168" rx="1.117" ry="1.102"/><ellipse cx="133.335" cy="195.781" rx="1.117" ry="1.102"/><ellipse cx="133.335" cy="202.395" rx="1.117" ry="1.102"/><ellipse cx="133.335" cy="209.008" rx="1.117" ry="1.102"/><ellipse cx="133.335" cy="215.621" rx="1.117" ry="1.102"/><ellipse cx="133.335" cy="222.234" rx="1.117" ry="1.102"/><ellipse cx="133.335" cy="228.847" rx="1.117" ry="1.102"/><ellipse cx="133.335" cy="235.461" rx="1.117" ry="1.102"/><ellipse cx="133.335" cy="242.074" rx="1.117" ry="1.102"/><ellipse cx="133.335" cy="248.687" rx="1.117" ry="1.102"/><ellipse cx="133.335" cy="255.3" rx="1.117" ry="1.102"/><ellipse cx="133.335" cy="261.913" rx="1.117" ry="1.102"/><ellipse cx="133.335" cy="268.526" rx="1.117" ry="1.102"/><ellipse cx="133.335" cy="275.14" rx="1.117" ry="1.102"/><ellipse cx="140.038" cy="169.329" rx="1.117" ry="1.102"/><ellipse cx="140.038" cy="175.942" rx="1.117" ry="1.102"/><ellipse cx="140.038" cy="182.555" rx="1.117" ry="1.102"/><ellipse cx="140.038" cy="189.168" rx="1.117" ry="1.102"/><ellipse cx="140.038" cy="195.781" rx="1.117" ry="1.102"/><ellipse cx="140.038" cy="202.395" rx="1.117" ry="1.102"/><ellipse cx="140.038" cy="209.008" rx="1.117" ry="1.102"/><ellipse cx="140.038" cy="215.621" rx="1.117" ry="1.102"/><ellipse cx="140.038" cy="222.234" rx="1.117" ry="1.102"/><ellipse cx="140.038" cy="228.847" rx="1.117" ry="1.102"/><ellipse cx="140.038" cy="235.461" rx="1.117" ry="1.102"/><ellipse cx="140.038" cy="242.074" rx="1.117" ry="1.102"/><ellipse cx="140.038" cy="248.687" rx="1.117" ry="1.102"/><ellipse cx="140.038" cy="281.753" rx="1.117" ry="1.102"/><ellipse cx="140.038" cy="255.3" rx="1.117" ry="1.102"/><ellipse cx="140.038" cy="288.366" rx="1.117" ry="1.102"/><ellipse cx="140.038" cy="261.913" rx="1.117" ry="1.102"/><ellipse cx="140.038" cy="294.979" rx="1.117" ry="1.102"/><ellipse cx="140.038" cy="268.527" rx="1.117" ry="1.102"/><ellipse cx="140.038" cy="301.592" rx="1.117" ry="1.102"/><ellipse cx="140.038" cy="275.14" rx="1.117" ry="1.102"/><ellipse cx="140.038" cy="308.206" rx="1.117" ry="1.102"/><ellipse cx="146.741" cy="156.102" rx="1.117" ry="1.102"/><ellipse cx="146.741" cy="162.715" rx="1.117" ry="1.102"/><ellipse cx="146.741" cy="169.329" rx="1.117" ry="1.102"/><ellipse cx="146.741" cy="175.942" rx="1.117" ry="1.102"/><ellipse cx="146.741" cy="182.555" rx="1.117" ry="1.102"/><ellipse cx="146.741" cy="189.168" rx="1.117" ry="1.102"/><ellipse cx="146.741" cy="195.781" rx="1.117" ry="1.102"/><ellipse cx="146.741" cy="202.395" rx="1.117" ry="1.102"/><ellipse cx="146.741" cy="209.008" rx="1.117" ry="1.102"/><ellipse cx="146.741" cy="215.621" rx="1.117" ry="1.102"/><ellipse cx="146.741" cy="222.234" rx="1.117" ry="1.102"/><ellipse cx="146.741" cy="228.847" rx="1.117" ry="1.102"/><ellipse cx="146.741" cy="235.461" rx="1.117" ry="1.102"/><ellipse cx="146.741" cy="242.074" rx="1.117" ry="1.102"/><ellipse cx="146.741" cy="248.687" rx="1.117" ry="1.102"/><ellipse cx="146.741" cy="281.753" rx="1.117" ry="1.102"/><ellipse cx="146.741" cy="255.3" rx="1.117" ry="1.102"/><ellipse cx="146.741" cy="288.366" rx="1.117" ry="1.102"/><ellipse cx="146.741" cy="261.913" rx="1.117" ry="1.102"/><ellipse cx="146.741" cy="294.979" rx="1.117" ry="1.102"/><ellipse cx="146.741" cy="268.527" rx="1.117" ry="1.102"/><ellipse cx="146.741" cy="301.592" rx="1.117" ry="1.102"/><ellipse cx="146.741" cy="275.14" rx="1.117" ry="1.102"/><ellipse cx="146.741" cy="308.206" rx="1.117" ry="1.102"/><ellipse cx="153.444" cy="156.102" rx="1.117" ry="1.102"/><ellipse cx="153.444" cy="162.715" rx="1.117" ry="1.102"/><ellipse cx="153.444" cy="169.329" rx="1.117" ry="1.102"/><ellipse cx="153.444" cy="175.942" rx="1.117" ry="1.102"/><ellipse cx="153.444" cy="182.555" rx="1.117" ry="1.102"/><ellipse cx="153.444" cy="189.168" rx="1.117" ry="1.102"/><ellipse cx="153.444" cy="242.074" rx="1.117" ry="1.102"/><ellipse cx="153.444" cy="248.687" rx="1.117" ry="1.102"/><ellipse cx="153.444" cy="281.753" rx="1.117" ry="1.102"/><ellipse cx="153.444" cy="255.3" rx="1.117" ry="1.102"/><ellipse cx="153.444" cy="288.366" rx="1.117" ry="1.102"/><ellipse cx="153.444" cy="261.913" rx="1.117" ry="1.102"/><ellipse cx="153.444" cy="294.979" rx="1.117" ry="1.102"/><ellipse cx="153.444" cy="268.526" rx="1.117" ry="1.102"/><ellipse cx="153.444" cy="301.592" rx="1.117" ry="1.102"/><ellipse cx="153.444" cy="275.14" rx="1.117" ry="1.102"/><ellipse cx="153.444" cy="308.206" rx="1.117" ry="1.102"/><ellipse cx="157.959" cy="156.102" rx="1.117" ry="1.102"/><ellipse cx="157.959" cy="162.715" rx="1.117" ry="1.102"/><ellipse cx="157.959" cy="169.329" rx="1.117" ry="1.102"/><ellipse cx="157.959" cy="175.942" rx="1.117" ry="1.102"/><ellipse cx="157.959" cy="182.555" rx="1.117" ry="1.102"/><ellipse cx="157.959" cy="189.168" rx="1.117" ry="1.102"/><ellipse cx="157.959" cy="242.074" rx="1.117" ry="1.102"/><ellipse cx="157.959" cy="248.687" rx="1.117" ry="1.102"/><ellipse cx="157.959" cy="281.753" rx="1.117" ry="1.102"/><ellipse cx="157.959" cy="255.3" rx="1.117" ry="1.102"/><ellipse cx="157.959" cy="288.366" rx="1.117" ry="1.102"/><ellipse cx="157.959" cy="261.913" rx="1.117" ry="1.102"/><ellipse cx="157.959" cy="268.527" rx="1.117" ry="1.102"/><ellipse cx="157.959" cy="275.14" rx="1.117" ry="1.102"/><ellipse cx="160.147" cy="156.102" rx="1.117" ry="1.102"/><ellipse cx="160.147" cy="162.715" rx="1.117" ry="1.102"/><ellipse cx="160.147" cy="169.329" rx="1.117" ry="1.102"/><ellipse cx="160.147" cy="175.942" rx="1.117" ry="1.102"/><ellipse cx="160.147" cy="182.555" rx="1.117" ry="1.102"/><ellipse cx="160.147" cy="189.168" rx="1.117" ry="1.102"/><ellipse cx="160.147" cy="242.074" rx="1.117" ry="1.102"/><ellipse cx="160.147" cy="248.687" rx="1.117" ry="1.102"/><ellipse cx="160.147" cy="281.753" rx="1.117" ry="1.102"/><ellipse cx="160.147" cy="255.3" rx="1.117" ry="1.102"/><ellipse cx="160.147" cy="288.366" rx="1.117" ry="1.102"/><ellipse cx="160.147" cy="261.913" rx="1.117" ry="1.102"/><ellipse cx="160.147" cy="294.979" rx="1.117" ry="1.102"/><ellipse cx="160.147" cy="268.527" rx="1.117" ry="1.102"/><ellipse cx="160.147" cy="301.592" rx="1.117" ry="1.102"/><ellipse cx="160.147" cy="275.14" rx="1.117" ry="1.102"/><ellipse cx="160.147" cy="308.206" rx="1.117" ry="1.102"/><ellipse cx="166.85" cy="156.102" rx="1.117" ry="1.102"/><ellipse cx="166.85" cy="162.715" rx="1.117" ry="1.102"/><ellipse cx="166.85" cy="169.329" rx="1.117" ry="1.102"/><ellipse cx="166.85" cy="175.942" rx="1.117" ry="1.102"/><ellipse cx="166.85" cy="182.555" rx="1.117" ry="1.102"/><ellipse cx="166.85" cy="189.168" rx="1.117" ry="1.102"/><ellipse cx="166.85" cy="242.074" rx="1.117" ry="1.102"/><ellipse cx="166.85" cy="248.687" rx="1.117" ry="1.102"/><ellipse cx="166.85" cy="281.753" rx="1.117" ry="1.102"/><ellipse cx="166.85" cy="255.3" rx="1.117" ry="1.102"/><ellipse cx="166.85" cy="288.366" rx="1.117" ry="1.102"/><ellipse cx="166.85" cy="261.913" rx="1.117" ry="1.102"/><ellipse cx="166.85" cy="294.979" rx="1.117" ry="1.102"/><ellipse cx="166.85" cy="268.526" rx="1.117" ry="1.102"/><ellipse cx="166.85" cy="301.592" rx="1.117" ry="1.102"/><ellipse cx="166.85" cy="275.14" rx="1.117" ry="1.102"/><ellipse cx="166.85" cy="308.206" rx="1.117" ry="1.102"/><ellipse cx="173.553" cy="156.102" rx="1.117" ry="1.102"/><ellipse cx="173.553" cy="162.715" rx="1.117" ry="1.102"/><ellipse cx="173.553" cy="169.329" rx="1.117" ry="1.102"/><ellipse cx="173.553" cy="175.942" rx="1.117" ry="1.102"/><ellipse cx="173.553" cy="182.555" rx="1.117" ry="1.102"/><ellipse cx="173.553" cy="189.168" rx="1.117" ry="1.102"/><ellipse cx="173.553" cy="242.074" rx="1.117" ry="1.102"/><ellipse cx="173.553" cy="248.687" rx="1.117" ry="1.102"/><ellipse cx="173.553" cy="281.753" rx="1.117" ry="1.102"/><ellipse cx="173.553" cy="255.3" rx="1.117" ry="1.102"/><ellipse cx="173.553" cy="288.366" rx="1.117" ry="1.102"/><ellipse cx="173.553" cy="261.913" rx="1.117" ry="1.102"/><ellipse cx="173.553" cy="268.527" rx="1.117" ry="1.102"/><ellipse cx="173.553" cy="275.14" rx="1.117" ry="1.102"/><ellipse cx="180.256" cy="156.102" rx="1.117" ry="1.102"/><ellipse cx="180.256" cy="162.715" rx="1.117" ry="1.102"/><ellipse cx="180.256" cy="169.329" rx="1.117" ry="1.102"/><ellipse cx="180.256" cy="175.942" rx="1.117" ry="1.102"/><ellipse cx="180.256" cy="182.555" rx="1.117" ry="1.102"/><ellipse cx="180.256" cy="189.168" rx="1.117" ry="1.102"/><ellipse cx="180.256" cy="242.074" rx="1.117" ry="1.102"/><ellipse cx="180.256" cy="248.687" rx="1.117" ry="1.102"/><ellipse cx="180.256" cy="281.753" rx="1.117" ry="1.102"/><ellipse cx="180.256" cy="255.3" rx="1.117" ry="1.102"/><ellipse cx="180.256" cy="288.366" rx="1.117" ry="1.102"/><ellipse cx="180.256" cy="261.913" rx="1.117" ry="1.102"/><ellipse cx="180.256" cy="268.526" rx="1.117" ry="1.102"/><ellipse cx="180.256" cy="275.14" rx="1.117" ry="1.102"/></g><g opacity=".16" fill="#8BABFB"><ellipse cx="88.257" cy="266.913" rx="1.117" ry="1.102" transform="rotate(180 88.257 266.913)"/><ellipse cx="88.257" cy="260.3" rx="1.117" ry="1.102" transform="rotate(180 88.257 260.3)"/><ellipse cx="88.257" cy="253.687" rx="1.117" ry="1.102" transform="rotate(180 88.257 253.687)"/><ellipse cx="88.257" cy="247.074" rx="1.117" ry="1.102" transform="rotate(180 88.257 247.074)"/><ellipse cx="88.257" cy="240.461" rx="1.117" ry="1.102" transform="rotate(180 88.257 240.461)"/><ellipse cx="88.257" cy="233.847" rx="1.117" ry="1.102" transform="rotate(180 88.257 233.847)"/><ellipse cx="88.257" cy="227.234" rx="1.117" ry="1.102" transform="rotate(180 88.257 227.234)"/><ellipse cx="88.257" cy="220.621" rx="1.117" ry="1.102" transform="rotate(180 88.257 220.621)"/><ellipse cx="88.257" cy="214.008" rx="1.117" ry="1.102" transform="rotate(180 88.257 214.008)"/><ellipse cx="88.257" cy="207.395" rx="1.117" ry="1.102" transform="rotate(180 88.257 207.395)"/><ellipse cx="88.257" cy="200.781" rx="1.117" ry="1.102" transform="rotate(180 88.257 200.781)"/><ellipse cx="88.257" cy="194.168" rx="1.117" ry="1.102" transform="rotate(180 88.257 194.168)"/><ellipse cx="81.553" cy="266.913" rx="1.117" ry="1.102" transform="rotate(180 81.553 266.913)"/><ellipse cx="81.553" cy="260.3" rx="1.117" ry="1.102" transform="rotate(180 81.553 260.3)"/><ellipse cx="81.553" cy="253.687" rx="1.117" ry="1.102" transform="rotate(180 81.553 253.687)"/><ellipse cx="81.553" cy="247.074" rx="1.117" ry="1.102" transform="rotate(180 81.553 247.074)"/><ellipse cx="81.553" cy="240.461" rx="1.117" ry="1.102" transform="rotate(180 81.553 240.461)"/><ellipse cx="81.553" cy="233.847" rx="1.117" ry="1.102" transform="rotate(180 81.553 233.847)"/><ellipse cx="81.553" cy="227.234" rx="1.117" ry="1.102" transform="rotate(180 81.553 227.234)"/><ellipse cx="81.553" cy="220.621" rx="1.117" ry="1.102" transform="rotate(180 81.553 220.621)"/><ellipse cx="81.553" cy="214.008" rx="1.117" ry="1.102" transform="rotate(180 81.553 214.008)"/><ellipse cx="81.553" cy="207.395" rx="1.117" ry="1.102" transform="rotate(180 81.553 207.395)"/><ellipse cx="81.553" cy="200.781" rx="1.117" ry="1.102" transform="rotate(180 81.553 200.781)"/><ellipse cx="81.553" cy="194.168" rx="1.117" ry="1.102" transform="rotate(180 81.553 194.168)"/><ellipse cx="74.851" cy="286.753" rx="1.117" ry="1.102" transform="rotate(180 74.85 286.753)"/><ellipse cx="74.851" cy="280.14" rx="1.117" ry="1.102" transform="rotate(180 74.85 280.14)"/><ellipse cx="74.851" cy="273.527" rx="1.117" ry="1.102" transform="rotate(180 74.85 273.527)"/><ellipse cx="74.851" cy="266.913" rx="1.117" ry="1.102" transform="rotate(180 74.85 266.913)"/><ellipse cx="74.851" cy="260.3" rx="1.117" ry="1.102" transform="rotate(180 74.85 260.3)"/><ellipse cx="74.851" cy="253.687" rx="1.117" ry="1.102" transform="rotate(180 74.85 253.687)"/><ellipse cx="74.851" cy="247.074" rx="1.117" ry="1.102" transform="rotate(180 74.85 247.074)"/><ellipse cx="74.851" cy="240.461" rx="1.117" ry="1.102" transform="rotate(180 74.85 240.461)"/><ellipse cx="74.851" cy="233.847" rx="1.117" ry="1.102" transform="rotate(180 74.85 233.847)"/><ellipse cx="74.851" cy="227.234" rx="1.117" ry="1.102" transform="rotate(180 74.85 227.234)"/><ellipse cx="74.851" cy="220.621" rx="1.117" ry="1.102" transform="rotate(180 74.85 220.621)"/><ellipse cx="74.851" cy="214.008" rx="1.117" ry="1.102" transform="rotate(180 74.85 214.008)"/><ellipse cx="74.851" cy="207.395" rx="1.117" ry="1.102" transform="rotate(180 74.85 207.395)"/><ellipse cx="74.851" cy="200.781" rx="1.117" ry="1.102" transform="rotate(180 74.85 200.781)"/><ellipse cx="74.851" cy="194.168" rx="1.117" ry="1.102" transform="rotate(180 74.85 194.168)"/><ellipse cx="68.147" cy="299.979" rx="1.117" ry="1.102" transform="rotate(180 68.147 299.979)"/><ellipse cx="68.147" cy="293.366" rx="1.117" ry="1.102" transform="rotate(180 68.147 293.366)"/><ellipse cx="68.147" cy="286.753" rx="1.117" ry="1.102" transform="rotate(180 68.147 286.753)"/><ellipse cx="68.147" cy="280.14" rx="1.117" ry="1.102" transform="rotate(180 68.147 280.14)"/><ellipse cx="68.147" cy="273.527" rx="1.117" ry="1.102" transform="rotate(180 68.147 273.527)"/><ellipse cx="68.147" cy="266.913" rx="1.117" ry="1.102" transform="rotate(180 68.147 266.913)"/><ellipse cx="68.147" cy="260.3" rx="1.117" ry="1.102" transform="rotate(180 68.147 260.3)"/><ellipse cx="68.147" cy="253.687" rx="1.117" ry="1.102" transform="rotate(180 68.147 253.687)"/><ellipse cx="68.147" cy="247.074" rx="1.117" ry="1.102" transform="rotate(180 68.147 247.074)"/><ellipse cx="68.147" cy="240.461" rx="1.117" ry="1.102" transform="rotate(180 68.147 240.461)"/><ellipse cx="68.147" cy="233.847" rx="1.117" ry="1.102" transform="rotate(180 68.147 233.847)"/><ellipse cx="68.147" cy="227.234" rx="1.117" ry="1.102" transform="rotate(180 68.147 227.234)"/><ellipse cx="68.147" cy="220.621" rx="1.117" ry="1.102" transform="rotate(180 68.147 220.621)"/><ellipse cx="68.147" cy="214.008" rx="1.117" ry="1.102" transform="rotate(180 68.147 214.008)"/><ellipse cx="68.147" cy="207.395" rx="1.117" ry="1.102" transform="rotate(180 68.147 207.395)"/><ellipse cx="68.147" cy="200.781" rx="1.117" ry="1.102" transform="rotate(180 68.147 200.781)"/><ellipse cx="68.147" cy="194.168" rx="1.117" ry="1.102" transform="rotate(180 68.147 194.168)"/><ellipse cx="61.445" cy="299.979" rx="1.117" ry="1.102" transform="rotate(180 61.445 299.979)"/><ellipse cx="61.445" cy="293.366" rx="1.117" ry="1.102" transform="rotate(180 61.445 293.366)"/><ellipse cx="61.445" cy="286.753" rx="1.117" ry="1.102" transform="rotate(180 61.445 286.753)"/><ellipse cx="61.445" cy="280.14" rx="1.117" ry="1.102" transform="rotate(180 61.445 280.14)"/><ellipse cx="61.445" cy="273.527" rx="1.117" ry="1.102" transform="rotate(180 61.445 273.527)"/><ellipse cx="61.445" cy="266.913" rx="1.117" ry="1.102" transform="rotate(180 61.445 266.913)"/><ellipse cx="61.445" cy="260.3" rx="1.117" ry="1.102" transform="rotate(180 61.445 260.3)"/><ellipse cx="61.445" cy="253.687" rx="1.117" ry="1.102" transform="rotate(180 61.445 253.687)"/><ellipse cx="61.445" cy="247.074" rx="1.117" ry="1.102" transform="rotate(180 61.445 247.074)"/><ellipse cx="61.445" cy="240.461" rx="1.117" ry="1.102" transform="rotate(180 61.445 240.461)"/><ellipse cx="61.445" cy="233.847" rx="1.117" ry="1.102" transform="rotate(180 61.445 233.847)"/><ellipse cx="61.445" cy="227.234" rx="1.117" ry="1.102" transform="rotate(180 61.445 227.234)"/><ellipse cx="61.445" cy="220.621" rx="1.117" ry="1.102" transform="rotate(180 61.445 220.621)"/><ellipse cx="61.445" cy="214.008" rx="1.117" ry="1.102" transform="rotate(180 61.445 214.008)"/><ellipse cx="61.445" cy="207.395" rx="1.117" ry="1.102" transform="rotate(180 61.445 207.395)"/><ellipse cx="61.445" cy="200.781" rx="1.117" ry="1.102" transform="rotate(180 61.445 200.781)"/><ellipse cx="61.445" cy="194.168" rx="1.117" ry="1.102" transform="rotate(180 61.445 194.168)"/><ellipse cx="54.742" cy="299.979" rx="1.117" ry="1.102" transform="rotate(180 54.742 299.979)"/><ellipse cx="54.742" cy="293.366" rx="1.117" ry="1.102" transform="rotate(180 54.742 293.366)"/><ellipse cx="54.742" cy="286.753" rx="1.117" ry="1.102" transform="rotate(180 54.742 286.753)"/><ellipse cx="54.742" cy="280.14" rx="1.117" ry="1.102" transform="rotate(180 54.742 280.14)"/><ellipse cx="54.742" cy="273.527" rx="1.117" ry="1.102" transform="rotate(180 54.742 273.527)"/><ellipse cx="54.742" cy="266.913" rx="1.117" ry="1.102" transform="rotate(180 54.742 266.913)"/><ellipse cx="54.742" cy="260.3" rx="1.117" ry="1.102" transform="rotate(180 54.742 260.3)"/><ellipse cx="54.742" cy="253.687" rx="1.117" ry="1.102" transform="rotate(180 54.742 253.687)"/><ellipse cx="54.742" cy="247.074" rx="1.117" ry="1.102" transform="rotate(180 54.742 247.074)"/><ellipse cx="54.742" cy="240.461" rx="1.117" ry="1.102" transform="rotate(180 54.742 240.461)"/><ellipse cx="54.742" cy="233.847" rx="1.117" ry="1.102" transform="rotate(180 54.742 233.847)"/><ellipse cx="54.742" cy="227.234" rx="1.117" ry="1.102" transform="rotate(180 54.742 227.234)"/><ellipse cx="54.742" cy="220.621" rx="1.117" ry="1.102" transform="rotate(180 54.742 220.621)"/><ellipse cx="54.742" cy="214.008" rx="1.117" ry="1.102" transform="rotate(180 54.742 214.008)"/><ellipse cx="54.742" cy="207.395" rx="1.117" ry="1.102" transform="rotate(180 54.742 207.395)"/><ellipse cx="54.742" cy="200.781" rx="1.117" ry="1.102" transform="rotate(180 54.742 200.781)"/><ellipse cx="54.742" cy="194.168" rx="1.117" ry="1.102" transform="rotate(180 54.742 194.168)"/><ellipse cx="48.039" cy="299.979" rx="1.117" ry="1.102" transform="rotate(180 48.039 299.979)"/><ellipse cx="48.039" cy="293.366" rx="1.117" ry="1.102" transform="rotate(180 48.039 293.366)"/><ellipse cx="48.039" cy="286.753" rx="1.117" ry="1.102" transform="rotate(180 48.039 286.753)"/><ellipse cx="48.039" cy="280.14" rx="1.117" ry="1.102" transform="rotate(180 48.039 280.14)"/><ellipse cx="48.039" cy="273.527" rx="1.117" ry="1.102" transform="rotate(180 48.039 273.527)"/><ellipse cx="48.039" cy="266.913" rx="1.117" ry="1.102" transform="rotate(180 48.039 266.913)"/><ellipse cx="48.039" cy="260.3" rx="1.117" ry="1.102" transform="rotate(180 48.039 260.3)"/><ellipse cx="48.039" cy="253.687" rx="1.117" ry="1.102" transform="rotate(180 48.039 253.687)"/><ellipse cx="48.039" cy="247.074" rx="1.117" ry="1.102" transform="rotate(180 48.039 247.074)"/><ellipse cx="48.039" cy="240.461" rx="1.117" ry="1.102" transform="rotate(180 48.039 240.461)"/><ellipse cx="48.039" cy="233.847" rx="1.117" ry="1.102" transform="rotate(180 48.039 233.847)"/><ellipse cx="48.039" cy="227.234" rx="1.117" ry="1.102" transform="rotate(180 48.039 227.234)"/><ellipse cx="48.039" cy="220.621" rx="1.117" ry="1.102" transform="rotate(180 48.039 220.621)"/><ellipse cx="48.039" cy="187.555" rx="1.117" ry="1.102" transform="rotate(180 48.039 187.555)"/><ellipse cx="48.039" cy="214.008" rx="1.117" ry="1.102" transform="rotate(180 48.039 214.008)"/><ellipse cx="48.039" cy="180.942" rx="1.117" ry="1.102" transform="rotate(180 48.039 180.942)"/><ellipse cx="48.039" cy="207.395" rx="1.117" ry="1.102" transform="rotate(180 48.039 207.395)"/><ellipse cx="48.039" cy="174.329" rx="1.117" ry="1.102" transform="rotate(180 48.039 174.329)"/><ellipse cx="48.039" cy="200.781" rx="1.117" ry="1.102" transform="rotate(180 48.039 200.781)"/><ellipse cx="48.039" cy="167.715" rx="1.117" ry="1.102" transform="rotate(180 48.039 167.715)"/><ellipse cx="48.039" cy="194.168" rx="1.117" ry="1.102" transform="rotate(180 48.039 194.168)"/><ellipse cx="48.039" cy="161.102" rx="1.117" ry="1.102" transform="rotate(180 48.039 161.102)"/><ellipse cx="41.336" cy="313.206" rx="1.117" ry="1.102" transform="rotate(180 41.336 313.206)"/><ellipse cx="41.336" cy="306.592" rx="1.117" ry="1.102" transform="rotate(180 41.336 306.592)"/><ellipse cx="41.336" cy="299.979" rx="1.117" ry="1.102" transform="rotate(180 41.336 299.979)"/><ellipse cx="41.336" cy="293.366" rx="1.117" ry="1.102" transform="rotate(180 41.336 293.366)"/><ellipse cx="41.336" cy="286.753" rx="1.117" ry="1.102" transform="rotate(180 41.336 286.753)"/><ellipse cx="41.336" cy="280.14" rx="1.117" ry="1.102" transform="rotate(180 41.336 280.14)"/><ellipse cx="41.336" cy="273.527" rx="1.117" ry="1.102" transform="rotate(180 41.336 273.527)"/><ellipse cx="41.336" cy="266.913" rx="1.117" ry="1.102" transform="rotate(180 41.336 266.913)"/><ellipse cx="41.336" cy="260.3" rx="1.117" ry="1.102" transform="rotate(180 41.336 260.3)"/><ellipse cx="41.336" cy="253.687" rx="1.117" ry="1.102" transform="rotate(180 41.336 253.687)"/><ellipse cx="41.336" cy="247.074" rx="1.117" ry="1.102" transform="rotate(180 41.336 247.074)"/><ellipse cx="41.336" cy="240.461" rx="1.117" ry="1.102" transform="rotate(180 41.336 240.461)"/><ellipse cx="41.336" cy="233.847" rx="1.117" ry="1.102" transform="rotate(180 41.336 233.847)"/><ellipse cx="41.336" cy="227.234" rx="1.117" ry="1.102" transform="rotate(180 41.336 227.234)"/><ellipse cx="41.336" cy="220.621" rx="1.117" ry="1.102" transform="rotate(180 41.336 220.621)"/><ellipse cx="41.336" cy="187.555" rx="1.117" ry="1.102" transform="rotate(180 41.336 187.555)"/><ellipse cx="41.336" cy="214.008" rx="1.117" ry="1.102" transform="rotate(180 41.336 214.008)"/><ellipse cx="41.336" cy="180.942" rx="1.117" ry="1.102" transform="rotate(180 41.336 180.942)"/><ellipse cx="41.336" cy="207.395" rx="1.117" ry="1.102" transform="rotate(180 41.336 207.395)"/><ellipse cx="41.336" cy="174.329" rx="1.117" ry="1.102" transform="rotate(180 41.336 174.329)"/><ellipse cx="41.336" cy="200.781" rx="1.117" ry="1.102" transform="rotate(180 41.336 200.781)"/><ellipse cx="41.336" cy="167.715" rx="1.117" ry="1.102" transform="rotate(180 41.336 167.715)"/><ellipse cx="41.336" cy="194.168" rx="1.117" ry="1.102" transform="rotate(180 41.336 194.168)"/><ellipse cx="41.336" cy="161.102" rx="1.117" ry="1.102" transform="rotate(180 41.336 161.102)"/><ellipse cx="34.633" cy="313.206" rx="1.117" ry="1.102" transform="rotate(180 34.633 313.206)"/><ellipse cx="34.633" cy="306.592" rx="1.117" ry="1.102" transform="rotate(180 34.633 306.592)"/><ellipse cx="34.633" cy="299.979" rx="1.117" ry="1.102" transform="rotate(180 34.633 299.979)"/><ellipse cx="34.633" cy="293.366" rx="1.117" ry="1.102" transform="rotate(180 34.633 293.366)"/><ellipse cx="34.633" cy="286.753" rx="1.117" ry="1.102" transform="rotate(180 34.633 286.753)"/><ellipse cx="34.633" cy="280.14" rx="1.117" ry="1.102" transform="rotate(180 34.633 280.14)"/><ellipse cx="34.633" cy="227.234" rx="1.117" ry="1.102" transform="rotate(180 34.633 227.234)"/><ellipse cx="34.633" cy="220.621" rx="1.117" ry="1.102" transform="rotate(180 34.633 220.621)"/><ellipse cx="34.633" cy="187.555" rx="1.117" ry="1.102" transform="rotate(180 34.633 187.555)"/><ellipse cx="34.633" cy="214.008" rx="1.117" ry="1.102" transform="rotate(180 34.633 214.008)"/><ellipse cx="34.633" cy="180.942" rx="1.117" ry="1.102" transform="rotate(180 34.633 180.942)"/><ellipse cx="34.633" cy="207.395" rx="1.117" ry="1.102" transform="rotate(180 34.633 207.395)"/><ellipse cx="34.633" cy="174.329" rx="1.117" ry="1.102" transform="rotate(180 34.633 174.329)"/><ellipse cx="34.633" cy="200.781" rx="1.117" ry="1.102" transform="rotate(180 34.633 200.781)"/><ellipse cx="34.633" cy="167.715" rx="1.117" ry="1.102" transform="rotate(180 34.633 167.715)"/><ellipse cx="34.633" cy="194.168" rx="1.117" ry="1.102" transform="rotate(180 34.633 194.168)"/><ellipse cx="34.633" cy="161.102" rx="1.117" ry="1.102" transform="rotate(180 34.633 161.102)"/><ellipse cx="1.117" cy="313.206" rx="1.117" ry="1.102" transform="rotate(180 1.117 313.206)"/><ellipse cx="1.117" cy="306.592" rx="1.117" ry="1.102" transform="rotate(180 1.117 306.592)"/><ellipse cx="1.117" cy="299.979" rx="1.117" ry="1.102" transform="rotate(180 1.117 299.979)"/><ellipse cx="1.117" cy="293.366" rx="1.117" ry="1.102" transform="rotate(180 1.117 293.366)"/><ellipse cx="1.117" cy="286.753" rx="1.117" ry="1.102" transform="rotate(180 1.117 286.753)"/><ellipse cx="1.117" cy="280.14" rx="1.117" ry="1.102" transform="rotate(180 1.117 280.14)"/><ellipse cx="1.117" cy="227.234" rx="1.117" ry="1.102" transform="rotate(180 1.117 227.234)"/><ellipse cx="1.117" cy="220.621" rx="1.117" ry="1.102" transform="rotate(180 1.117 220.621)"/><ellipse cx="1.117" cy="187.555" rx="1.117" ry="1.102" transform="rotate(180 1.117 187.555)"/><ellipse cx="1.117" cy="214.008" rx="1.117" ry="1.102" transform="rotate(180 1.117 214.008)"/><ellipse cx="1.117" cy="180.942" rx="1.117" ry="1.102" transform="rotate(180 1.117 180.942)"/><ellipse cx="1.117" cy="207.395" rx="1.117" ry="1.102" transform="rotate(180 1.117 207.395)"/><ellipse cx="1.117" cy="200.781" rx="1.117" ry="1.102" transform="rotate(180 1.117 200.781)"/><ellipse cx="1.117" cy="194.168" rx="1.117" ry="1.102" transform="rotate(180 1.117 194.168)"/><ellipse cx="27.93" cy="313.206" rx="1.117" ry="1.102" transform="rotate(180 27.93 313.206)"/><ellipse cx="27.93" cy="306.592" rx="1.117" ry="1.102" transform="rotate(180 27.93 306.592)"/><ellipse cx="27.93" cy="299.979" rx="1.117" ry="1.102" transform="rotate(180 27.93 299.979)"/><ellipse cx="27.93" cy="293.366" rx="1.117" ry="1.102" transform="rotate(180 27.93 293.366)"/><ellipse cx="27.93" cy="286.753" rx="1.117" ry="1.102" transform="rotate(180 27.93 286.753)"/><ellipse cx="27.93" cy="280.14" rx="1.117" ry="1.102" transform="rotate(180 27.93 280.14)"/><ellipse cx="27.93" cy="227.234" rx="1.117" ry="1.102" transform="rotate(180 27.93 227.234)"/><ellipse cx="27.93" cy="220.621" rx="1.117" ry="1.102" transform="rotate(180 27.93 220.621)"/><ellipse cx="27.93" cy="187.555" rx="1.117" ry="1.102" transform="rotate(180 27.93 187.555)"/><ellipse cx="27.93" cy="214.008" rx="1.117" ry="1.102" transform="rotate(180 27.93 214.008)"/><ellipse cx="27.93" cy="180.942" rx="1.117" ry="1.102" transform="rotate(180 27.93 180.942)"/><ellipse cx="27.93" cy="207.395" rx="1.117" ry="1.102" transform="rotate(180 27.93 207.395)"/><ellipse cx="27.93" cy="174.329" rx="1.117" ry="1.102" transform="rotate(180 27.93 174.329)"/><ellipse cx="27.93" cy="200.781" rx="1.117" ry="1.102" transform="rotate(180 27.93 200.781)"/><ellipse cx="27.93" cy="167.715" rx="1.117" ry="1.102" transform="rotate(180 27.93 167.715)"/><ellipse cx="27.93" cy="194.168" rx="1.117" ry="1.102" transform="rotate(180 27.93 194.168)"/><ellipse cx="27.93" cy="161.102" rx="1.117" ry="1.102" transform="rotate(180 27.93 161.102)"/><ellipse cx="21.227" cy="313.206" rx="1.117" ry="1.102" transform="rotate(180 21.227 313.206)"/><ellipse cx="21.227" cy="306.592" rx="1.117" ry="1.102" transform="rotate(180 21.227 306.592)"/><ellipse cx="21.227" cy="299.979" rx="1.117" ry="1.102" transform="rotate(180 21.227 299.979)"/><ellipse cx="21.227" cy="293.366" rx="1.117" ry="1.102" transform="rotate(180 21.227 293.366)"/><ellipse cx="21.227" cy="286.753" rx="1.117" ry="1.102" transform="rotate(180 21.227 286.753)"/><ellipse cx="21.227" cy="280.14" rx="1.117" ry="1.102" transform="rotate(180 21.227 280.14)"/><ellipse cx="21.227" cy="227.234" rx="1.117" ry="1.102" transform="rotate(180 21.227 227.234)"/><ellipse cx="21.227" cy="220.621" rx="1.117" ry="1.102" transform="rotate(180 21.227 220.621)"/><ellipse cx="21.227" cy="187.555" rx="1.117" ry="1.102" transform="rotate(180 21.227 187.555)"/><ellipse cx="21.227" cy="214.008" rx="1.117" ry="1.102" transform="rotate(180 21.227 214.008)"/><ellipse cx="21.227" cy="180.942" rx="1.117" ry="1.102" transform="rotate(180 21.227 180.942)"/><ellipse cx="21.227" cy="207.395" rx="1.117" ry="1.102" transform="rotate(180 21.227 207.395)"/><ellipse cx="21.227" cy="174.329" rx="1.117" ry="1.102" transform="rotate(180 21.227 174.329)"/><ellipse cx="21.227" cy="200.781" rx="1.117" ry="1.102" transform="rotate(180 21.227 200.781)"/><ellipse cx="21.227" cy="167.715" rx="1.117" ry="1.102" transform="rotate(180 21.227 167.715)"/><ellipse cx="21.227" cy="194.168" rx="1.117" ry="1.102" transform="rotate(180 21.227 194.168)"/><ellipse cx="21.227" cy="161.102" rx="1.117" ry="1.102" transform="rotate(180 21.227 161.102)"/><ellipse cx="14.524" cy="313.206" rx="1.117" ry="1.102" transform="rotate(180 14.524 313.206)"/><ellipse cx="14.524" cy="306.592" rx="1.117" ry="1.102" transform="rotate(180 14.524 306.592)"/><ellipse cx="14.524" cy="299.979" rx="1.117" ry="1.102" transform="rotate(180 14.524 299.979)"/><ellipse cx="14.524" cy="293.366" rx="1.117" ry="1.102" transform="rotate(180 14.524 293.366)"/><ellipse cx="14.524" cy="286.753" rx="1.117" ry="1.102" transform="rotate(180 14.524 286.753)"/><ellipse cx="14.524" cy="280.14" rx="1.117" ry="1.102" transform="rotate(180 14.524 280.14)"/><ellipse cx="14.524" cy="227.234" rx="1.117" ry="1.102" transform="rotate(180 14.524 227.234)"/><ellipse cx="14.524" cy="220.621" rx="1.117" ry="1.102" transform="rotate(180 14.524 220.621)"/><ellipse cx="14.524" cy="187.555" rx="1.117" ry="1.102" transform="rotate(180 14.524 187.555)"/><ellipse cx="14.524" cy="214.008" rx="1.117" ry="1.102" transform="rotate(180 14.524 214.008)"/><ellipse cx="14.524" cy="180.942" rx="1.117" ry="1.102" transform="rotate(180 14.524 180.942)"/><ellipse cx="14.524" cy="207.395" rx="1.117" ry="1.102" transform="rotate(180 14.524 207.395)"/><ellipse cx="14.524" cy="200.781" rx="1.117" ry="1.102" transform="rotate(180 14.524 200.781)"/><ellipse cx="14.524" cy="194.168" rx="1.117" ry="1.102" transform="rotate(180 14.524 194.168)"/><ellipse cx="7.821" cy="313.206" rx="1.117" ry="1.102" transform="rotate(180 7.82 313.206)"/><ellipse cx="7.821" cy="306.592" rx="1.117" ry="1.102" transform="rotate(180 7.82 306.592)"/><ellipse cx="7.821" cy="299.979" rx="1.117" ry="1.102" transform="rotate(180 7.82 299.979)"/><ellipse cx="7.821" cy="293.366" rx="1.117" ry="1.102" transform="rotate(180 7.82 293.366)"/><ellipse cx="7.821" cy="286.753" rx="1.117" ry="1.102" transform="rotate(180 7.82 286.753)"/><ellipse cx="7.82" cy="280.14" rx="1.117" ry="1.102" transform="rotate(180 7.82 280.14)"/><ellipse cx="7.82" cy="227.234" rx="1.117" ry="1.102" transform="rotate(180 7.82 227.234)"/><ellipse cx="7.821" cy="220.621" rx="1.117" ry="1.102" transform="rotate(180 7.82 220.621)"/><ellipse cx="7.821" cy="187.555" rx="1.117" ry="1.102" transform="rotate(180 7.82 187.555)"/><ellipse cx="7.821" cy="214.008" rx="1.117" ry="1.102" transform="rotate(180 7.82 214.008)"/><ellipse cx="7.821" cy="180.942" rx="1.117" ry="1.102" transform="rotate(180 7.82 180.942)"/><ellipse cx="7.821" cy="207.395" rx="1.117" ry="1.102" transform="rotate(180 7.82 207.395)"/><ellipse cx="7.821" cy="200.781" rx="1.117" ry="1.102" transform="rotate(180 7.82 200.781)"/><ellipse cx="7.821" cy="194.168" rx="1.117" ry="1.102" transform="rotate(180 7.82 194.168)"/></g><g opacity=".24" fill="#8BABFB"><ellipse cx="1.117" cy="1.102" rx="1.117" ry="1.102" transform="matrix(1 0 0 -1 98.703 422.016)"/><ellipse cx="1.117" cy="1.102" rx="1.117" ry="1.102" transform="matrix(1 0 0 -1 98.703 415.402)"/><ellipse cx="1.117" cy="1.102" rx="1.117" ry="1.102" transform="matrix(1 0 0 -1 98.703 408.789)"/><ellipse cx="1.117" cy="1.102" rx="1.117" ry="1.102" transform="matrix(1 0 0 -1 98.703 402.176)"/><ellipse cx="1.117" cy="1.102" rx="1.117" ry="1.102" transform="matrix(1 0 0 -1 98.703 395.563)"/><ellipse cx="1.117" cy="1.102" rx="1.117" ry="1.102" transform="matrix(1 0 0 -1 98.703 388.95)"/><ellipse cx="1.117" cy="1.102" rx="1.117" ry="1.102" transform="matrix(1 0 0 -1 98.703 382.336)"/><ellipse cx="1.117" cy="1.102" rx="1.117" ry="1.102" transform="matrix(1 0 0 -1 98.703 375.723)"/><ellipse cx="1.117" cy="1.102" rx="1.117" ry="1.102" transform="matrix(1 0 0 -1 98.703 369.11)"/><ellipse cx="1.117" cy="1.102" rx="1.117" ry="1.102" transform="matrix(1 0 0 -1 98.703 362.497)"/><ellipse cx="1.117" cy="1.102" rx="1.117" ry="1.102" transform="matrix(1 0 0 -1 98.703 355.884)"/><ellipse cx="1.117" cy="1.102" rx="1.117" ry="1.102" transform="matrix(1 0 0 -1 98.703 349.27)"/><ellipse cx="1.117" cy="1.102" rx="1.117" ry="1.102" transform="matrix(1 0 0 -1 105.406 422.016)"/><ellipse cx="1.117" cy="1.102" rx="1.117" ry="1.102" transform="matrix(1 0 0 -1 105.406 415.402)"/><ellipse cx="1.117" cy="1.102" rx="1.117" ry="1.102" transform="matrix(1 0 0 -1 105.406 408.789)"/><ellipse cx="1.117" cy="1.102" rx="1.117" ry="1.102" transform="matrix(1 0 0 -1 105.406 402.176)"/><ellipse cx="1.117" cy="1.102" rx="1.117" ry="1.102" transform="matrix(1 0 0 -1 105.406 395.563)"/><ellipse cx="1.117" cy="1.102" rx="1.117" ry="1.102" transform="matrix(1 0 0 -1 105.406 388.95)"/><ellipse cx="1.117" cy="1.102" rx="1.117" ry="1.102" transform="matrix(1 0 0 -1 105.406 382.336)"/><ellipse cx="1.117" cy="1.102" rx="1.117" ry="1.102" transform="matrix(1 0 0 -1 105.406 375.723)"/><ellipse cx="1.117" cy="1.102" rx="1.117" ry="1.102" transform="matrix(1 0 0 -1 105.406 369.11)"/><ellipse cx="1.117" cy="1.102" rx="1.117" ry="1.102" transform="matrix(1 0 0 -1 105.406 362.497)"/><ellipse cx="1.117" cy="1.102" rx="1.117" ry="1.102" transform="matrix(1 0 0 -1 105.406 355.884)"/><ellipse cx="1.117" cy="1.102" rx="1.117" ry="1.102" transform="matrix(1 0 0 -1 105.406 349.27)"/><ellipse cx="1.117" cy="1.102" rx="1.117" ry="1.102" transform="matrix(1 0 0 -1 112.109 441.855)"/><ellipse cx="1.117" cy="1.102" rx="1.117" ry="1.102" transform="matrix(1 0 0 -1 112.109 435.242)"/><ellipse cx="1.117" cy="1.102" rx="1.117" ry="1.102" transform="matrix(1 0 0 -1 112.109 428.629)"/><ellipse cx="1.117" cy="1.102" rx="1.117" ry="1.102" transform="matrix(1 0 0 -1 112.109 422.016)"/><ellipse cx="1.117" cy="1.102" rx="1.117" ry="1.102" transform="matrix(1 0 0 -1 112.109 415.402)"/><ellipse cx="1.117" cy="1.102" rx="1.117" ry="1.102" transform="matrix(1 0 0 -1 112.109 408.789)"/><ellipse cx="1.117" cy="1.102" rx="1.117" ry="1.102" transform="matrix(1 0 0 -1 112.109 402.176)"/><ellipse cx="1.117" cy="1.102" rx="1.117" ry="1.102" transform="matrix(1 0 0 -1 112.109 395.563)"/><ellipse cx="1.117" cy="1.102" rx="1.117" ry="1.102" transform="matrix(1 0 0 -1 112.109 388.95)"/><ellipse cx="1.117" cy="1.102" rx="1.117" ry="1.102" transform="matrix(1 0 0 -1 112.109 382.336)"/><ellipse cx="1.117" cy="1.102" rx="1.117" ry="1.102" transform="matrix(1 0 0 -1 112.109 375.723)"/><ellipse cx="1.117" cy="1.102" rx="1.117" ry="1.102" transform="matrix(1 0 0 -1 112.109 369.11)"/><ellipse cx="1.117" cy="1.102" rx="1.117" ry="1.102" transform="matrix(1 0 0 -1 112.109 362.497)"/><ellipse cx="1.117" cy="1.102" rx="1.117" ry="1.102" transform="matrix(1 0 0 -1 112.109 355.884)"/><ellipse cx="1.117" cy="1.102" rx="1.117" ry="1.102" transform="matrix(1 0 0 -1 112.109 349.27)"/><ellipse cx="1.117" cy="1.102" rx="1.117" ry="1.102" transform="matrix(1 0 0 -1 118.812 455.082)"/><ellipse cx="1.117" cy="1.102" rx="1.117" ry="1.102" transform="matrix(1 0 0 -1 118.812 448.468)"/><ellipse cx="1.117" cy="1.102" rx="1.117" ry="1.102" transform="matrix(1 0 0 -1 118.812 441.855)"/><ellipse cx="1.117" cy="1.102" rx="1.117" ry="1.102" transform="matrix(1 0 0 -1 118.812 435.242)"/><ellipse cx="1.117" cy="1.102" rx="1.117" ry="1.102" transform="matrix(1 0 0 -1 118.812 428.629)"/><ellipse cx="1.117" cy="1.102" rx="1.117" ry="1.102" transform="matrix(1 0 0 -1 118.812 422.016)"/><ellipse cx="1.117" cy="1.102" rx="1.117" ry="1.102" transform="matrix(1 0 0 -1 118.812 415.402)"/><ellipse cx="1.117" cy="1.102" rx="1.117" ry="1.102" transform="matrix(1 0 0 -1 118.812 408.789)"/><ellipse cx="1.117" cy="1.102" rx="1.117" ry="1.102" transform="matrix(1 0 0 -1 118.812 402.176)"/><ellipse cx="1.117" cy="1.102" rx="1.117" ry="1.102" transform="matrix(1 0 0 -1 118.812 395.563)"/><ellipse cx="1.117" cy="1.102" rx="1.117" ry="1.102" transform="matrix(1 0 0 -1 118.812 388.95)"/><ellipse cx="1.117" cy="1.102" rx="1.117" ry="1.102" transform="matrix(1 0 0 -1 118.812 382.336)"/><ellipse cx="1.117" cy="1.102" rx="1.117" ry="1.102" transform="matrix(1 0 0 -1 118.812 375.723)"/><ellipse cx="1.117" cy="1.102" rx="1.117" ry="1.102" transform="matrix(1 0 0 -1 118.812 369.11)"/><ellipse cx="1.117" cy="1.102" rx="1.117" ry="1.102" transform="matrix(1 0 0 -1 118.812 362.497)"/><ellipse cx="1.117" cy="1.102" rx="1.117" ry="1.102" transform="matrix(1 0 0 -1 118.812 355.884)"/><ellipse cx="1.117" cy="1.102" rx="1.117" ry="1.102" transform="matrix(1 0 0 -1 118.812 349.27)"/><ellipse cx="1.117" cy="1.102" rx="1.117" ry="1.102" transform="matrix(1 0 0 -1 125.515 455.082)"/><ellipse cx="1.117" cy="1.102" rx="1.117" ry="1.102" transform="matrix(1 0 0 -1 125.515 448.468)"/><ellipse cx="1.117" cy="1.102" rx="1.117" ry="1.102" transform="matrix(1 0 0 -1 125.515 441.855)"/><ellipse cx="1.117" cy="1.102" rx="1.117" ry="1.102" transform="matrix(1 0 0 -1 125.515 435.242)"/><ellipse cx="1.117" cy="1.102" rx="1.117" ry="1.102" transform="matrix(1 0 0 -1 125.515 428.629)"/><ellipse cx="1.117" cy="1.102" rx="1.117" ry="1.102" transform="matrix(1 0 0 -1 125.515 422.016)"/><ellipse cx="1.117" cy="1.102" rx="1.117" ry="1.102" transform="matrix(1 0 0 -1 125.515 415.402)"/><ellipse cx="1.117" cy="1.102" rx="1.117" ry="1.102" transform="matrix(1 0 0 -1 125.515 408.789)"/><ellipse cx="1.117" cy="1.102" rx="1.117" ry="1.102" transform="matrix(1 0 0 -1 125.515 402.176)"/><ellipse cx="1.117" cy="1.102" rx="1.117" ry="1.102" transform="matrix(1 0 0 -1 125.515 395.563)"/><ellipse cx="1.117" cy="1.102" rx="1.117" ry="1.102" transform="matrix(1 0 0 -1 125.515 388.95)"/><ellipse cx="1.117" cy="1.102" rx="1.117" ry="1.102" transform="matrix(1 0 0 -1 125.515 382.336)"/><ellipse cx="1.117" cy="1.102" rx="1.117" ry="1.102" transform="matrix(1 0 0 -1 125.515 375.723)"/><ellipse cx="1.117" cy="1.102" rx="1.117" ry="1.102" transform="matrix(1 0 0 -1 125.515 369.11)"/><ellipse cx="1.117" cy="1.102" rx="1.117" ry="1.102" transform="matrix(1 0 0 -1 125.515 362.497)"/><ellipse cx="1.117" cy="1.102" rx="1.117" ry="1.102" transform="matrix(1 0 0 -1 125.515 355.884)"/><ellipse cx="1.117" cy="1.102" rx="1.117" ry="1.102" transform="matrix(1 0 0 -1 125.515 349.27)"/><ellipse cx="1.117" cy="1.102" rx="1.117" ry="1.102" transform="matrix(1 0 0 -1 132.218 455.082)"/><ellipse cx="1.117" cy="1.102" rx="1.117" ry="1.102" transform="matrix(1 0 0 -1 132.218 448.468)"/><ellipse cx="1.117" cy="1.102" rx="1.117" ry="1.102" transform="matrix(1 0 0 -1 132.218 441.855)"/><ellipse cx="1.117" cy="1.102" rx="1.117" ry="1.102" transform="matrix(1 0 0 -1 132.218 435.242)"/><ellipse cx="1.117" cy="1.102" rx="1.117" ry="1.102" transform="matrix(1 0 0 -1 132.218 428.629)"/><ellipse cx="1.117" cy="1.102" rx="1.117" ry="1.102" transform="matrix(1 0 0 -1 132.218 422.016)"/><ellipse cx="1.117" cy="1.102" rx="1.117" ry="1.102" transform="matrix(1 0 0 -1 132.218 415.402)"/><ellipse cx="1.117" cy="1.102" rx="1.117" ry="1.102" transform="matrix(1 0 0 -1 132.218 408.789)"/><ellipse cx="1.117" cy="1.102" rx="1.117" ry="1.102" transform="matrix(1 0 0 -1 132.218 402.176)"/><ellipse cx="1.117" cy="1.102" rx="1.117" ry="1.102" transform="matrix(1 0 0 -1 132.218 395.563)"/><ellipse cx="1.117" cy="1.102" rx="1.117" ry="1.102" transform="matrix(1 0 0 -1 132.218 388.95)"/><ellipse cx="1.117" cy="1.102" rx="1.117" ry="1.102" transform="matrix(1 0 0 -1 132.218 382.336)"/><ellipse cx="1.117" cy="1.102" rx="1.117" ry="1.102" transform="matrix(1 0 0 -1 132.218 375.723)"/><ellipse cx="1.117" cy="1.102" rx="1.117" ry="1.102" transform="matrix(1 0 0 -1 132.218 369.11)"/><ellipse cx="1.117" cy="1.102" rx="1.117" ry="1.102" transform="matrix(1 0 0 -1 132.218 362.497)"/><ellipse cx="1.117" cy="1.102" rx="1.117" ry="1.102" transform="matrix(1 0 0 -1 132.218 355.884)"/><ellipse cx="1.117" cy="1.102" rx="1.117" ry="1.102" transform="matrix(1 0 0 -1 132.218 349.27)"/><ellipse cx="1.117" cy="1.102" rx="1.117" ry="1.102" transform="matrix(1 0 0 -1 138.921 455.082)"/><ellipse cx="1.117" cy="1.102" rx="1.117" ry="1.102" transform="matrix(1 0 0 -1 138.921 448.468)"/><ellipse cx="1.117" cy="1.102" rx="1.117" ry="1.102" transform="matrix(1 0 0 -1 138.921 441.855)"/><ellipse cx="1.117" cy="1.102" rx="1.117" ry="1.102" transform="matrix(1 0 0 -1 138.921 435.242)"/><ellipse cx="1.117" cy="1.102" rx="1.117" ry="1.102" transform="matrix(1 0 0 -1 138.921 428.629)"/><ellipse cx="1.117" cy="1.102" rx="1.117" ry="1.102" transform="matrix(1 0 0 -1 138.921 422.016)"/><ellipse cx="1.117" cy="1.102" rx="1.117" ry="1.102" transform="matrix(1 0 0 -1 138.921 415.402)"/><ellipse cx="1.117" cy="1.102" rx="1.117" ry="1.102" transform="matrix(1 0 0 -1 138.921 408.789)"/><ellipse cx="1.117" cy="1.102" rx="1.117" ry="1.102" transform="matrix(1 0 0 -1 138.921 402.176)"/><ellipse cx="1.117" cy="1.102" rx="1.117" ry="1.102" transform="matrix(1 0 0 -1 138.921 395.563)"/><ellipse cx="1.117" cy="1.102" rx="1.117" ry="1.102" transform="matrix(1 0 0 -1 138.921 388.95)"/><ellipse cx="1.117" cy="1.102" rx="1.117" ry="1.102" transform="matrix(1 0 0 -1 138.921 382.336)"/><ellipse cx="1.117" cy="1.102" rx="1.117" ry="1.102" transform="matrix(1 0 0 -1 138.921 375.723)"/><ellipse cx="1.117" cy="1.102" rx="1.117" ry="1.102" transform="matrix(1 0 0 -1 138.921 342.657)"/><ellipse cx="1.117" cy="1.102" rx="1.117" ry="1.102" transform="matrix(1 0 0 -1 138.921 369.11)"/><ellipse cx="1.117" cy="1.102" rx="1.117" ry="1.102" transform="matrix(1 0 0 -1 138.921 336.044)"/><ellipse cx="1.117" cy="1.102" rx="1.117" ry="1.102" transform="matrix(1 0 0 -1 138.921 362.497)"/><ellipse cx="1.117" cy="1.102" rx="1.117" ry="1.102" transform="matrix(1 0 0 -1 138.921 329.431)"/><ellipse cx="1.117" cy="1.102" rx="1.117" ry="1.102" transform="matrix(1 0 0 -1 138.921 355.884)"/><ellipse cx="1.117" cy="1.102" rx="1.117" ry="1.102" transform="matrix(1 0 0 -1 138.921 322.818)"/><ellipse cx="1.117" cy="1.102" rx="1.117" ry="1.102" transform="matrix(1 0 0 -1 138.921 349.27)"/><ellipse cx="1.117" cy="1.102" rx="1.117" ry="1.102" transform="matrix(1 0 0 -1 138.921 316.204)"/><ellipse cx="1.117" cy="1.102" rx="1.117" ry="1.102" transform="matrix(1 0 0 -1 145.624 468.308)"/><ellipse cx="1.117" cy="1.102" rx="1.117" ry="1.102" transform="matrix(1 0 0 -1 145.624 461.695)"/><ellipse cx="1.117" cy="1.102" rx="1.117" ry="1.102" transform="matrix(1 0 0 -1 145.624 455.082)"/><ellipse cx="1.117" cy="1.102" rx="1.117" ry="1.102" transform="matrix(1 0 0 -1 145.624 448.468)"/><ellipse cx="1.117" cy="1.102" rx="1.117" ry="1.102" transform="matrix(1 0 0 -1 145.624 441.855)"/><ellipse cx="1.117" cy="1.102" rx="1.117" ry="1.102" transform="matrix(1 0 0 -1 145.624 435.242)"/><ellipse cx="1.117" cy="1.102" rx="1.117" ry="1.102" transform="matrix(1 0 0 -1 145.624 428.629)"/><ellipse cx="1.117" cy="1.102" rx="1.117" ry="1.102" transform="matrix(1 0 0 -1 145.624 422.016)"/><ellipse cx="1.117" cy="1.102" rx="1.117" ry="1.102" transform="matrix(1 0 0 -1 145.624 415.402)"/><ellipse cx="1.117" cy="1.102" rx="1.117" ry="1.102" transform="matrix(1 0 0 -1 145.624 408.789)"/><ellipse cx="1.117" cy="1.102" rx="1.117" ry="1.102" transform="matrix(1 0 0 -1 145.624 402.176)"/><ellipse cx="1.117" cy="1.102" rx="1.117" ry="1.102" transform="matrix(1 0 0 -1 145.624 395.563)"/><ellipse cx="1.117" cy="1.102" rx="1.117" ry="1.102" transform="matrix(1 0 0 -1 145.624 388.95)"/><ellipse cx="1.117" cy="1.102" rx="1.117" ry="1.102" transform="matrix(1 0 0 -1 145.624 382.336)"/><ellipse cx="1.117" cy="1.102" rx="1.117" ry="1.102" transform="matrix(1 0 0 -1 145.624 375.723)"/><ellipse cx="1.117" cy="1.102" rx="1.117" ry="1.102" transform="matrix(1 0 0 -1 145.624 342.657)"/><ellipse cx="1.117" cy="1.102" rx="1.117" ry="1.102" transform="matrix(1 0 0 -1 145.624 369.11)"/><ellipse cx="1.117" cy="1.102" rx="1.117" ry="1.102" transform="matrix(1 0 0 -1 145.624 336.044)"/><ellipse cx="1.117" cy="1.102" rx="1.117" ry="1.102" transform="matrix(1 0 0 -1 145.624 362.497)"/><ellipse cx="1.117" cy="1.102" rx="1.117" ry="1.102" transform="matrix(1 0 0 -1 145.624 329.431)"/><ellipse cx="1.117" cy="1.102" rx="1.117" ry="1.102" transform="matrix(1 0 0 -1 145.624 355.884)"/><ellipse cx="1.117" cy="1.102" rx="1.117" ry="1.102" transform="matrix(1 0 0 -1 145.624 322.818)"/><ellipse cx="1.117" cy="1.102" rx="1.117" ry="1.102" transform="matrix(1 0 0 -1 145.624 349.27)"/><ellipse cx="1.117" cy="1.102" rx="1.117" ry="1.102" transform="matrix(1 0 0 -1 145.624 316.205)"/><ellipse cx="1.117" cy="1.102" rx="1.117" ry="1.102" transform="matrix(1 0 0 -1 152.327 468.308)"/><ellipse cx="1.117" cy="1.102" rx="1.117" ry="1.102" transform="matrix(1 0 0 -1 152.327 461.695)"/><ellipse cx="1.117" cy="1.102" rx="1.117" ry="1.102" transform="matrix(1 0 0 -1 152.327 455.082)"/><ellipse cx="1.117" cy="1.102" rx="1.117" ry="1.102" transform="matrix(1 0 0 -1 152.327 448.468)"/><ellipse cx="1.117" cy="1.102" rx="1.117" ry="1.102" transform="matrix(1 0 0 -1 152.327 441.855)"/><ellipse cx="1.117" cy="1.102" rx="1.117" ry="1.102" transform="matrix(1 0 0 -1 152.327 435.242)"/><ellipse cx="1.117" cy="1.102" rx="1.117" ry="1.102" transform="matrix(1 0 0 -1 152.327 382.336)"/><ellipse cx="1.117" cy="1.102" rx="1.117" ry="1.102" transform="matrix(1 0 0 -1 152.327 375.723)"/><ellipse cx="1.117" cy="1.102" rx="1.117" ry="1.102" transform="matrix(1 0 0 -1 152.327 342.657)"/><ellipse cx="1.117" cy="1.102" rx="1.117" ry="1.102" transform="matrix(1 0 0 -1 152.327 369.11)"/><ellipse cx="1.117" cy="1.102" rx="1.117" ry="1.102" transform="matrix(1 0 0 -1 152.327 336.044)"/><ellipse cx="1.117" cy="1.102" rx="1.117" ry="1.102" transform="matrix(1 0 0 -1 152.327 362.497)"/><ellipse cx="1.117" cy="1.102" rx="1.117" ry="1.102" transform="matrix(1 0 0 -1 152.327 329.431)"/><ellipse cx="1.117" cy="1.102" rx="1.117" ry="1.102" transform="matrix(1 0 0 -1 152.327 355.884)"/><ellipse cx="1.117" cy="1.102" rx="1.117" ry="1.102" transform="matrix(1 0 0 -1 152.327 322.818)"/><ellipse cx="1.117" cy="1.102" rx="1.117" ry="1.102" transform="matrix(1 0 0 -1 152.327 349.27)"/><ellipse cx="1.117" cy="1.102" rx="1.117" ry="1.102" transform="matrix(1 0 0 -1 152.327 316.204)"/><ellipse cx="1.117" cy="1.102" rx="1.117" ry="1.102" transform="matrix(1 0 0 -1 185.842 468.308)"/><ellipse cx="1.117" cy="1.102" rx="1.117" ry="1.102" transform="matrix(1 0 0 -1 185.842 461.695)"/><ellipse cx="1.117" cy="1.102" rx="1.117" ry="1.102" transform="matrix(1 0 0 -1 185.842 455.082)"/><ellipse cx="1.117" cy="1.102" rx="1.117" ry="1.102" transform="matrix(1 0 0 -1 185.842 448.468)"/><ellipse cx="1.117" cy="1.102" rx="1.117" ry="1.102" transform="matrix(1 0 0 -1 185.842 441.855)"/><ellipse cx="1.117" cy="1.102" rx="1.117" ry="1.102" transform="matrix(1 0 0 -1 185.842 435.242)"/><ellipse cx="1.117" cy="1.102" rx="1.117" ry="1.102" transform="matrix(1 0 0 -1 185.842 382.336)"/><ellipse cx="1.117" cy="1.102" rx="1.117" ry="1.102" transform="matrix(1 0 0 -1 185.842 375.723)"/><ellipse cx="1.117" cy="1.102" rx="1.117" ry="1.102" transform="matrix(1 0 0 -1 185.842 342.657)"/><ellipse cx="1.117" cy="1.102" rx="1.117" ry="1.102" transform="matrix(1 0 0 -1 185.842 369.11)"/><ellipse cx="1.117" cy="1.102" rx="1.117" ry="1.102" transform="matrix(1 0 0 -1 185.842 336.044)"/><ellipse cx="1.117" cy="1.102" rx="1.117" ry="1.102" transform="matrix(1 0 0 -1 185.842 362.497)"/><ellipse cx="1.117" cy="1.102" rx="1.117" ry="1.102" transform="matrix(1 0 0 -1 185.842 355.884)"/><ellipse cx="1.117" cy="1.102" rx="1.117" ry="1.102" transform="matrix(1 0 0 -1 185.842 349.27)"/><ellipse cx="1.117" cy="1.102" rx="1.117" ry="1.102" transform="matrix(1 0 0 -1 159.03 468.308)"/><ellipse cx="1.117" cy="1.102" rx="1.117" ry="1.102" transform="matrix(1 0 0 -1 159.03 461.695)"/><ellipse cx="1.117" cy="1.102" rx="1.117" ry="1.102" transform="matrix(1 0 0 -1 159.03 455.082)"/><ellipse cx="1.117" cy="1.102" rx="1.117" ry="1.102" transform="matrix(1 0 0 -1 159.03 448.468)"/><ellipse cx="1.117" cy="1.102" rx="1.117" ry="1.102" transform="matrix(1 0 0 -1 159.03 441.855)"/><ellipse cx="1.117" cy="1.102" rx="1.117" ry="1.102" transform="matrix(1 0 0 -1 159.03 435.242)"/><ellipse cx="1.117" cy="1.102" rx="1.117" ry="1.102" transform="matrix(1 0 0 -1 159.03 382.336)"/><ellipse cx="1.117" cy="1.102" rx="1.117" ry="1.102" transform="matrix(1 0 0 -1 159.03 375.723)"/><ellipse cx="1.117" cy="1.102" rx="1.117" ry="1.102" transform="matrix(1 0 0 -1 159.03 342.657)"/><ellipse cx="1.117" cy="1.102" rx="1.117" ry="1.102" transform="matrix(1 0 0 -1 159.03 369.11)"/><ellipse cx="1.117" cy="1.102" rx="1.117" ry="1.102" transform="matrix(1 0 0 -1 159.03 336.044)"/><ellipse cx="1.117" cy="1.102" rx="1.117" ry="1.102" transform="matrix(1 0 0 -1 159.03 362.497)"/><ellipse cx="1.117" cy="1.102" rx="1.117" ry="1.102" transform="matrix(1 0 0 -1 159.03 329.431)"/><ellipse cx="1.117" cy="1.102" rx="1.117" ry="1.102" transform="matrix(1 0 0 -1 159.03 355.884)"/><ellipse cx="1.117" cy="1.102" rx="1.117" ry="1.102" transform="matrix(1 0 0 -1 159.03 322.818)"/><ellipse cx="1.117" cy="1.102" rx="1.117" ry="1.102" transform="matrix(1 0 0 -1 159.03 349.27)"/><ellipse cx="1.117" cy="1.102" rx="1.117" ry="1.102" transform="matrix(1 0 0 -1 159.03 316.204)"/><ellipse cx="1.117" cy="1.102" rx="1.117" ry="1.102" transform="matrix(1 0 0 -1 165.733 468.308)"/><ellipse cx="1.117" cy="1.102" rx="1.117" ry="1.102" transform="matrix(1 0 0 -1 165.733 461.695)"/><ellipse cx="1.117" cy="1.102" rx="1.117" ry="1.102" transform="matrix(1 0 0 -1 165.733 455.082)"/><ellipse cx="1.117" cy="1.102" rx="1.117" ry="1.102" transform="matrix(1 0 0 -1 165.733 448.468)"/><ellipse cx="1.117" cy="1.102" rx="1.117" ry="1.102" transform="matrix(1 0 0 -1 165.733 441.855)"/><ellipse cx="1.117" cy="1.102" rx="1.117" ry="1.102" transform="matrix(1 0 0 -1 165.733 435.242)"/><ellipse cx="1.117" cy="1.102" rx="1.117" ry="1.102" transform="matrix(1 0 0 -1 165.733 382.336)"/><ellipse cx="1.117" cy="1.102" rx="1.117" ry="1.102" transform="matrix(1 0 0 -1 165.733 375.723)"/><ellipse cx="1.117" cy="1.102" rx="1.117" ry="1.102" transform="matrix(1 0 0 -1 165.733 342.657)"/><ellipse cx="1.117" cy="1.102" rx="1.117" ry="1.102" transform="matrix(1 0 0 -1 165.733 369.11)"/><ellipse cx="1.117" cy="1.102" rx="1.117" ry="1.102" transform="matrix(1 0 0 -1 165.733 336.044)"/><ellipse cx="1.117" cy="1.102" rx="1.117" ry="1.102" transform="matrix(1 0 0 -1 165.733 362.497)"/><ellipse cx="1.117" cy="1.102" rx="1.117" ry="1.102" transform="matrix(1 0 0 -1 165.733 329.431)"/><ellipse cx="1.117" cy="1.102" rx="1.117" ry="1.102" transform="matrix(1 0 0 -1 165.733 355.884)"/><ellipse cx="1.117" cy="1.102" rx="1.117" ry="1.102" transform="matrix(1 0 0 -1 165.733 322.818)"/><ellipse cx="1.117" cy="1.102" rx="1.117" ry="1.102" transform="matrix(1 0 0 -1 165.733 349.27)"/><ellipse cx="1.117" cy="1.102" rx="1.117" ry="1.102" transform="matrix(1 0 0 -1 165.733 316.205)"/><ellipse cx="1.117" cy="1.102" rx="1.117" ry="1.102" transform="matrix(1 0 0 -1 172.436 468.308)"/><ellipse cx="1.117" cy="1.102" rx="1.117" ry="1.102" transform="matrix(1 0 0 -1 172.436 461.695)"/><ellipse cx="1.117" cy="1.102" rx="1.117" ry="1.102" transform="matrix(1 0 0 -1 172.436 455.082)"/><ellipse cx="1.117" cy="1.102" rx="1.117" ry="1.102" transform="matrix(1 0 0 -1 172.436 448.468)"/><ellipse cx="1.117" cy="1.102" rx="1.117" ry="1.102" transform="matrix(1 0 0 -1 172.436 441.855)"/><ellipse cx="1.117" cy="1.102" rx="1.117" ry="1.102" transform="matrix(1 0 0 -1 172.436 435.242)"/><ellipse cx="1.117" cy="1.102" rx="1.117" ry="1.102" transform="matrix(1 0 0 -1 172.436 382.336)"/><ellipse cx="1.117" cy="1.102" rx="1.117" ry="1.102" transform="matrix(1 0 0 -1 172.436 375.723)"/><ellipse cx="1.117" cy="1.102" rx="1.117" ry="1.102" transform="matrix(1 0 0 -1 172.436 342.657)"/><ellipse cx="1.117" cy="1.102" rx="1.117" ry="1.102" transform="matrix(1 0 0 -1 172.436 369.11)"/><ellipse cx="1.117" cy="1.102" rx="1.117" ry="1.102" transform="matrix(1 0 0 -1 172.436 336.044)"/><ellipse cx="1.117" cy="1.102" rx="1.117" ry="1.102" transform="matrix(1 0 0 -1 172.436 362.497)"/><ellipse cx="1.117" cy="1.102" rx="1.117" ry="1.102" transform="matrix(1 0 0 -1 172.436 355.884)"/><ellipse cx="1.117" cy="1.102" rx="1.117" ry="1.102" transform="matrix(1 0 0 -1 172.436 349.27)"/><ellipse cx="1.117" cy="1.102" rx="1.117" ry="1.102" transform="matrix(1 0 0 -1 179.139 468.308)"/><ellipse cx="1.117" cy="1.102" rx="1.117" ry="1.102" transform="matrix(1 0 0 -1 179.139 461.695)"/><ellipse cx="1.117" cy="1.102" rx="1.117" ry="1.102" transform="matrix(1 0 0 -1 179.139 455.082)"/><ellipse cx="1.117" cy="1.102" rx="1.117" ry="1.102" transform="matrix(1 0 0 -1 179.139 448.468)"/><ellipse cx="1.117" cy="1.102" rx="1.117" ry="1.102" transform="matrix(1 0 0 -1 179.139 441.855)"/><ellipse cx="1.117" cy="1.102" rx="1.117" ry="1.102" transform="matrix(1 0 0 -1 179.139 435.242)"/><ellipse cx="1.117" cy="1.102" rx="1.117" ry="1.102" transform="matrix(1 0 0 -1 179.139 382.336)"/><ellipse cx="1.117" cy="1.102" rx="1.117" ry="1.102" transform="matrix(1 0 0 -1 179.139 375.723)"/><ellipse cx="1.117" cy="1.102" rx="1.117" ry="1.102" transform="matrix(1 0 0 -1 179.139 342.657)"/><ellipse cx="1.117" cy="1.102" rx="1.117" ry="1.102" transform="matrix(1 0 0 -1 179.139 369.11)"/><ellipse cx="1.117" cy="1.102" rx="1.117" ry="1.102" transform="matrix(1 0 0 -1 179.139 336.044)"/><ellipse cx="1.117" cy="1.102" rx="1.117" ry="1.102" transform="matrix(1 0 0 -1 179.139 362.497)"/><ellipse cx="1.117" cy="1.102" rx="1.117" ry="1.102" transform="matrix(1 0 0 -1 179.139 355.884)"/><ellipse cx="1.117" cy="1.102" rx="1.117" ry="1.102" transform="matrix(1 0 0 -1 179.139 349.27)"/></g></svg>