<svg width="343" height="421" fill="none" xmlns="http://www.w3.org/2000/svg"><g opacity=".16" fill="#8BABFB"><ellipse cx="88.256" cy="372.914" rx="1.117" ry="1.102" transform="rotate(-180 88.256 372.914)"/><ellipse cx="88.256" cy="366.3" rx="1.117" ry="1.102" transform="rotate(-180 88.256 366.3)"/><ellipse cx="88.256" cy="359.687" rx="1.117" ry="1.102" transform="rotate(-180 88.256 359.687)"/><ellipse cx="88.256" cy="353.074" rx="1.117" ry="1.102" transform="rotate(-180 88.256 353.074)"/><ellipse cx="88.256" cy="346.461" rx="1.117" ry="1.102" transform="rotate(-180 88.256 346.461)"/><ellipse cx="88.256" cy="339.848" rx="1.117" ry="1.102" transform="rotate(-180 88.256 339.848)"/><ellipse cx="88.256" cy="333.234" rx="1.117" ry="1.102" transform="rotate(-180 88.256 333.234)"/><ellipse cx="88.256" cy="326.621" rx="1.117" ry="1.102" transform="rotate(-180 88.256 326.621)"/><ellipse cx="88.256" cy="320.008" rx="1.117" ry="1.102" transform="rotate(-180 88.256 320.008)"/><ellipse cx="88.256" cy="313.395" rx="1.117" ry="1.102" transform="rotate(-180 88.256 313.395)"/><ellipse cx="88.256" cy="306.782" rx="1.117" ry="1.102" transform="rotate(-180 88.256 306.782)"/><ellipse cx="88.256" cy="300.168" rx="1.117" ry="1.102" transform="rotate(-180 88.256 300.168)"/><ellipse cx="81.553" cy="372.914" rx="1.117" ry="1.102" transform="rotate(-180 81.553 372.914)"/><ellipse cx="81.553" cy="366.3" rx="1.117" ry="1.102" transform="rotate(-180 81.553 366.3)"/><ellipse cx="81.553" cy="359.687" rx="1.117" ry="1.102" transform="rotate(-180 81.553 359.687)"/><ellipse cx="81.553" cy="353.074" rx="1.117" ry="1.102" transform="rotate(-180 81.553 353.074)"/><ellipse cx="81.553" cy="346.461" rx="1.117" ry="1.102" transform="rotate(-180 81.553 346.461)"/><ellipse cx="81.553" cy="339.848" rx="1.117" ry="1.102" transform="rotate(-180 81.553 339.848)"/><ellipse cx="81.553" cy="333.234" rx="1.117" ry="1.102" transform="rotate(-180 81.553 333.234)"/><ellipse cx="81.553" cy="326.621" rx="1.117" ry="1.102" transform="rotate(-180 81.553 326.621)"/><ellipse cx="81.553" cy="320.008" rx="1.117" ry="1.102" transform="rotate(-180 81.553 320.008)"/><ellipse cx="81.553" cy="313.395" rx="1.117" ry="1.102" transform="rotate(-180 81.553 313.395)"/><ellipse cx="81.553" cy="306.782" rx="1.117" ry="1.102" transform="rotate(-180 81.553 306.782)"/><ellipse cx="81.553" cy="300.168" rx="1.117" ry="1.102" transform="rotate(-180 81.553 300.168)"/><ellipse cx="74.85" cy="392.753" rx="1.117" ry="1.102" transform="rotate(-180 74.85 392.753)"/><ellipse cx="74.85" cy="386.14" rx="1.117" ry="1.102" transform="rotate(-180 74.85 386.14)"/><ellipse cx="74.85" cy="379.527" rx="1.117" ry="1.102" transform="rotate(-180 74.85 379.527)"/><ellipse cx="74.85" cy="372.914" rx="1.117" ry="1.102" transform="rotate(-180 74.85 372.914)"/><ellipse cx="74.85" cy="366.3" rx="1.117" ry="1.102" transform="rotate(-180 74.85 366.3)"/><ellipse cx="74.85" cy="359.687" rx="1.117" ry="1.102" transform="rotate(-180 74.85 359.687)"/><ellipse cx="74.85" cy="353.074" rx="1.117" ry="1.102" transform="rotate(-180 74.85 353.074)"/><ellipse cx="74.85" cy="346.461" rx="1.117" ry="1.102" transform="rotate(-180 74.85 346.461)"/><ellipse cx="74.85" cy="339.848" rx="1.117" ry="1.102" transform="rotate(-180 74.85 339.848)"/><ellipse cx="74.85" cy="333.234" rx="1.117" ry="1.102" transform="rotate(-180 74.85 333.234)"/><ellipse cx="74.85" cy="326.621" rx="1.117" ry="1.102" transform="rotate(-180 74.85 326.621)"/><ellipse cx="74.85" cy="320.008" rx="1.117" ry="1.102" transform="rotate(-180 74.85 320.008)"/><ellipse cx="74.85" cy="313.395" rx="1.117" ry="1.102" transform="rotate(-180 74.85 313.395)"/><ellipse cx="74.85" cy="306.782" rx="1.117" ry="1.102" transform="rotate(-180 74.85 306.782)"/><ellipse cx="74.85" cy="300.168" rx="1.117" ry="1.102" transform="rotate(-180 74.85 300.168)"/><ellipse cx="68.147" cy="405.98" rx="1.117" ry="1.102" transform="rotate(-180 68.147 405.98)"/><ellipse cx="68.147" cy="399.366" rx="1.117" ry="1.102" transform="rotate(-180 68.147 399.366)"/><ellipse cx="68.147" cy="392.753" rx="1.117" ry="1.102" transform="rotate(-180 68.147 392.753)"/><ellipse cx="68.147" cy="386.14" rx="1.117" ry="1.102" transform="rotate(-180 68.147 386.14)"/><ellipse cx="68.147" cy="379.527" rx="1.117" ry="1.102" transform="rotate(-180 68.147 379.527)"/><ellipse cx="68.147" cy="372.914" rx="1.117" ry="1.102" transform="rotate(-180 68.147 372.914)"/><ellipse cx="68.147" cy="366.3" rx="1.117" ry="1.102" transform="rotate(-180 68.147 366.3)"/><ellipse cx="68.147" cy="359.687" rx="1.117" ry="1.102" transform="rotate(-180 68.147 359.687)"/><ellipse cx="68.147" cy="353.074" rx="1.117" ry="1.102" transform="rotate(-180 68.147 353.074)"/><ellipse cx="68.147" cy="346.461" rx="1.117" ry="1.102" transform="rotate(-180 68.147 346.461)"/><ellipse cx="68.147" cy="339.848" rx="1.117" ry="1.102" transform="rotate(-180 68.147 339.848)"/><ellipse cx="68.147" cy="333.234" rx="1.117" ry="1.102" transform="rotate(-180 68.147 333.234)"/><ellipse cx="68.147" cy="326.621" rx="1.117" ry="1.102" transform="rotate(-180 68.147 326.621)"/><ellipse cx="68.147" cy="320.008" rx="1.117" ry="1.102" transform="rotate(-180 68.147 320.008)"/><ellipse cx="68.147" cy="313.395" rx="1.117" ry="1.102" transform="rotate(-180 68.147 313.395)"/><ellipse cx="68.147" cy="306.782" rx="1.117" ry="1.102" transform="rotate(-180 68.147 306.782)"/><ellipse cx="68.147" cy="300.168" rx="1.117" ry="1.102" transform="rotate(-180 68.147 300.168)"/><ellipse cx="61.444" cy="405.98" rx="1.117" ry="1.102" transform="rotate(-180 61.444 405.98)"/><ellipse cx="61.444" cy="399.366" rx="1.117" ry="1.102" transform="rotate(-180 61.444 399.366)"/><ellipse cx="61.444" cy="392.753" rx="1.117" ry="1.102" transform="rotate(-180 61.444 392.753)"/><ellipse cx="61.444" cy="386.14" rx="1.117" ry="1.102" transform="rotate(-180 61.444 386.14)"/><ellipse cx="61.444" cy="379.527" rx="1.117" ry="1.102" transform="rotate(-180 61.444 379.527)"/><ellipse cx="61.444" cy="372.914" rx="1.117" ry="1.102" transform="rotate(-180 61.444 372.914)"/><ellipse cx="61.444" cy="366.3" rx="1.117" ry="1.102" transform="rotate(-180 61.444 366.3)"/><ellipse cx="61.444" cy="359.687" rx="1.117" ry="1.102" transform="rotate(-180 61.444 359.687)"/><ellipse cx="61.444" cy="353.074" rx="1.117" ry="1.102" transform="rotate(-180 61.444 353.074)"/><ellipse cx="61.444" cy="346.461" rx="1.117" ry="1.102" transform="rotate(-180 61.444 346.461)"/><ellipse cx="61.444" cy="339.848" rx="1.117" ry="1.102" transform="rotate(-180 61.444 339.848)"/><ellipse cx="61.444" cy="333.234" rx="1.117" ry="1.102" transform="rotate(-180 61.444 333.234)"/><ellipse cx="61.444" cy="326.621" rx="1.117" ry="1.102" transform="rotate(-180 61.444 326.621)"/><ellipse cx="61.444" cy="320.008" rx="1.117" ry="1.102" transform="rotate(-180 61.444 320.008)"/><ellipse cx="61.444" cy="313.395" rx="1.117" ry="1.102" transform="rotate(-180 61.444 313.395)"/><ellipse cx="61.444" cy="306.782" rx="1.117" ry="1.102" transform="rotate(-180 61.444 306.782)"/><ellipse cx="61.444" cy="300.168" rx="1.117" ry="1.102" transform="rotate(-180 61.444 300.168)"/><ellipse cx="54.741" cy="405.98" rx="1.117" ry="1.102" transform="rotate(-180 54.741 405.98)"/><ellipse cx="54.741" cy="399.366" rx="1.117" ry="1.102" transform="rotate(-180 54.741 399.366)"/><ellipse cx="54.741" cy="392.753" rx="1.117" ry="1.102" transform="rotate(-180 54.741 392.753)"/><ellipse cx="54.741" cy="386.14" rx="1.117" ry="1.102" transform="rotate(-180 54.741 386.14)"/><ellipse cx="54.741" cy="379.527" rx="1.117" ry="1.102" transform="rotate(-180 54.741 379.527)"/><ellipse cx="54.741" cy="372.914" rx="1.117" ry="1.102" transform="rotate(-180 54.741 372.914)"/><ellipse cx="54.741" cy="366.3" rx="1.117" ry="1.102" transform="rotate(-180 54.741 366.3)"/><ellipse cx="54.741" cy="359.687" rx="1.117" ry="1.102" transform="rotate(-180 54.741 359.687)"/><ellipse cx="54.741" cy="353.074" rx="1.117" ry="1.102" transform="rotate(-180 54.741 353.074)"/><ellipse cx="54.741" cy="346.461" rx="1.117" ry="1.102" transform="rotate(-180 54.741 346.461)"/><ellipse cx="54.741" cy="339.848" rx="1.117" ry="1.102" transform="rotate(-180 54.741 339.848)"/><ellipse cx="54.741" cy="333.234" rx="1.117" ry="1.102" transform="rotate(-180 54.741 333.234)"/><ellipse cx="54.741" cy="326.621" rx="1.117" ry="1.102" transform="rotate(-180 54.741 326.621)"/><ellipse cx="54.741" cy="320.008" rx="1.117" ry="1.102" transform="rotate(-180 54.741 320.008)"/><ellipse cx="54.741" cy="313.395" rx="1.117" ry="1.102" transform="rotate(-180 54.741 313.395)"/><ellipse cx="54.741" cy="306.782" rx="1.117" ry="1.102" transform="rotate(-180 54.741 306.782)"/><ellipse cx="54.741" cy="300.168" rx="1.117" ry="1.102" transform="rotate(-180 54.741 300.168)"/><ellipse cx="48.038" cy="405.98" rx="1.117" ry="1.102" transform="rotate(-180 48.038 405.98)"/><ellipse cx="48.038" cy="399.366" rx="1.117" ry="1.102" transform="rotate(-180 48.038 399.366)"/><ellipse cx="48.038" cy="392.753" rx="1.117" ry="1.102" transform="rotate(-180 48.038 392.753)"/><ellipse cx="48.038" cy="386.14" rx="1.117" ry="1.102" transform="rotate(-180 48.038 386.14)"/><ellipse cx="48.038" cy="379.527" rx="1.117" ry="1.102" transform="rotate(-180 48.038 379.527)"/><ellipse cx="48.038" cy="372.914" rx="1.117" ry="1.102" transform="rotate(-180 48.038 372.914)"/><ellipse cx="48.038" cy="366.3" rx="1.117" ry="1.102" transform="rotate(-180 48.038 366.3)"/><ellipse cx="48.038" cy="359.687" rx="1.117" ry="1.102" transform="rotate(-180 48.038 359.687)"/><ellipse cx="48.038" cy="353.074" rx="1.117" ry="1.102" transform="rotate(-180 48.038 353.074)"/><ellipse cx="48.038" cy="346.461" rx="1.117" ry="1.102" transform="rotate(-180 48.038 346.461)"/><ellipse cx="48.038" cy="339.848" rx="1.117" ry="1.102" transform="rotate(-180 48.038 339.848)"/><ellipse cx="48.038" cy="333.234" rx="1.117" ry="1.102" transform="rotate(-180 48.038 333.234)"/><ellipse cx="48.038" cy="326.621" rx="1.117" ry="1.102" transform="rotate(-180 48.038 326.621)"/><ellipse cx="48.038" cy="293.555" rx="1.117" ry="1.102" transform="rotate(-180 48.038 293.555)"/><ellipse cx="48.038" cy="320.008" rx="1.117" ry="1.102" transform="rotate(-180 48.038 320.008)"/><ellipse cx="48.038" cy="286.942" rx="1.117" ry="1.102" transform="rotate(-180 48.038 286.942)"/><ellipse cx="48.038" cy="313.395" rx="1.117" ry="1.102" transform="rotate(-180 48.038 313.395)"/><ellipse cx="48.038" cy="280.329" rx="1.117" ry="1.102" transform="rotate(-180 48.038 280.329)"/><ellipse cx="48.038" cy="306.782" rx="1.117" ry="1.102" transform="rotate(-180 48.038 306.782)"/><ellipse cx="48.038" cy="273.716" rx="1.117" ry="1.102" transform="rotate(-180 48.038 273.716)"/><ellipse cx="48.038" cy="300.168" rx="1.117" ry="1.102" transform="rotate(-180 48.038 300.168)"/><ellipse cx="48.038" cy="267.102" rx="1.117" ry="1.102" transform="rotate(-180 48.038 267.102)"/><ellipse cx="41.335" cy="419.206" rx="1.117" ry="1.102" transform="rotate(-180 41.335 419.206)"/><ellipse cx="41.335" cy="412.593" rx="1.117" ry="1.102" transform="rotate(-180 41.335 412.593)"/><ellipse cx="41.335" cy="405.98" rx="1.117" ry="1.102" transform="rotate(-180 41.335 405.98)"/><ellipse cx="41.335" cy="399.366" rx="1.117" ry="1.102" transform="rotate(-180 41.335 399.366)"/><ellipse cx="41.335" cy="392.753" rx="1.117" ry="1.102" transform="rotate(-180 41.335 392.753)"/><ellipse cx="41.335" cy="386.14" rx="1.117" ry="1.102" transform="rotate(-180 41.335 386.14)"/><ellipse cx="41.335" cy="379.527" rx="1.117" ry="1.102" transform="rotate(-180 41.335 379.527)"/><ellipse cx="41.335" cy="372.914" rx="1.117" ry="1.102" transform="rotate(-180 41.335 372.914)"/><ellipse cx="41.335" cy="366.3" rx="1.117" ry="1.102" transform="rotate(-180 41.335 366.3)"/><ellipse cx="41.335" cy="359.687" rx="1.117" ry="1.102" transform="rotate(-180 41.335 359.687)"/><ellipse cx="41.335" cy="353.074" rx="1.117" ry="1.102" transform="rotate(-180 41.335 353.074)"/><ellipse cx="41.335" cy="346.461" rx="1.117" ry="1.102" transform="rotate(-180 41.335 346.461)"/><ellipse cx="41.335" cy="339.848" rx="1.117" ry="1.102" transform="rotate(-180 41.335 339.848)"/><ellipse cx="41.335" cy="333.234" rx="1.117" ry="1.102" transform="rotate(-180 41.335 333.234)"/><ellipse cx="41.335" cy="326.621" rx="1.117" ry="1.102" transform="rotate(-180 41.335 326.621)"/><ellipse cx="41.335" cy="293.555" rx="1.117" ry="1.102" transform="rotate(-180 41.335 293.555)"/><ellipse cx="41.335" cy="320.008" rx="1.117" ry="1.102" transform="rotate(-180 41.335 320.008)"/><ellipse cx="41.335" cy="286.942" rx="1.117" ry="1.102" transform="rotate(-180 41.335 286.942)"/><ellipse cx="41.335" cy="313.395" rx="1.117" ry="1.102" transform="rotate(-180 41.335 313.395)"/><ellipse cx="41.335" cy="280.329" rx="1.117" ry="1.102" transform="rotate(-180 41.335 280.329)"/><ellipse cx="41.335" cy="306.782" rx="1.117" ry="1.102" transform="rotate(-180 41.335 306.782)"/><ellipse cx="41.335" cy="273.716" rx="1.117" ry="1.102" transform="rotate(-180 41.335 273.716)"/><ellipse cx="41.335" cy="300.168" rx="1.117" ry="1.102" transform="rotate(-180 41.335 300.168)"/><ellipse cx="41.335" cy="267.103" rx="1.117" ry="1.102" transform="rotate(-180 41.335 267.103)"/><ellipse cx="34.632" cy="419.206" rx="1.117" ry="1.102" transform="rotate(-180 34.632 419.206)"/><ellipse cx="34.632" cy="412.593" rx="1.117" ry="1.102" transform="rotate(-180 34.632 412.593)"/><ellipse cx="34.632" cy="405.98" rx="1.117" ry="1.102" transform="rotate(-180 34.632 405.98)"/><ellipse cx="34.632" cy="399.366" rx="1.117" ry="1.102" transform="rotate(-180 34.632 399.366)"/><ellipse cx="34.632" cy="392.753" rx="1.117" ry="1.102" transform="rotate(-180 34.632 392.753)"/><ellipse cx="34.632" cy="386.14" rx="1.117" ry="1.102" transform="rotate(-180 34.632 386.14)"/><ellipse cx="34.632" cy="333.234" rx="1.117" ry="1.102" transform="rotate(-180 34.632 333.234)"/><ellipse cx="34.632" cy="326.621" rx="1.117" ry="1.102" transform="rotate(-180 34.632 326.621)"/><ellipse cx="34.632" cy="293.555" rx="1.117" ry="1.102" transform="rotate(-180 34.632 293.555)"/><ellipse cx="34.632" cy="320.008" rx="1.117" ry="1.102" transform="rotate(-180 34.632 320.008)"/><ellipse cx="34.632" cy="286.942" rx="1.117" ry="1.102" transform="rotate(-180 34.632 286.942)"/><ellipse cx="34.632" cy="313.395" rx="1.117" ry="1.102" transform="rotate(-180 34.632 313.395)"/><ellipse cx="34.632" cy="280.329" rx="1.117" ry="1.102" transform="rotate(-180 34.632 280.329)"/><ellipse cx="34.632" cy="306.782" rx="1.117" ry="1.102" transform="rotate(-180 34.632 306.782)"/><ellipse cx="34.632" cy="273.716" rx="1.117" ry="1.102" transform="rotate(-180 34.632 273.716)"/><ellipse cx="34.632" cy="300.168" rx="1.117" ry="1.102" transform="rotate(-180 34.632 300.168)"/><ellipse cx="34.632" cy="267.102" rx="1.117" ry="1.102" transform="rotate(-180 34.632 267.102)"/><ellipse cx="1.117" cy="419.206" rx="1.117" ry="1.102" transform="rotate(-180 1.117 419.206)"/><ellipse cx="1.117" cy="412.593" rx="1.117" ry="1.102" transform="rotate(-180 1.117 412.593)"/><ellipse cx="1.117" cy="405.98" rx="1.117" ry="1.102" transform="rotate(-180 1.117 405.98)"/><ellipse cx="1.117" cy="399.366" rx="1.117" ry="1.102" transform="rotate(-180 1.117 399.366)"/><ellipse cx="1.117" cy="392.753" rx="1.117" ry="1.102" transform="rotate(-180 1.117 392.753)"/><ellipse cx="1.117" cy="386.14" rx="1.117" ry="1.102" transform="rotate(-180 1.117 386.14)"/><ellipse cx="1.117" cy="333.234" rx="1.117" ry="1.102" transform="rotate(-180 1.117 333.234)"/><ellipse cx="1.117" cy="326.621" rx="1.117" ry="1.102" transform="rotate(-180 1.117 326.621)"/><ellipse cx="1.117" cy="293.555" rx="1.117" ry="1.102" transform="rotate(-180 1.117 293.555)"/><ellipse cx="1.117" cy="320.008" rx="1.117" ry="1.102" transform="rotate(-180 1.117 320.008)"/><ellipse cx="1.117" cy="286.942" rx="1.117" ry="1.102" transform="rotate(-180 1.117 286.942)"/><ellipse cx="1.117" cy="313.395" rx="1.117" ry="1.102" transform="rotate(-180 1.117 313.395)"/><ellipse cx="1.117" cy="306.782" rx="1.117" ry="1.102" transform="rotate(-180 1.117 306.782)"/><ellipse cx="1.117" cy="300.168" rx="1.117" ry="1.102" transform="rotate(-180 1.117 300.168)"/><ellipse cx="27.929" cy="419.206" rx="1.117" ry="1.102" transform="rotate(-180 27.93 419.206)"/><ellipse cx="27.929" cy="412.593" rx="1.117" ry="1.102" transform="rotate(-180 27.93 412.593)"/><ellipse cx="27.929" cy="405.98" rx="1.117" ry="1.102" transform="rotate(-180 27.93 405.98)"/><ellipse cx="27.929" cy="399.366" rx="1.117" ry="1.102" transform="rotate(-180 27.93 399.366)"/><ellipse cx="27.929" cy="392.753" rx="1.117" ry="1.102" transform="rotate(-180 27.93 392.753)"/><ellipse cx="27.929" cy="386.14" rx="1.117" ry="1.102" transform="rotate(-180 27.93 386.14)"/><ellipse cx="27.929" cy="333.234" rx="1.117" ry="1.102" transform="rotate(-180 27.93 333.234)"/><ellipse cx="27.929" cy="326.621" rx="1.117" ry="1.102" transform="rotate(-180 27.93 326.621)"/><ellipse cx="27.929" cy="293.555" rx="1.117" ry="1.102" transform="rotate(-180 27.93 293.555)"/><ellipse cx="27.929" cy="320.008" rx="1.117" ry="1.102" transform="rotate(-180 27.93 320.008)"/><ellipse cx="27.929" cy="286.942" rx="1.117" ry="1.102" transform="rotate(-180 27.93 286.942)"/><ellipse cx="27.929" cy="313.395" rx="1.117" ry="1.102" transform="rotate(-180 27.93 313.395)"/><ellipse cx="27.929" cy="280.329" rx="1.117" ry="1.102" transform="rotate(-180 27.93 280.329)"/><ellipse cx="27.929" cy="306.782" rx="1.117" ry="1.102" transform="rotate(-180 27.93 306.782)"/><ellipse cx="27.929" cy="273.716" rx="1.117" ry="1.102" transform="rotate(-180 27.93 273.716)"/><ellipse cx="27.929" cy="300.168" rx="1.117" ry="1.102" transform="rotate(-180 27.93 300.168)"/><ellipse cx="27.929" cy="267.102" rx="1.117" ry="1.102" transform="rotate(-180 27.93 267.102)"/><ellipse cx="21.226" cy="419.206" rx="1.117" ry="1.102" transform="rotate(-180 21.226 419.206)"/><ellipse cx="21.226" cy="412.593" rx="1.117" ry="1.102" transform="rotate(-180 21.226 412.593)"/><ellipse cx="21.226" cy="405.98" rx="1.117" ry="1.102" transform="rotate(-180 21.226 405.98)"/><ellipse cx="21.226" cy="399.366" rx="1.117" ry="1.102" transform="rotate(-180 21.226 399.366)"/><ellipse cx="21.226" cy="392.753" rx="1.117" ry="1.102" transform="rotate(-180 21.226 392.753)"/><ellipse cx="21.226" cy="386.14" rx="1.117" ry="1.102" transform="rotate(-180 21.226 386.14)"/><ellipse cx="21.226" cy="333.234" rx="1.117" ry="1.102" transform="rotate(-180 21.226 333.234)"/><ellipse cx="21.226" cy="326.621" rx="1.117" ry="1.102" transform="rotate(-180 21.226 326.621)"/><ellipse cx="21.226" cy="293.555" rx="1.117" ry="1.102" transform="rotate(-180 21.226 293.555)"/><ellipse cx="21.226" cy="320.008" rx="1.117" ry="1.102" transform="rotate(-180 21.226 320.008)"/><ellipse cx="21.226" cy="286.942" rx="1.117" ry="1.102" transform="rotate(-180 21.226 286.942)"/><ellipse cx="21.226" cy="313.395" rx="1.117" ry="1.102" transform="rotate(-180 21.226 313.395)"/><ellipse cx="21.226" cy="280.329" rx="1.117" ry="1.102" transform="rotate(-180 21.226 280.329)"/><ellipse cx="21.226" cy="306.782" rx="1.117" ry="1.102" transform="rotate(-180 21.226 306.782)"/><ellipse cx="21.226" cy="273.716" rx="1.117" ry="1.102" transform="rotate(-180 21.226 273.716)"/><ellipse cx="21.226" cy="300.168" rx="1.117" ry="1.102" transform="rotate(-180 21.226 300.168)"/><ellipse cx="21.226" cy="267.103" rx="1.117" ry="1.102" transform="rotate(-180 21.226 267.103)"/><ellipse cx="14.523" cy="419.206" rx="1.117" ry="1.102" transform="rotate(-180 14.523 419.206)"/><ellipse cx="14.523" cy="412.593" rx="1.117" ry="1.102" transform="rotate(-180 14.523 412.593)"/><ellipse cx="14.523" cy="405.98" rx="1.117" ry="1.102" transform="rotate(-180 14.523 405.98)"/><ellipse cx="14.523" cy="399.366" rx="1.117" ry="1.102" transform="rotate(-180 14.523 399.366)"/><ellipse cx="14.523" cy="392.753" rx="1.117" ry="1.102" transform="rotate(-180 14.523 392.753)"/><ellipse cx="14.523" cy="386.14" rx="1.117" ry="1.102" transform="rotate(-180 14.523 386.14)"/><ellipse cx="14.523" cy="333.234" rx="1.117" ry="1.102" transform="rotate(-180 14.523 333.234)"/><ellipse cx="14.523" cy="326.621" rx="1.117" ry="1.102" transform="rotate(-180 14.523 326.621)"/><ellipse cx="14.523" cy="293.555" rx="1.117" ry="1.102" transform="rotate(-180 14.523 293.555)"/><ellipse cx="14.523" cy="320.008" rx="1.117" ry="1.102" transform="rotate(-180 14.523 320.008)"/><ellipse cx="14.523" cy="286.942" rx="1.117" ry="1.102" transform="rotate(-180 14.523 286.942)"/><ellipse cx="14.523" cy="313.395" rx="1.117" ry="1.102" transform="rotate(-180 14.523 313.395)"/><ellipse cx="14.523" cy="306.782" rx="1.117" ry="1.102" transform="rotate(-180 14.523 306.782)"/><ellipse cx="14.523" cy="300.168" rx="1.117" ry="1.102" transform="rotate(-180 14.523 300.168)"/><ellipse cx="7.82" cy="419.206" rx="1.117" ry="1.102" transform="rotate(-180 7.82 419.206)"/><ellipse cx="7.82" cy="412.593" rx="1.117" ry="1.102" transform="rotate(-180 7.82 412.593)"/><ellipse cx="7.82" cy="405.98" rx="1.117" ry="1.102" transform="rotate(-180 7.82 405.98)"/><ellipse cx="7.82" cy="399.366" rx="1.117" ry="1.102" transform="rotate(-180 7.82 399.366)"/><ellipse cx="7.82" cy="392.753" rx="1.117" ry="1.102" transform="rotate(-180 7.82 392.753)"/><ellipse cx="7.82" cy="386.14" rx="1.117" ry="1.102" transform="rotate(-180 7.82 386.14)"/><ellipse cx="7.82" cy="333.234" rx="1.117" ry="1.102" transform="rotate(-180 7.82 333.234)"/><ellipse cx="7.82" cy="326.621" rx="1.117" ry="1.102" transform="rotate(-180 7.82 326.621)"/><ellipse cx="7.82" cy="293.555" rx="1.117" ry="1.102" transform="rotate(-180 7.82 293.555)"/><ellipse cx="7.82" cy="320.008" rx="1.117" ry="1.102" transform="rotate(-180 7.82 320.008)"/><ellipse cx="7.82" cy="286.942" rx="1.117" ry="1.102" transform="rotate(-180 7.82 286.942)"/><ellipse cx="7.82" cy="313.395" rx="1.117" ry="1.102" transform="rotate(-180 7.82 313.395)"/><ellipse cx="7.82" cy="306.782" rx="1.117" ry="1.102" transform="rotate(-180 7.82 306.782)"/><ellipse cx="7.82" cy="300.168" rx="1.117" ry="1.102" transform="rotate(-180 7.82 300.168)"/></g><g opacity=".24" fill="#8BABFB"><ellipse cx="1.117" cy="1.102" rx="1.117" ry="1.102" transform="matrix(1 0 0 -1 192.703 113.016)"/><ellipse cx="1.117" cy="1.102" rx="1.117" ry="1.102" transform="matrix(1 0 0 -1 192.703 106.403)"/><ellipse cx="1.117" cy="1.102" rx="1.117" ry="1.102" transform="matrix(1 0 0 -1 192.703 99.79)"/><ellipse cx="1.117" cy="1.102" rx="1.117" ry="1.102" transform="matrix(1 0 0 -1 192.703 93.176)"/><ellipse cx="1.117" cy="1.102" rx="1.117" ry="1.102" transform="matrix(1 0 0 -1 192.703 86.563)"/><ellipse cx="1.117" cy="1.102" rx="1.117" ry="1.102" transform="matrix(1 0 0 -1 192.703 79.95)"/><ellipse cx="1.117" cy="1.102" rx="1.117" ry="1.102" transform="matrix(1 0 0 -1 192.703 73.337)"/><ellipse cx="1.117" cy="1.102" rx="1.117" ry="1.102" transform="matrix(1 0 0 -1 192.703 66.724)"/><ellipse cx="1.117" cy="1.102" rx="1.117" ry="1.102" transform="matrix(1 0 0 -1 192.703 60.11)"/><ellipse cx="1.117" cy="1.102" rx="1.117" ry="1.102" transform="matrix(1 0 0 -1 192.703 53.497)"/><ellipse cx="1.117" cy="1.102" rx="1.117" ry="1.102" transform="matrix(1 0 0 -1 192.703 46.884)"/><ellipse cx="1.117" cy="1.102" rx="1.117" ry="1.102" transform="matrix(1 0 0 -1 192.703 40.27)"/><ellipse cx="1.117" cy="1.102" rx="1.117" ry="1.102" transform="matrix(1 0 0 -1 199.406 113.016)"/><ellipse cx="1.117" cy="1.102" rx="1.117" ry="1.102" transform="matrix(1 0 0 -1 199.406 106.403)"/><ellipse cx="1.117" cy="1.102" rx="1.117" ry="1.102" transform="matrix(1 0 0 -1 199.406 99.79)"/><ellipse cx="1.117" cy="1.102" rx="1.117" ry="1.102" transform="matrix(1 0 0 -1 199.406 93.176)"/><ellipse cx="1.117" cy="1.102" rx="1.117" ry="1.102" transform="matrix(1 0 0 -1 199.406 86.563)"/><ellipse cx="1.117" cy="1.102" rx="1.117" ry="1.102" transform="matrix(1 0 0 -1 199.406 79.95)"/><ellipse cx="1.117" cy="1.102" rx="1.117" ry="1.102" transform="matrix(1 0 0 -1 199.406 73.337)"/><ellipse cx="1.117" cy="1.102" rx="1.117" ry="1.102" transform="matrix(1 0 0 -1 199.406 66.724)"/><ellipse cx="1.117" cy="1.102" rx="1.117" ry="1.102" transform="matrix(1 0 0 -1 199.406 60.11)"/><ellipse cx="1.117" cy="1.102" rx="1.117" ry="1.102" transform="matrix(1 0 0 -1 199.406 53.497)"/><ellipse cx="1.117" cy="1.102" rx="1.117" ry="1.102" transform="matrix(1 0 0 -1 199.406 46.884)"/><ellipse cx="1.117" cy="1.102" rx="1.117" ry="1.102" transform="matrix(1 0 0 -1 199.406 40.27)"/><ellipse cx="1.117" cy="1.102" rx="1.117" ry="1.102" transform="matrix(1 0 0 -1 206.109 132.855)"/><ellipse cx="1.117" cy="1.102" rx="1.117" ry="1.102" transform="matrix(1 0 0 -1 206.109 126.242)"/><ellipse cx="1.117" cy="1.102" rx="1.117" ry="1.102" transform="matrix(1 0 0 -1 206.109 119.629)"/><ellipse cx="1.117" cy="1.102" rx="1.117" ry="1.102" transform="matrix(1 0 0 -1 206.109 113.016)"/><ellipse cx="1.117" cy="1.102" rx="1.117" ry="1.102" transform="matrix(1 0 0 -1 206.109 106.403)"/><ellipse cx="1.117" cy="1.102" rx="1.117" ry="1.102" transform="matrix(1 0 0 -1 206.109 99.79)"/><ellipse cx="1.117" cy="1.102" rx="1.117" ry="1.102" transform="matrix(1 0 0 -1 206.109 93.176)"/><ellipse cx="1.117" cy="1.102" rx="1.117" ry="1.102" transform="matrix(1 0 0 -1 206.109 86.563)"/><ellipse cx="1.117" cy="1.102" rx="1.117" ry="1.102" transform="matrix(1 0 0 -1 206.109 79.95)"/><ellipse cx="1.117" cy="1.102" rx="1.117" ry="1.102" transform="matrix(1 0 0 -1 206.109 73.337)"/><ellipse cx="1.117" cy="1.102" rx="1.117" ry="1.102" transform="matrix(1 0 0 -1 206.109 66.724)"/><ellipse cx="1.117" cy="1.102" rx="1.117" ry="1.102" transform="matrix(1 0 0 -1 206.109 60.11)"/><ellipse cx="1.117" cy="1.102" rx="1.117" ry="1.102" transform="matrix(1 0 0 -1 206.109 53.497)"/><ellipse cx="1.117" cy="1.102" rx="1.117" ry="1.102" transform="matrix(1 0 0 -1 206.109 46.884)"/><ellipse cx="1.117" cy="1.102" rx="1.117" ry="1.102" transform="matrix(1 0 0 -1 206.109 40.27)"/><ellipse cx="1.117" cy="1.102" rx="1.117" ry="1.102" transform="matrix(1 0 0 -1 212.812 146.082)"/><ellipse cx="1.117" cy="1.102" rx="1.117" ry="1.102" transform="matrix(1 0 0 -1 212.812 139.469)"/><ellipse cx="1.117" cy="1.102" rx="1.117" ry="1.102" transform="matrix(1 0 0 -1 212.812 132.855)"/><ellipse cx="1.117" cy="1.102" rx="1.117" ry="1.102" transform="matrix(1 0 0 -1 212.812 126.242)"/><ellipse cx="1.117" cy="1.102" rx="1.117" ry="1.102" transform="matrix(1 0 0 -1 212.812 119.629)"/><ellipse cx="1.117" cy="1.102" rx="1.117" ry="1.102" transform="matrix(1 0 0 -1 212.812 113.016)"/><ellipse cx="1.117" cy="1.102" rx="1.117" ry="1.102" transform="matrix(1 0 0 -1 212.812 106.403)"/><ellipse cx="1.117" cy="1.102" rx="1.117" ry="1.102" transform="matrix(1 0 0 -1 212.812 99.79)"/><ellipse cx="1.117" cy="1.102" rx="1.117" ry="1.102" transform="matrix(1 0 0 -1 212.812 93.176)"/><ellipse cx="1.117" cy="1.102" rx="1.117" ry="1.102" transform="matrix(1 0 0 -1 212.812 86.563)"/><ellipse cx="1.117" cy="1.102" rx="1.117" ry="1.102" transform="matrix(1 0 0 -1 212.812 79.95)"/><ellipse cx="1.117" cy="1.102" rx="1.117" ry="1.102" transform="matrix(1 0 0 -1 212.812 73.337)"/><ellipse cx="1.117" cy="1.102" rx="1.117" ry="1.102" transform="matrix(1 0 0 -1 212.812 66.723)"/><ellipse cx="1.117" cy="1.102" rx="1.117" ry="1.102" transform="matrix(1 0 0 -1 212.812 60.11)"/><ellipse cx="1.117" cy="1.102" rx="1.117" ry="1.102" transform="matrix(1 0 0 -1 212.812 53.497)"/><ellipse cx="1.117" cy="1.102" rx="1.117" ry="1.102" transform="matrix(1 0 0 -1 212.812 46.884)"/><ellipse cx="1.117" cy="1.102" rx="1.117" ry="1.102" transform="matrix(1 0 0 -1 212.812 40.27)"/><ellipse cx="1.117" cy="1.102" rx="1.117" ry="1.102" transform="matrix(1 0 0 -1 219.515 146.082)"/><ellipse cx="1.117" cy="1.102" rx="1.117" ry="1.102" transform="matrix(1 0 0 -1 219.515 139.469)"/><ellipse cx="1.117" cy="1.102" rx="1.117" ry="1.102" transform="matrix(1 0 0 -1 219.515 132.855)"/><ellipse cx="1.117" cy="1.102" rx="1.117" ry="1.102" transform="matrix(1 0 0 -1 219.515 126.242)"/><ellipse cx="1.117" cy="1.102" rx="1.117" ry="1.102" transform="matrix(1 0 0 -1 219.515 119.629)"/><ellipse cx="1.117" cy="1.102" rx="1.117" ry="1.102" transform="matrix(1 0 0 -1 219.515 113.016)"/><ellipse cx="1.117" cy="1.102" rx="1.117" ry="1.102" transform="matrix(1 0 0 -1 219.515 106.403)"/><ellipse cx="1.117" cy="1.102" rx="1.117" ry="1.102" transform="matrix(1 0 0 -1 219.515 99.79)"/><ellipse cx="1.117" cy="1.102" rx="1.117" ry="1.102" transform="matrix(1 0 0 -1 219.515 93.176)"/><ellipse cx="1.117" cy="1.102" rx="1.117" ry="1.102" transform="matrix(1 0 0 -1 219.515 86.563)"/><ellipse cx="1.117" cy="1.102" rx="1.117" ry="1.102" transform="matrix(1 0 0 -1 219.515 79.95)"/><ellipse cx="1.117" cy="1.102" rx="1.117" ry="1.102" transform="matrix(1 0 0 -1 219.515 73.337)"/><ellipse cx="1.117" cy="1.102" rx="1.117" ry="1.102" transform="matrix(1 0 0 -1 219.515 66.723)"/><ellipse cx="1.117" cy="1.102" rx="1.117" ry="1.102" transform="matrix(1 0 0 -1 219.515 60.11)"/><ellipse cx="1.117" cy="1.102" rx="1.117" ry="1.102" transform="matrix(1 0 0 -1 219.515 53.497)"/><ellipse cx="1.117" cy="1.102" rx="1.117" ry="1.102" transform="matrix(1 0 0 -1 219.515 46.884)"/><ellipse cx="1.117" cy="1.102" rx="1.117" ry="1.102" transform="matrix(1 0 0 -1 219.515 40.27)"/><ellipse cx="1.117" cy="1.102" rx="1.117" ry="1.102" transform="matrix(1 0 0 -1 226.218 146.082)"/><ellipse cx="1.117" cy="1.102" rx="1.117" ry="1.102" transform="matrix(1 0 0 -1 226.218 139.469)"/><ellipse cx="1.117" cy="1.102" rx="1.117" ry="1.102" transform="matrix(1 0 0 -1 226.218 132.855)"/><ellipse cx="1.117" cy="1.102" rx="1.117" ry="1.102" transform="matrix(1 0 0 -1 226.218 126.242)"/><ellipse cx="1.117" cy="1.102" rx="1.117" ry="1.102" transform="matrix(1 0 0 -1 226.218 119.629)"/><ellipse cx="1.117" cy="1.102" rx="1.117" ry="1.102" transform="matrix(1 0 0 -1 226.218 113.016)"/><ellipse cx="1.117" cy="1.102" rx="1.117" ry="1.102" transform="matrix(1 0 0 -1 226.218 106.403)"/><ellipse cx="1.117" cy="1.102" rx="1.117" ry="1.102" transform="matrix(1 0 0 -1 226.218 99.79)"/><ellipse cx="1.117" cy="1.102" rx="1.117" ry="1.102" transform="matrix(1 0 0 -1 226.218 93.176)"/><ellipse cx="1.117" cy="1.102" rx="1.117" ry="1.102" transform="matrix(1 0 0 -1 226.218 86.563)"/><ellipse cx="1.117" cy="1.102" rx="1.117" ry="1.102" transform="matrix(1 0 0 -1 226.218 79.95)"/><ellipse cx="1.117" cy="1.102" rx="1.117" ry="1.102" transform="matrix(1 0 0 -1 226.218 73.337)"/><ellipse cx="1.117" cy="1.102" rx="1.117" ry="1.102" transform="matrix(1 0 0 -1 226.218 66.723)"/><ellipse cx="1.117" cy="1.102" rx="1.117" ry="1.102" transform="matrix(1 0 0 -1 226.218 60.11)"/><ellipse cx="1.117" cy="1.102" rx="1.117" ry="1.102" transform="matrix(1 0 0 -1 226.218 53.497)"/><ellipse cx="1.117" cy="1.102" rx="1.117" ry="1.102" transform="matrix(1 0 0 -1 226.218 46.884)"/><ellipse cx="1.117" cy="1.102" rx="1.117" ry="1.102" transform="matrix(1 0 0 -1 226.218 40.27)"/><ellipse cx="1.117" cy="1.102" rx="1.117" ry="1.102" transform="matrix(1 0 0 -1 232.921 146.082)"/><ellipse cx="1.117" cy="1.102" rx="1.117" ry="1.102" transform="matrix(1 0 0 -1 232.921 139.469)"/><ellipse cx="1.117" cy="1.102" rx="1.117" ry="1.102" transform="matrix(1 0 0 -1 232.921 132.855)"/><ellipse cx="1.117" cy="1.102" rx="1.117" ry="1.102" transform="matrix(1 0 0 -1 232.921 126.242)"/><ellipse cx="1.117" cy="1.102" rx="1.117" ry="1.102" transform="matrix(1 0 0 -1 232.921 119.629)"/><ellipse cx="1.117" cy="1.102" rx="1.117" ry="1.102" transform="matrix(1 0 0 -1 232.921 113.016)"/><ellipse cx="1.117" cy="1.102" rx="1.117" ry="1.102" transform="matrix(1 0 0 -1 232.921 106.403)"/><ellipse cx="1.117" cy="1.102" rx="1.117" ry="1.102" transform="matrix(1 0 0 -1 232.921 99.79)"/><ellipse cx="1.117" cy="1.102" rx="1.117" ry="1.102" transform="matrix(1 0 0 -1 232.921 93.176)"/><ellipse cx="1.117" cy="1.102" rx="1.117" ry="1.102" transform="matrix(1 0 0 -1 232.921 86.563)"/><ellipse cx="1.117" cy="1.102" rx="1.117" ry="1.102" transform="matrix(1 0 0 -1 232.921 79.95)"/><ellipse cx="1.117" cy="1.102" rx="1.117" ry="1.102" transform="matrix(1 0 0 -1 232.921 73.337)"/><ellipse cx="1.117" cy="1.102" rx="1.117" ry="1.102" transform="matrix(1 0 0 -1 232.921 66.723)"/><ellipse cx="1.117" cy="1.102" rx="1.117" ry="1.102" transform="matrix(1 0 0 -1 232.921 33.657)"/><ellipse cx="1.117" cy="1.102" rx="1.117" ry="1.102" transform="matrix(1 0 0 -1 232.921 60.11)"/><ellipse cx="1.117" cy="1.102" rx="1.117" ry="1.102" transform="matrix(1 0 0 -1 232.921 27.044)"/><ellipse cx="1.117" cy="1.102" rx="1.117" ry="1.102" transform="matrix(1 0 0 -1 232.921 53.497)"/><ellipse cx="1.117" cy="1.102" rx="1.117" ry="1.102" transform="matrix(1 0 0 -1 232.921 20.431)"/><ellipse cx="1.117" cy="1.102" rx="1.117" ry="1.102" transform="matrix(1 0 0 -1 232.921 46.884)"/><ellipse cx="1.117" cy="1.102" rx="1.117" ry="1.102" transform="matrix(1 0 0 -1 232.921 13.818)"/><ellipse cx="1.117" cy="1.102" rx="1.117" ry="1.102" transform="matrix(1 0 0 -1 232.921 40.27)"/><ellipse cx="1.117" cy="1.102" rx="1.117" ry="1.102" transform="matrix(1 0 0 -1 232.921 7.205)"/><ellipse cx="1.117" cy="1.102" rx="1.117" ry="1.102" transform="matrix(1 0 0 -1 239.624 159.308)"/><ellipse cx="1.117" cy="1.102" rx="1.117" ry="1.102" transform="matrix(1 0 0 -1 239.624 152.695)"/><ellipse cx="1.117" cy="1.102" rx="1.117" ry="1.102" transform="matrix(1 0 0 -1 239.624 146.082)"/><ellipse cx="1.117" cy="1.102" rx="1.117" ry="1.102" transform="matrix(1 0 0 -1 239.624 139.469)"/><ellipse cx="1.117" cy="1.102" rx="1.117" ry="1.102" transform="matrix(1 0 0 -1 239.624 132.855)"/><ellipse cx="1.117" cy="1.102" rx="1.117" ry="1.102" transform="matrix(1 0 0 -1 239.624 126.242)"/><ellipse cx="1.117" cy="1.102" rx="1.117" ry="1.102" transform="matrix(1 0 0 -1 239.624 119.629)"/><ellipse cx="1.117" cy="1.102" rx="1.117" ry="1.102" transform="matrix(1 0 0 -1 239.624 113.016)"/><ellipse cx="1.117" cy="1.102" rx="1.117" ry="1.102" transform="matrix(1 0 0 -1 239.624 106.403)"/><ellipse cx="1.117" cy="1.102" rx="1.117" ry="1.102" transform="matrix(1 0 0 -1 239.624 99.79)"/><ellipse cx="1.117" cy="1.102" rx="1.117" ry="1.102" transform="matrix(1 0 0 -1 239.624 93.176)"/><ellipse cx="1.117" cy="1.102" rx="1.117" ry="1.102" transform="matrix(1 0 0 -1 239.624 86.563)"/><ellipse cx="1.117" cy="1.102" rx="1.117" ry="1.102" transform="matrix(1 0 0 -1 239.624 79.95)"/><ellipse cx="1.117" cy="1.102" rx="1.117" ry="1.102" transform="matrix(1 0 0 -1 239.624 73.337)"/><ellipse cx="1.117" cy="1.102" rx="1.117" ry="1.102" transform="matrix(1 0 0 -1 239.624 66.723)"/><ellipse cx="1.117" cy="1.102" rx="1.117" ry="1.102" transform="matrix(1 0 0 -1 239.624 33.657)"/><ellipse cx="1.117" cy="1.102" rx="1.117" ry="1.102" transform="matrix(1 0 0 -1 239.624 60.11)"/><ellipse cx="1.117" cy="1.102" rx="1.117" ry="1.102" transform="matrix(1 0 0 -1 239.624 27.044)"/><ellipse cx="1.117" cy="1.102" rx="1.117" ry="1.102" transform="matrix(1 0 0 -1 239.624 53.497)"/><ellipse cx="1.117" cy="1.102" rx="1.117" ry="1.102" transform="matrix(1 0 0 -1 239.624 20.431)"/><ellipse cx="1.117" cy="1.102" rx="1.117" ry="1.102" transform="matrix(1 0 0 -1 239.624 46.884)"/><ellipse cx="1.117" cy="1.102" rx="1.117" ry="1.102" transform="matrix(1 0 0 -1 239.624 13.818)"/><ellipse cx="1.117" cy="1.102" rx="1.117" ry="1.102" transform="matrix(1 0 0 -1 239.624 40.27)"/><ellipse cx="1.117" cy="1.102" rx="1.117" ry="1.102" transform="matrix(1 0 0 -1 239.624 7.205)"/><ellipse cx="1.117" cy="1.102" rx="1.117" ry="1.102" transform="matrix(1 0 0 -1 246.327 159.308)"/><ellipse cx="1.117" cy="1.102" rx="1.117" ry="1.102" transform="matrix(1 0 0 -1 246.327 152.695)"/><ellipse cx="1.117" cy="1.102" rx="1.117" ry="1.102" transform="matrix(1 0 0 -1 246.327 146.082)"/><ellipse cx="1.117" cy="1.102" rx="1.117" ry="1.102" transform="matrix(1 0 0 -1 246.327 139.469)"/><ellipse cx="1.117" cy="1.102" rx="1.117" ry="1.102" transform="matrix(1 0 0 -1 246.327 132.855)"/><ellipse cx="1.117" cy="1.102" rx="1.117" ry="1.102" transform="matrix(1 0 0 -1 246.327 126.242)"/><ellipse cx="1.117" cy="1.102" rx="1.117" ry="1.102" transform="matrix(1 0 0 -1 246.327 73.337)"/><ellipse cx="1.117" cy="1.102" rx="1.117" ry="1.102" transform="matrix(1 0 0 -1 246.327 66.723)"/><ellipse cx="1.117" cy="1.102" rx="1.117" ry="1.102" transform="matrix(1 0 0 -1 246.327 33.657)"/><ellipse cx="1.117" cy="1.102" rx="1.117" ry="1.102" transform="matrix(1 0 0 -1 246.327 60.11)"/><ellipse cx="1.117" cy="1.102" rx="1.117" ry="1.102" transform="matrix(1 0 0 -1 246.327 27.044)"/><ellipse cx="1.117" cy="1.102" rx="1.117" ry="1.102" transform="matrix(1 0 0 -1 246.327 53.497)"/><ellipse cx="1.117" cy="1.102" rx="1.117" ry="1.102" transform="matrix(1 0 0 -1 246.327 20.431)"/><ellipse cx="1.117" cy="1.102" rx="1.117" ry="1.102" transform="matrix(1 0 0 -1 246.327 46.884)"/><ellipse cx="1.117" cy="1.102" rx="1.117" ry="1.102" transform="matrix(1 0 0 -1 246.327 13.818)"/><ellipse cx="1.117" cy="1.102" rx="1.117" ry="1.102" transform="matrix(1 0 0 -1 246.327 40.27)"/><ellipse cx="1.117" cy="1.102" rx="1.117" ry="1.102" transform="matrix(1 0 0 -1 246.327 7.205)"/><ellipse cx="1.117" cy="1.102" rx="1.117" ry="1.102" transform="matrix(1 0 0 -1 253.03 159.308)"/><ellipse cx="1.117" cy="1.102" rx="1.117" ry="1.102" transform="matrix(1 0 0 -1 253.03 152.695)"/><ellipse cx="1.117" cy="1.102" rx="1.117" ry="1.102" transform="matrix(1 0 0 -1 253.03 146.082)"/><ellipse cx="1.117" cy="1.102" rx="1.117" ry="1.102" transform="matrix(1 0 0 -1 253.03 139.469)"/><ellipse cx="1.117" cy="1.102" rx="1.117" ry="1.102" transform="matrix(1 0 0 -1 253.03 132.855)"/><ellipse cx="1.117" cy="1.102" rx="1.117" ry="1.102" transform="matrix(1 0 0 -1 253.03 126.242)"/><ellipse cx="1.117" cy="1.102" rx="1.117" ry="1.102" transform="matrix(1 0 0 -1 253.03 73.337)"/><ellipse cx="1.117" cy="1.102" rx="1.117" ry="1.102" transform="matrix(1 0 0 -1 253.03 66.723)"/><ellipse cx="1.117" cy="1.102" rx="1.117" ry="1.102" transform="matrix(1 0 0 -1 253.03 33.657)"/><ellipse cx="1.117" cy="1.102" rx="1.117" ry="1.102" transform="matrix(1 0 0 -1 253.03 60.11)"/><ellipse cx="1.117" cy="1.102" rx="1.117" ry="1.102" transform="matrix(1 0 0 -1 253.03 27.044)"/><ellipse cx="1.117" cy="1.102" rx="1.117" ry="1.102" transform="matrix(1 0 0 -1 253.03 53.497)"/><ellipse cx="1.117" cy="1.102" rx="1.117" ry="1.102" transform="matrix(1 0 0 -1 253.03 20.431)"/><ellipse cx="1.117" cy="1.102" rx="1.117" ry="1.102" transform="matrix(1 0 0 -1 253.03 46.884)"/><ellipse cx="1.117" cy="1.102" rx="1.117" ry="1.102" transform="matrix(1 0 0 -1 253.03 13.818)"/><ellipse cx="1.117" cy="1.102" rx="1.117" ry="1.102" transform="matrix(1 0 0 -1 253.03 40.27)"/><ellipse cx="1.117" cy="1.102" rx="1.117" ry="1.102" transform="matrix(1 0 0 -1 253.03 7.205)"/><ellipse cx="1.117" cy="1.102" rx="1.117" ry="1.102" transform="matrix(1 0 0 -1 259.733 159.308)"/><ellipse cx="1.117" cy="1.102" rx="1.117" ry="1.102" transform="matrix(1 0 0 -1 259.733 152.695)"/><ellipse cx="1.117" cy="1.102" rx="1.117" ry="1.102" transform="matrix(1 0 0 -1 259.733 146.082)"/><ellipse cx="1.117" cy="1.102" rx="1.117" ry="1.102" transform="matrix(1 0 0 -1 259.733 139.469)"/><ellipse cx="1.117" cy="1.102" rx="1.117" ry="1.102" transform="matrix(1 0 0 -1 259.733 132.855)"/><ellipse cx="1.117" cy="1.102" rx="1.117" ry="1.102" transform="matrix(1 0 0 -1 259.733 126.242)"/><ellipse cx="1.117" cy="1.102" rx="1.117" ry="1.102" transform="matrix(1 0 0 -1 259.733 73.337)"/><ellipse cx="1.117" cy="1.102" rx="1.117" ry="1.102" transform="matrix(1 0 0 -1 259.733 66.723)"/><ellipse cx="1.117" cy="1.102" rx="1.117" ry="1.102" transform="matrix(1 0 0 -1 259.733 33.657)"/><ellipse cx="1.117" cy="1.102" rx="1.117" ry="1.102" transform="matrix(1 0 0 -1 259.733 60.11)"/><ellipse cx="1.117" cy="1.102" rx="1.117" ry="1.102" transform="matrix(1 0 0 -1 259.733 27.044)"/><ellipse cx="1.117" cy="1.102" rx="1.117" ry="1.102" transform="matrix(1 0 0 -1 259.733 53.497)"/><ellipse cx="1.117" cy="1.102" rx="1.117" ry="1.102" transform="matrix(1 0 0 -1 259.733 20.431)"/><ellipse cx="1.117" cy="1.102" rx="1.117" ry="1.102" transform="matrix(1 0 0 -1 259.733 46.884)"/><ellipse cx="1.117" cy="1.102" rx="1.117" ry="1.102" transform="matrix(1 0 0 -1 259.733 13.818)"/><ellipse cx="1.117" cy="1.102" rx="1.117" ry="1.102" transform="matrix(1 0 0 -1 259.733 40.27)"/><ellipse cx="1.117" cy="1.102" rx="1.117" ry="1.102" transform="matrix(1 0 0 -1 259.733 7.205)"/><ellipse cx="1.117" cy="1.102" rx="1.117" ry="1.102" transform="matrix(1 0 0 -1 266.436 159.308)"/><ellipse cx="1.117" cy="1.102" rx="1.117" ry="1.102" transform="matrix(1 0 0 -1 266.436 152.695)"/><ellipse cx="1.117" cy="1.102" rx="1.117" ry="1.102" transform="matrix(1 0 0 -1 266.436 146.082)"/><ellipse cx="1.117" cy="1.102" rx="1.117" ry="1.102" transform="matrix(1 0 0 -1 266.436 139.469)"/><ellipse cx="1.117" cy="1.102" rx="1.117" ry="1.102" transform="matrix(1 0 0 -1 266.436 132.855)"/><ellipse cx="1.117" cy="1.102" rx="1.117" ry="1.102" transform="matrix(1 0 0 -1 266.436 126.242)"/><ellipse cx="1.117" cy="1.102" rx="1.117" ry="1.102" transform="matrix(1 0 0 -1 266.436 73.337)"/><ellipse cx="1.117" cy="1.102" rx="1.117" ry="1.102" transform="matrix(1 0 0 -1 266.436 66.723)"/><ellipse cx="1.117" cy="1.102" rx="1.117" ry="1.102" transform="matrix(1 0 0 -1 266.436 33.657)"/><ellipse cx="1.117" cy="1.102" rx="1.117" ry="1.102" transform="matrix(1 0 0 -1 266.436 60.11)"/><ellipse cx="1.117" cy="1.102" rx="1.117" ry="1.102" transform="matrix(1 0 0 -1 266.436 27.044)"/><ellipse cx="1.117" cy="1.102" rx="1.117" ry="1.102" transform="matrix(1 0 0 -1 266.436 53.497)"/><ellipse cx="1.117" cy="1.102" rx="1.117" ry="1.102" transform="matrix(1 0 0 -1 266.436 46.884)"/><ellipse cx="1.117" cy="1.102" rx="1.117" ry="1.102" transform="matrix(1 0 0 -1 266.436 40.27)"/><ellipse cx="1.117" cy="1.102" rx="1.117" ry="1.102" transform="matrix(1 0 0 -1 273.139 159.308)"/><ellipse cx="1.117" cy="1.102" rx="1.117" ry="1.102" transform="matrix(1 0 0 -1 273.139 152.695)"/><ellipse cx="1.117" cy="1.102" rx="1.117" ry="1.102" transform="matrix(1 0 0 -1 273.139 146.082)"/><ellipse cx="1.117" cy="1.102" rx="1.117" ry="1.102" transform="matrix(1 0 0 -1 273.139 139.469)"/><ellipse cx="1.117" cy="1.102" rx="1.117" ry="1.102" transform="matrix(1 0 0 -1 273.139 132.855)"/><ellipse cx="1.117" cy="1.102" rx="1.117" ry="1.102" transform="matrix(1 0 0 -1 273.139 126.242)"/><ellipse cx="1.117" cy="1.102" rx="1.117" ry="1.102" transform="matrix(1 0 0 -1 273.139 73.337)"/><ellipse cx="1.117" cy="1.102" rx="1.117" ry="1.102" transform="matrix(1 0 0 -1 273.139 66.723)"/><ellipse cx="1.117" cy="1.102" rx="1.117" ry="1.102" transform="matrix(1 0 0 -1 273.139 33.657)"/><ellipse cx="1.117" cy="1.102" rx="1.117" ry="1.102" transform="matrix(1 0 0 -1 273.139 60.11)"/><ellipse cx="1.117" cy="1.102" rx="1.117" ry="1.102" transform="matrix(1 0 0 -1 273.139 27.044)"/><ellipse cx="1.117" cy="1.102" rx="1.117" ry="1.102" transform="matrix(1 0 0 -1 273.139 53.497)"/><ellipse cx="1.117" cy="1.102" rx="1.117" ry="1.102" transform="matrix(1 0 0 -1 273.139 46.884)"/><ellipse cx="1.117" cy="1.102" rx="1.117" ry="1.102" transform="matrix(1 0 0 -1 273.139 40.27)"/></g><g opacity=".24" fill="#8BABFB"><ellipse cx="1.117" cy="1.102" rx="1.117" ry="1.102" transform="matrix(1 0 0 -1 98.703 219.016)"/><ellipse cx="1.117" cy="1.102" rx="1.117" ry="1.102" transform="matrix(1 0 0 -1 98.703 212.403)"/><ellipse cx="1.117" cy="1.102" rx="1.117" ry="1.102" transform="matrix(1 0 0 -1 98.703 205.789)"/><ellipse cx="1.117" cy="1.102" rx="1.117" ry="1.102" transform="matrix(1 0 0 -1 98.703 199.176)"/><ellipse cx="1.117" cy="1.102" rx="1.117" ry="1.102" transform="matrix(1 0 0 -1 98.703 192.563)"/><ellipse cx="1.117" cy="1.102" rx="1.117" ry="1.102" transform="matrix(1 0 0 -1 98.703 185.95)"/><ellipse cx="1.117" cy="1.102" rx="1.117" ry="1.102" transform="matrix(1 0 0 -1 98.703 179.337)"/><ellipse cx="1.117" cy="1.102" rx="1.117" ry="1.102" transform="matrix(1 0 0 -1 98.703 172.724)"/><ellipse cx="1.117" cy="1.102" rx="1.117" ry="1.102" transform="matrix(1 0 0 -1 98.703 166.11)"/><ellipse cx="1.117" cy="1.102" rx="1.117" ry="1.102" transform="matrix(1 0 0 -1 98.703 159.497)"/><ellipse cx="1.117" cy="1.102" rx="1.117" ry="1.102" transform="matrix(1 0 0 -1 98.703 152.884)"/><ellipse cx="1.117" cy="1.102" rx="1.117" ry="1.102" transform="matrix(1 0 0 -1 98.703 146.271)"/><ellipse cx="1.117" cy="1.102" rx="1.117" ry="1.102" transform="matrix(1 0 0 -1 105.406 219.016)"/><ellipse cx="1.117" cy="1.102" rx="1.117" ry="1.102" transform="matrix(1 0 0 -1 105.406 212.403)"/><ellipse cx="1.117" cy="1.102" rx="1.117" ry="1.102" transform="matrix(1 0 0 -1 105.406 205.789)"/><ellipse cx="1.117" cy="1.102" rx="1.117" ry="1.102" transform="matrix(1 0 0 -1 105.406 199.176)"/><ellipse cx="1.117" cy="1.102" rx="1.117" ry="1.102" transform="matrix(1 0 0 -1 105.406 192.563)"/><ellipse cx="1.117" cy="1.102" rx="1.117" ry="1.102" transform="matrix(1 0 0 -1 105.406 185.95)"/><ellipse cx="1.117" cy="1.102" rx="1.117" ry="1.102" transform="matrix(1 0 0 -1 105.406 179.337)"/><ellipse cx="1.117" cy="1.102" rx="1.117" ry="1.102" transform="matrix(1 0 0 -1 105.406 172.724)"/><ellipse cx="1.117" cy="1.102" rx="1.117" ry="1.102" transform="matrix(1 0 0 -1 105.406 166.11)"/><ellipse cx="1.117" cy="1.102" rx="1.117" ry="1.102" transform="matrix(1 0 0 -1 105.406 159.497)"/><ellipse cx="1.117" cy="1.102" rx="1.117" ry="1.102" transform="matrix(1 0 0 -1 105.406 152.884)"/><ellipse cx="1.117" cy="1.102" rx="1.117" ry="1.102" transform="matrix(1 0 0 -1 105.406 146.271)"/><ellipse cx="1.117" cy="1.102" rx="1.117" ry="1.102" transform="matrix(1 0 0 -1 112.109 238.855)"/><ellipse cx="1.117" cy="1.102" rx="1.117" ry="1.102" transform="matrix(1 0 0 -1 112.109 232.242)"/><ellipse cx="1.117" cy="1.102" rx="1.117" ry="1.102" transform="matrix(1 0 0 -1 112.109 225.629)"/><ellipse cx="1.117" cy="1.102" rx="1.117" ry="1.102" transform="matrix(1 0 0 -1 112.109 219.016)"/><ellipse cx="1.117" cy="1.102" rx="1.117" ry="1.102" transform="matrix(1 0 0 -1 112.109 212.403)"/><ellipse cx="1.117" cy="1.102" rx="1.117" ry="1.102" transform="matrix(1 0 0 -1 112.109 205.789)"/><ellipse cx="1.117" cy="1.102" rx="1.117" ry="1.102" transform="matrix(1 0 0 -1 112.109 199.176)"/><ellipse cx="1.117" cy="1.102" rx="1.117" ry="1.102" transform="matrix(1 0 0 -1 112.109 192.563)"/><ellipse cx="1.117" cy="1.102" rx="1.117" ry="1.102" transform="matrix(1 0 0 -1 112.109 185.95)"/><ellipse cx="1.117" cy="1.102" rx="1.117" ry="1.102" transform="matrix(1 0 0 -1 112.109 179.337)"/><ellipse cx="1.117" cy="1.102" rx="1.117" ry="1.102" transform="matrix(1 0 0 -1 112.109 172.724)"/><ellipse cx="1.117" cy="1.102" rx="1.117" ry="1.102" transform="matrix(1 0 0 -1 112.109 166.11)"/><ellipse cx="1.117" cy="1.102" rx="1.117" ry="1.102" transform="matrix(1 0 0 -1 112.109 159.497)"/><ellipse cx="1.117" cy="1.102" rx="1.117" ry="1.102" transform="matrix(1 0 0 -1 112.109 152.884)"/><ellipse cx="1.117" cy="1.102" rx="1.117" ry="1.102" transform="matrix(1 0 0 -1 112.109 146.271)"/><ellipse cx="1.117" cy="1.102" rx="1.117" ry="1.102" transform="matrix(1 0 0 -1 118.812 252.082)"/><ellipse cx="1.117" cy="1.102" rx="1.117" ry="1.102" transform="matrix(1 0 0 -1 118.812 245.469)"/><ellipse cx="1.117" cy="1.102" rx="1.117" ry="1.102" transform="matrix(1 0 0 -1 118.812 238.855)"/><ellipse cx="1.117" cy="1.102" rx="1.117" ry="1.102" transform="matrix(1 0 0 -1 118.812 232.242)"/><ellipse cx="1.117" cy="1.102" rx="1.117" ry="1.102" transform="matrix(1 0 0 -1 118.812 225.629)"/><ellipse cx="1.117" cy="1.102" rx="1.117" ry="1.102" transform="matrix(1 0 0 -1 118.812 219.016)"/><ellipse cx="1.117" cy="1.102" rx="1.117" ry="1.102" transform="matrix(1 0 0 -1 118.812 212.403)"/><ellipse cx="1.117" cy="1.102" rx="1.117" ry="1.102" transform="matrix(1 0 0 -1 118.812 205.789)"/><ellipse cx="1.117" cy="1.102" rx="1.117" ry="1.102" transform="matrix(1 0 0 -1 118.812 199.176)"/><ellipse cx="1.117" cy="1.102" rx="1.117" ry="1.102" transform="matrix(1 0 0 -1 118.812 192.563)"/><ellipse cx="1.117" cy="1.102" rx="1.117" ry="1.102" transform="matrix(1 0 0 -1 118.812 185.95)"/><ellipse cx="1.117" cy="1.102" rx="1.117" ry="1.102" transform="matrix(1 0 0 -1 118.812 179.337)"/><ellipse cx="1.117" cy="1.102" rx="1.117" ry="1.102" transform="matrix(1 0 0 -1 118.812 172.723)"/><ellipse cx="1.117" cy="1.102" rx="1.117" ry="1.102" transform="matrix(1 0 0 -1 118.812 166.11)"/><ellipse cx="1.117" cy="1.102" rx="1.117" ry="1.102" transform="matrix(1 0 0 -1 118.812 159.497)"/><ellipse cx="1.117" cy="1.102" rx="1.117" ry="1.102" transform="matrix(1 0 0 -1 118.812 152.884)"/><ellipse cx="1.117" cy="1.102" rx="1.117" ry="1.102" transform="matrix(1 0 0 -1 118.812 146.271)"/><ellipse cx="1.117" cy="1.102" rx="1.117" ry="1.102" transform="matrix(1 0 0 -1 125.515 252.082)"/><ellipse cx="1.117" cy="1.102" rx="1.117" ry="1.102" transform="matrix(1 0 0 -1 125.515 245.469)"/><ellipse cx="1.117" cy="1.102" rx="1.117" ry="1.102" transform="matrix(1 0 0 -1 125.515 238.855)"/><ellipse cx="1.117" cy="1.102" rx="1.117" ry="1.102" transform="matrix(1 0 0 -1 125.515 232.242)"/><ellipse cx="1.117" cy="1.102" rx="1.117" ry="1.102" transform="matrix(1 0 0 -1 125.515 225.629)"/><ellipse cx="1.117" cy="1.102" rx="1.117" ry="1.102" transform="matrix(1 0 0 -1 125.515 219.016)"/><ellipse cx="1.117" cy="1.102" rx="1.117" ry="1.102" transform="matrix(1 0 0 -1 125.515 212.403)"/><ellipse cx="1.117" cy="1.102" rx="1.117" ry="1.102" transform="matrix(1 0 0 -1 125.515 205.789)"/><ellipse cx="1.117" cy="1.102" rx="1.117" ry="1.102" transform="matrix(1 0 0 -1 125.515 199.176)"/><ellipse cx="1.117" cy="1.102" rx="1.117" ry="1.102" transform="matrix(1 0 0 -1 125.515 192.563)"/><ellipse cx="1.117" cy="1.102" rx="1.117" ry="1.102" transform="matrix(1 0 0 -1 125.515 185.95)"/><ellipse cx="1.117" cy="1.102" rx="1.117" ry="1.102" transform="matrix(1 0 0 -1 125.515 179.337)"/><ellipse cx="1.117" cy="1.102" rx="1.117" ry="1.102" transform="matrix(1 0 0 -1 125.515 172.723)"/><ellipse cx="1.117" cy="1.102" rx="1.117" ry="1.102" transform="matrix(1 0 0 -1 125.515 166.11)"/><ellipse cx="1.117" cy="1.102" rx="1.117" ry="1.102" transform="matrix(1 0 0 -1 125.515 159.497)"/><ellipse cx="1.117" cy="1.102" rx="1.117" ry="1.102" transform="matrix(1 0 0 -1 125.515 152.884)"/><ellipse cx="1.117" cy="1.102" rx="1.117" ry="1.102" transform="matrix(1 0 0 -1 125.515 146.271)"/><ellipse cx="1.117" cy="1.102" rx="1.117" ry="1.102" transform="matrix(1 0 0 -1 132.218 252.082)"/><ellipse cx="1.117" cy="1.102" rx="1.117" ry="1.102" transform="matrix(1 0 0 -1 132.218 245.469)"/><ellipse cx="1.117" cy="1.102" rx="1.117" ry="1.102" transform="matrix(1 0 0 -1 132.218 238.855)"/><ellipse cx="1.117" cy="1.102" rx="1.117" ry="1.102" transform="matrix(1 0 0 -1 132.218 232.242)"/><ellipse cx="1.117" cy="1.102" rx="1.117" ry="1.102" transform="matrix(1 0 0 -1 132.218 225.629)"/><ellipse cx="1.117" cy="1.102" rx="1.117" ry="1.102" transform="matrix(1 0 0 -1 132.218 219.016)"/><ellipse cx="1.117" cy="1.102" rx="1.117" ry="1.102" transform="matrix(1 0 0 -1 132.218 212.403)"/><ellipse cx="1.117" cy="1.102" rx="1.117" ry="1.102" transform="matrix(1 0 0 -1 132.218 205.789)"/><ellipse cx="1.117" cy="1.102" rx="1.117" ry="1.102" transform="matrix(1 0 0 -1 132.218 199.176)"/><ellipse cx="1.117" cy="1.102" rx="1.117" ry="1.102" transform="matrix(1 0 0 -1 132.218 192.563)"/><ellipse cx="1.117" cy="1.102" rx="1.117" ry="1.102" transform="matrix(1 0 0 -1 132.218 185.95)"/><ellipse cx="1.117" cy="1.102" rx="1.117" ry="1.102" transform="matrix(1 0 0 -1 132.218 179.337)"/><ellipse cx="1.117" cy="1.102" rx="1.117" ry="1.102" transform="matrix(1 0 0 -1 132.218 172.723)"/><ellipse cx="1.117" cy="1.102" rx="1.117" ry="1.102" transform="matrix(1 0 0 -1 132.218 166.11)"/><ellipse cx="1.117" cy="1.102" rx="1.117" ry="1.102" transform="matrix(1 0 0 -1 132.218 159.497)"/><ellipse cx="1.117" cy="1.102" rx="1.117" ry="1.102" transform="matrix(1 0 0 -1 132.218 152.884)"/><ellipse cx="1.117" cy="1.102" rx="1.117" ry="1.102" transform="matrix(1 0 0 -1 132.218 146.271)"/><ellipse cx="1.117" cy="1.102" rx="1.117" ry="1.102" transform="matrix(1 0 0 -1 138.921 252.082)"/><ellipse cx="1.117" cy="1.102" rx="1.117" ry="1.102" transform="matrix(1 0 0 -1 138.921 245.469)"/><ellipse cx="1.117" cy="1.102" rx="1.117" ry="1.102" transform="matrix(1 0 0 -1 138.921 238.855)"/><ellipse cx="1.117" cy="1.102" rx="1.117" ry="1.102" transform="matrix(1 0 0 -1 138.921 232.242)"/><ellipse cx="1.117" cy="1.102" rx="1.117" ry="1.102" transform="matrix(1 0 0 -1 138.921 225.629)"/><ellipse cx="1.117" cy="1.102" rx="1.117" ry="1.102" transform="matrix(1 0 0 -1 138.921 219.016)"/><ellipse cx="1.117" cy="1.102" rx="1.117" ry="1.102" transform="matrix(1 0 0 -1 138.921 212.403)"/><ellipse cx="1.117" cy="1.102" rx="1.117" ry="1.102" transform="matrix(1 0 0 -1 138.921 205.789)"/><ellipse cx="1.117" cy="1.102" rx="1.117" ry="1.102" transform="matrix(1 0 0 -1 138.921 199.176)"/><ellipse cx="1.117" cy="1.102" rx="1.117" ry="1.102" transform="matrix(1 0 0 -1 138.921 192.563)"/><ellipse cx="1.117" cy="1.102" rx="1.117" ry="1.102" transform="matrix(1 0 0 -1 138.921 185.95)"/><ellipse cx="1.117" cy="1.102" rx="1.117" ry="1.102" transform="matrix(1 0 0 -1 138.921 179.337)"/><ellipse cx="1.117" cy="1.102" rx="1.117" ry="1.102" transform="matrix(1 0 0 -1 138.921 172.723)"/><ellipse cx="1.117" cy="1.102" rx="1.117" ry="1.102" transform="matrix(1 0 0 -1 138.921 139.657)"/><ellipse cx="1.117" cy="1.102" rx="1.117" ry="1.102" transform="matrix(1 0 0 -1 138.921 166.11)"/><ellipse cx="1.117" cy="1.102" rx="1.117" ry="1.102" transform="matrix(1 0 0 -1 138.921 133.044)"/><ellipse cx="1.117" cy="1.102" rx="1.117" ry="1.102" transform="matrix(1 0 0 -1 138.921 159.497)"/><ellipse cx="1.117" cy="1.102" rx="1.117" ry="1.102" transform="matrix(1 0 0 -1 138.921 126.431)"/><ellipse cx="1.117" cy="1.102" rx="1.117" ry="1.102" transform="matrix(1 0 0 -1 138.921 152.884)"/><ellipse cx="1.117" cy="1.102" rx="1.117" ry="1.102" transform="matrix(1 0 0 -1 138.921 119.818)"/><ellipse cx="1.117" cy="1.102" rx="1.117" ry="1.102" transform="matrix(1 0 0 -1 138.921 146.271)"/><ellipse cx="1.117" cy="1.102" rx="1.117" ry="1.102" transform="matrix(1 0 0 -1 138.921 113.205)"/><ellipse cx="1.117" cy="1.102" rx="1.117" ry="1.102" transform="matrix(1 0 0 -1 145.624 265.308)"/><ellipse cx="1.117" cy="1.102" rx="1.117" ry="1.102" transform="matrix(1 0 0 -1 145.624 258.695)"/><ellipse cx="1.117" cy="1.102" rx="1.117" ry="1.102" transform="matrix(1 0 0 -1 145.624 252.082)"/><ellipse cx="1.117" cy="1.102" rx="1.117" ry="1.102" transform="matrix(1 0 0 -1 145.624 245.469)"/><ellipse cx="1.117" cy="1.102" rx="1.117" ry="1.102" transform="matrix(1 0 0 -1 145.624 238.855)"/><ellipse cx="1.117" cy="1.102" rx="1.117" ry="1.102" transform="matrix(1 0 0 -1 145.624 232.242)"/><ellipse cx="1.117" cy="1.102" rx="1.117" ry="1.102" transform="matrix(1 0 0 -1 145.624 225.629)"/><ellipse cx="1.117" cy="1.102" rx="1.117" ry="1.102" transform="matrix(1 0 0 -1 145.624 219.016)"/><ellipse cx="1.117" cy="1.102" rx="1.117" ry="1.102" transform="matrix(1 0 0 -1 145.624 212.403)"/><ellipse cx="1.117" cy="1.102" rx="1.117" ry="1.102" transform="matrix(1 0 0 -1 145.624 205.789)"/><ellipse cx="1.117" cy="1.102" rx="1.117" ry="1.102" transform="matrix(1 0 0 -1 145.624 199.176)"/><ellipse cx="1.117" cy="1.102" rx="1.117" ry="1.102" transform="matrix(1 0 0 -1 145.624 192.563)"/><ellipse cx="1.117" cy="1.102" rx="1.117" ry="1.102" transform="matrix(1 0 0 -1 145.624 185.95)"/><ellipse cx="1.117" cy="1.102" rx="1.117" ry="1.102" transform="matrix(1 0 0 -1 145.624 179.337)"/><ellipse cx="1.117" cy="1.102" rx="1.117" ry="1.102" transform="matrix(1 0 0 -1 145.624 172.723)"/><ellipse cx="1.117" cy="1.102" rx="1.117" ry="1.102" transform="matrix(1 0 0 -1 145.624 139.657)"/><ellipse cx="1.117" cy="1.102" rx="1.117" ry="1.102" transform="matrix(1 0 0 -1 145.624 166.11)"/><ellipse cx="1.117" cy="1.102" rx="1.117" ry="1.102" transform="matrix(1 0 0 -1 145.624 133.044)"/><ellipse cx="1.117" cy="1.102" rx="1.117" ry="1.102" transform="matrix(1 0 0 -1 145.624 159.497)"/><ellipse cx="1.117" cy="1.102" rx="1.117" ry="1.102" transform="matrix(1 0 0 -1 145.624 126.431)"/><ellipse cx="1.117" cy="1.102" rx="1.117" ry="1.102" transform="matrix(1 0 0 -1 145.624 152.884)"/><ellipse cx="1.117" cy="1.102" rx="1.117" ry="1.102" transform="matrix(1 0 0 -1 145.624 119.818)"/><ellipse cx="1.117" cy="1.102" rx="1.117" ry="1.102" transform="matrix(1 0 0 -1 145.624 146.271)"/><ellipse cx="1.117" cy="1.102" rx="1.117" ry="1.102" transform="matrix(1 0 0 -1 145.624 113.205)"/><ellipse cx="1.117" cy="1.102" rx="1.117" ry="1.102" transform="matrix(1 0 0 -1 152.327 265.308)"/><ellipse cx="1.117" cy="1.102" rx="1.117" ry="1.102" transform="matrix(1 0 0 -1 152.327 258.695)"/><ellipse cx="1.117" cy="1.102" rx="1.117" ry="1.102" transform="matrix(1 0 0 -1 152.327 252.082)"/><ellipse cx="1.117" cy="1.102" rx="1.117" ry="1.102" transform="matrix(1 0 0 -1 152.327 245.469)"/><ellipse cx="1.117" cy="1.102" rx="1.117" ry="1.102" transform="matrix(1 0 0 -1 152.327 238.855)"/><ellipse cx="1.117" cy="1.102" rx="1.117" ry="1.102" transform="matrix(1 0 0 -1 152.327 232.242)"/><ellipse cx="1.117" cy="1.102" rx="1.117" ry="1.102" transform="matrix(1 0 0 -1 152.327 179.337)"/><ellipse cx="1.117" cy="1.102" rx="1.117" ry="1.102" transform="matrix(1 0 0 -1 152.327 172.723)"/><ellipse cx="1.117" cy="1.102" rx="1.117" ry="1.102" transform="matrix(1 0 0 -1 152.327 139.657)"/><ellipse cx="1.117" cy="1.102" rx="1.117" ry="1.102" transform="matrix(1 0 0 -1 152.327 166.11)"/><ellipse cx="1.117" cy="1.102" rx="1.117" ry="1.102" transform="matrix(1 0 0 -1 152.327 133.044)"/><ellipse cx="1.117" cy="1.102" rx="1.117" ry="1.102" transform="matrix(1 0 0 -1 152.327 159.497)"/><ellipse cx="1.117" cy="1.102" rx="1.117" ry="1.102" transform="matrix(1 0 0 -1 152.327 126.431)"/><ellipse cx="1.117" cy="1.102" rx="1.117" ry="1.102" transform="matrix(1 0 0 -1 152.327 152.884)"/><ellipse cx="1.117" cy="1.102" rx="1.117" ry="1.102" transform="matrix(1 0 0 -1 152.327 119.818)"/><ellipse cx="1.117" cy="1.102" rx="1.117" ry="1.102" transform="matrix(1 0 0 -1 152.327 146.271)"/><ellipse cx="1.117" cy="1.102" rx="1.117" ry="1.102" transform="matrix(1 0 0 -1 152.327 113.205)"/><ellipse cx="1.117" cy="1.102" rx="1.117" ry="1.102" transform="matrix(1 0 0 -1 156.842 265.308)"/><ellipse cx="1.117" cy="1.102" rx="1.117" ry="1.102" transform="matrix(1 0 0 -1 156.842 258.695)"/><ellipse cx="1.117" cy="1.102" rx="1.117" ry="1.102" transform="matrix(1 0 0 -1 156.842 252.082)"/><ellipse cx="1.117" cy="1.102" rx="1.117" ry="1.102" transform="matrix(1 0 0 -1 156.842 245.469)"/><ellipse cx="1.117" cy="1.102" rx="1.117" ry="1.102" transform="matrix(1 0 0 -1 156.842 238.855)"/><ellipse cx="1.117" cy="1.102" rx="1.117" ry="1.102" transform="matrix(1 0 0 -1 156.842 232.242)"/><ellipse cx="1.117" cy="1.102" rx="1.117" ry="1.102" transform="matrix(1 0 0 -1 156.842 179.337)"/><ellipse cx="1.117" cy="1.102" rx="1.117" ry="1.102" transform="matrix(1 0 0 -1 156.842 172.723)"/><ellipse cx="1.117" cy="1.102" rx="1.117" ry="1.102" transform="matrix(1 0 0 -1 156.842 139.657)"/><ellipse cx="1.117" cy="1.102" rx="1.117" ry="1.102" transform="matrix(1 0 0 -1 156.842 166.11)"/><ellipse cx="1.117" cy="1.102" rx="1.117" ry="1.102" transform="matrix(1 0 0 -1 156.842 133.044)"/><ellipse cx="1.117" cy="1.102" rx="1.117" ry="1.102" transform="matrix(1 0 0 -1 156.842 159.497)"/><ellipse cx="1.117" cy="1.102" rx="1.117" ry="1.102" transform="matrix(1 0 0 -1 156.842 152.884)"/><ellipse cx="1.117" cy="1.102" rx="1.117" ry="1.102" transform="matrix(1 0 0 -1 156.842 146.271)"/><ellipse cx="1.117" cy="1.102" rx="1.117" ry="1.102" transform="matrix(1 0 0 -1 159.03 265.308)"/><ellipse cx="1.117" cy="1.102" rx="1.117" ry="1.102" transform="matrix(1 0 0 -1 159.03 258.695)"/><ellipse cx="1.117" cy="1.102" rx="1.117" ry="1.102" transform="matrix(1 0 0 -1 159.03 252.082)"/><ellipse cx="1.117" cy="1.102" rx="1.117" ry="1.102" transform="matrix(1 0 0 -1 159.03 245.469)"/><ellipse cx="1.117" cy="1.102" rx="1.117" ry="1.102" transform="matrix(1 0 0 -1 159.03 238.855)"/><ellipse cx="1.117" cy="1.102" rx="1.117" ry="1.102" transform="matrix(1 0 0 -1 159.03 232.242)"/><ellipse cx="1.117" cy="1.102" rx="1.117" ry="1.102" transform="matrix(1 0 0 -1 159.03 179.337)"/><ellipse cx="1.117" cy="1.102" rx="1.117" ry="1.102" transform="matrix(1 0 0 -1 159.03 172.723)"/><ellipse cx="1.117" cy="1.102" rx="1.117" ry="1.102" transform="matrix(1 0 0 -1 159.03 139.657)"/><ellipse cx="1.117" cy="1.102" rx="1.117" ry="1.102" transform="matrix(1 0 0 -1 159.03 166.11)"/><ellipse cx="1.117" cy="1.102" rx="1.117" ry="1.102" transform="matrix(1 0 0 -1 159.03 133.044)"/><ellipse cx="1.117" cy="1.102" rx="1.117" ry="1.102" transform="matrix(1 0 0 -1 159.03 159.497)"/><ellipse cx="1.117" cy="1.102" rx="1.117" ry="1.102" transform="matrix(1 0 0 -1 159.03 126.431)"/><ellipse cx="1.117" cy="1.102" rx="1.117" ry="1.102" transform="matrix(1 0 0 -1 159.03 152.884)"/><ellipse cx="1.117" cy="1.102" rx="1.117" ry="1.102" transform="matrix(1 0 0 -1 159.03 119.818)"/><ellipse cx="1.117" cy="1.102" rx="1.117" ry="1.102" transform="matrix(1 0 0 -1 159.03 146.271)"/><ellipse cx="1.117" cy="1.102" rx="1.117" ry="1.102" transform="matrix(1 0 0 -1 159.03 113.205)"/><ellipse cx="1.117" cy="1.102" rx="1.117" ry="1.102" transform="matrix(1 0 0 -1 165.733 265.308)"/><ellipse cx="1.117" cy="1.102" rx="1.117" ry="1.102" transform="matrix(1 0 0 -1 165.733 258.695)"/><ellipse cx="1.117" cy="1.102" rx="1.117" ry="1.102" transform="matrix(1 0 0 -1 165.733 252.082)"/><ellipse cx="1.117" cy="1.102" rx="1.117" ry="1.102" transform="matrix(1 0 0 -1 165.733 245.469)"/><ellipse cx="1.117" cy="1.102" rx="1.117" ry="1.102" transform="matrix(1 0 0 -1 165.733 238.855)"/><ellipse cx="1.117" cy="1.102" rx="1.117" ry="1.102" transform="matrix(1 0 0 -1 165.733 232.242)"/><ellipse cx="1.117" cy="1.102" rx="1.117" ry="1.102" transform="matrix(1 0 0 -1 165.733 179.337)"/><ellipse cx="1.117" cy="1.102" rx="1.117" ry="1.102" transform="matrix(1 0 0 -1 165.733 172.723)"/><ellipse cx="1.117" cy="1.102" rx="1.117" ry="1.102" transform="matrix(1 0 0 -1 165.733 139.657)"/><ellipse cx="1.117" cy="1.102" rx="1.117" ry="1.102" transform="matrix(1 0 0 -1 165.733 166.11)"/><ellipse cx="1.117" cy="1.102" rx="1.117" ry="1.102" transform="matrix(1 0 0 -1 165.733 133.044)"/><ellipse cx="1.117" cy="1.102" rx="1.117" ry="1.102" transform="matrix(1 0 0 -1 165.733 159.497)"/><ellipse cx="1.117" cy="1.102" rx="1.117" ry="1.102" transform="matrix(1 0 0 -1 165.733 126.431)"/><ellipse cx="1.117" cy="1.102" rx="1.117" ry="1.102" transform="matrix(1 0 0 -1 165.733 152.884)"/><ellipse cx="1.117" cy="1.102" rx="1.117" ry="1.102" transform="matrix(1 0 0 -1 165.733 119.818)"/><ellipse cx="1.117" cy="1.102" rx="1.117" ry="1.102" transform="matrix(1 0 0 -1 165.733 146.271)"/><ellipse cx="1.117" cy="1.102" rx="1.117" ry="1.102" transform="matrix(1 0 0 -1 165.733 113.205)"/><ellipse cx="1.117" cy="1.102" rx="1.117" ry="1.102" transform="matrix(1 0 0 -1 172.436 265.308)"/><ellipse cx="1.117" cy="1.102" rx="1.117" ry="1.102" transform="matrix(1 0 0 -1 172.436 258.695)"/><ellipse cx="1.117" cy="1.102" rx="1.117" ry="1.102" transform="matrix(1 0 0 -1 172.436 252.082)"/><ellipse cx="1.117" cy="1.102" rx="1.117" ry="1.102" transform="matrix(1 0 0 -1 172.436 245.469)"/><ellipse cx="1.117" cy="1.102" rx="1.117" ry="1.102" transform="matrix(1 0 0 -1 172.436 238.855)"/><ellipse cx="1.117" cy="1.102" rx="1.117" ry="1.102" transform="matrix(1 0 0 -1 172.436 232.242)"/><ellipse cx="1.117" cy="1.102" rx="1.117" ry="1.102" transform="matrix(1 0 0 -1 172.436 179.337)"/><ellipse cx="1.117" cy="1.102" rx="1.117" ry="1.102" transform="matrix(1 0 0 -1 172.436 172.723)"/><ellipse cx="1.117" cy="1.102" rx="1.117" ry="1.102" transform="matrix(1 0 0 -1 172.436 139.657)"/><ellipse cx="1.117" cy="1.102" rx="1.117" ry="1.102" transform="matrix(1 0 0 -1 172.436 166.11)"/><ellipse cx="1.117" cy="1.102" rx="1.117" ry="1.102" transform="matrix(1 0 0 -1 172.436 133.044)"/><ellipse cx="1.117" cy="1.102" rx="1.117" ry="1.102" transform="matrix(1 0 0 -1 172.436 159.497)"/><ellipse cx="1.117" cy="1.102" rx="1.117" ry="1.102" transform="matrix(1 0 0 -1 172.436 152.884)"/><ellipse cx="1.117" cy="1.102" rx="1.117" ry="1.102" transform="matrix(1 0 0 -1 172.436 146.271)"/><ellipse cx="1.117" cy="1.102" rx="1.117" ry="1.102" transform="matrix(1 0 0 -1 179.139 265.308)"/><ellipse cx="1.117" cy="1.102" rx="1.117" ry="1.102" transform="matrix(1 0 0 -1 179.139 258.695)"/><ellipse cx="1.117" cy="1.102" rx="1.117" ry="1.102" transform="matrix(1 0 0 -1 179.139 252.082)"/><ellipse cx="1.117" cy="1.102" rx="1.117" ry="1.102" transform="matrix(1 0 0 -1 179.139 245.469)"/><ellipse cx="1.117" cy="1.102" rx="1.117" ry="1.102" transform="matrix(1 0 0 -1 179.139 238.855)"/><ellipse cx="1.117" cy="1.102" rx="1.117" ry="1.102" transform="matrix(1 0 0 -1 179.139 232.242)"/><ellipse cx="1.117" cy="1.102" rx="1.117" ry="1.102" transform="matrix(1 0 0 -1 179.139 179.337)"/><ellipse cx="1.117" cy="1.102" rx="1.117" ry="1.102" transform="matrix(1 0 0 -1 179.139 172.723)"/><ellipse cx="1.117" cy="1.102" rx="1.117" ry="1.102" transform="matrix(1 0 0 -1 179.139 139.657)"/><ellipse cx="1.117" cy="1.102" rx="1.117" ry="1.102" transform="matrix(1 0 0 -1 179.139 166.11)"/><ellipse cx="1.117" cy="1.102" rx="1.117" ry="1.102" transform="matrix(1 0 0 -1 179.139 133.044)"/><ellipse cx="1.117" cy="1.102" rx="1.117" ry="1.102" transform="matrix(1 0 0 -1 179.139 159.497)"/><ellipse cx="1.117" cy="1.102" rx="1.117" ry="1.102" transform="matrix(1 0 0 -1 179.139 152.884)"/><ellipse cx="1.117" cy="1.102" rx="1.117" ry="1.102" transform="matrix(1 0 0 -1 179.139 146.271)"/></g><g opacity=".24" fill="#8BABFB"><ellipse cx="301.335" cy="6.206" rx="1.117" ry="1.102" transform="rotate(-180 301.335 6.206)"/><ellipse cx="301.335" cy="-.407" rx="1.117" ry="1.102" transform="rotate(-180 301.335 -.407)"/><ellipse cx="294.632" cy="6.206" rx="1.117" ry="1.102" transform="rotate(-180 294.632 6.206)"/><ellipse cx="294.632" cy="-.407" rx="1.117" ry="1.102" transform="rotate(-180 294.632 -.407)"/><ellipse cx="290.117" cy="6.206" rx="1.117" ry="1.102" transform="rotate(-180 290.117 6.206)"/><ellipse cx="290.117" cy="-.407" rx="1.117" ry="1.102" transform="rotate(-180 290.117 -.407)"/><ellipse cx="281.226" cy="6.206" rx="1.117" ry="1.102" transform="rotate(-180 281.226 6.206)"/><ellipse cx="281.226" cy="-.407" rx="1.117" ry="1.102" transform="rotate(-180 281.226 -.407)"/><ellipse cx="274.523" cy="6.206" rx="1.117" ry="1.102" transform="rotate(-180 274.523 6.206)"/><ellipse cx="274.523" cy="-.407" rx="1.117" ry="1.102" transform="rotate(-180 274.523 -.407)"/><ellipse cx="267.82" cy="6.206" rx="1.117" ry="1.102" transform="rotate(-180 267.82 6.206)"/><ellipse cx="267.82" cy="-.407" rx="1.117" ry="1.102" transform="rotate(-180 267.82 -.407)"/></g><g opacity=".16" fill="#8BABFB"><ellipse cx="1.117" cy="1.102" rx="1.117" ry="1.102" transform="matrix(-1 0 0 1 89.374 152.293)"/><ellipse cx="1.117" cy="1.102" rx="1.117" ry="1.102" transform="matrix(-1 0 0 1 89.374 158.906)"/><ellipse cx="1.117" cy="1.102" rx="1.117" ry="1.102" transform="matrix(-1 0 0 1 89.374 165.519)"/><ellipse cx="1.117" cy="1.102" rx="1.117" ry="1.102" transform="matrix(-1 0 0 1 89.374 172.132)"/><ellipse cx="1.117" cy="1.102" rx="1.117" ry="1.102" transform="matrix(-1 0 0 1 89.374 178.745)"/><ellipse cx="1.117" cy="1.102" rx="1.117" ry="1.102" transform="matrix(-1 0 0 1 89.374 185.359)"/><ellipse cx="1.117" cy="1.102" rx="1.117" ry="1.102" transform="matrix(-1 0 0 1 89.374 191.972)"/><ellipse cx="1.117" cy="1.102" rx="1.117" ry="1.102" transform="matrix(-1 0 0 1 89.374 198.585)"/><ellipse cx="1.117" cy="1.102" rx="1.117" ry="1.102" transform="matrix(-1 0 0 1 89.374 205.198)"/><ellipse cx="1.117" cy="1.102" rx="1.117" ry="1.102" transform="matrix(-1 0 0 1 89.374 211.811)"/><ellipse cx="1.117" cy="1.102" rx="1.117" ry="1.102" transform="matrix(-1 0 0 1 89.374 218.425)"/><ellipse cx="1.117" cy="1.102" rx="1.117" ry="1.102" transform="matrix(-1 0 0 1 89.374 225.038)"/><ellipse cx="1.117" cy="1.102" rx="1.117" ry="1.102" transform="matrix(-1 0 0 1 82.67 152.293)"/><ellipse cx="1.117" cy="1.102" rx="1.117" ry="1.102" transform="matrix(-1 0 0 1 82.67 158.906)"/><ellipse cx="1.117" cy="1.102" rx="1.117" ry="1.102" transform="matrix(-1 0 0 1 82.67 165.519)"/><ellipse cx="1.117" cy="1.102" rx="1.117" ry="1.102" transform="matrix(-1 0 0 1 82.67 172.132)"/><ellipse cx="1.117" cy="1.102" rx="1.117" ry="1.102" transform="matrix(-1 0 0 1 82.67 178.745)"/><ellipse cx="1.117" cy="1.102" rx="1.117" ry="1.102" transform="matrix(-1 0 0 1 82.67 185.359)"/><ellipse cx="1.117" cy="1.102" rx="1.117" ry="1.102" transform="matrix(-1 0 0 1 82.67 191.972)"/><ellipse cx="1.117" cy="1.102" rx="1.117" ry="1.102" transform="matrix(-1 0 0 1 82.67 198.585)"/><ellipse cx="1.117" cy="1.102" rx="1.117" ry="1.102" transform="matrix(-1 0 0 1 82.67 205.198)"/><ellipse cx="1.117" cy="1.102" rx="1.117" ry="1.102" transform="matrix(-1 0 0 1 82.67 211.811)"/><ellipse cx="1.117" cy="1.102" rx="1.117" ry="1.102" transform="matrix(-1 0 0 1 82.67 218.425)"/><ellipse cx="1.117" cy="1.102" rx="1.117" ry="1.102" transform="matrix(-1 0 0 1 82.67 225.038)"/><ellipse cx="1.117" cy="1.102" rx="1.117" ry="1.102" transform="matrix(-1 0 0 1 75.968 132.453)"/><ellipse cx="1.117" cy="1.102" rx="1.117" ry="1.102" transform="matrix(-1 0 0 1 75.968 139.066)"/><ellipse cx="1.117" cy="1.102" rx="1.117" ry="1.102" transform="matrix(-1 0 0 1 75.968 145.679)"/><ellipse cx="1.117" cy="1.102" rx="1.117" ry="1.102" transform="matrix(-1 0 0 1 75.968 152.293)"/><ellipse cx="1.117" cy="1.102" rx="1.117" ry="1.102" transform="matrix(-1 0 0 1 75.968 158.906)"/><ellipse cx="1.117" cy="1.102" rx="1.117" ry="1.102" transform="matrix(-1 0 0 1 75.968 165.519)"/><ellipse cx="1.117" cy="1.102" rx="1.117" ry="1.102" transform="matrix(-1 0 0 1 75.968 172.132)"/><ellipse cx="1.117" cy="1.102" rx="1.117" ry="1.102" transform="matrix(-1 0 0 1 75.968 178.745)"/><ellipse cx="1.117" cy="1.102" rx="1.117" ry="1.102" transform="matrix(-1 0 0 1 75.968 185.359)"/><ellipse cx="1.117" cy="1.102" rx="1.117" ry="1.102" transform="matrix(-1 0 0 1 75.968 191.972)"/><ellipse cx="1.117" cy="1.102" rx="1.117" ry="1.102" transform="matrix(-1 0 0 1 75.968 198.585)"/><ellipse cx="1.117" cy="1.102" rx="1.117" ry="1.102" transform="matrix(-1 0 0 1 75.968 205.198)"/><ellipse cx="1.117" cy="1.102" rx="1.117" ry="1.102" transform="matrix(-1 0 0 1 75.968 211.811)"/><ellipse cx="1.117" cy="1.102" rx="1.117" ry="1.102" transform="matrix(-1 0 0 1 75.968 218.425)"/><ellipse cx="1.117" cy="1.102" rx="1.117" ry="1.102" transform="matrix(-1 0 0 1 75.968 225.038)"/><ellipse cx="1.117" cy="1.102" rx="1.117" ry="1.102" transform="matrix(-1 0 0 1 69.264 119.227)"/><ellipse cx="1.117" cy="1.102" rx="1.117" ry="1.102" transform="matrix(-1 0 0 1 69.264 125.84)"/><ellipse cx="1.117" cy="1.102" rx="1.117" ry="1.102" transform="matrix(-1 0 0 1 69.264 132.453)"/><ellipse cx="1.117" cy="1.102" rx="1.117" ry="1.102" transform="matrix(-1 0 0 1 69.264 139.066)"/><ellipse cx="1.117" cy="1.102" rx="1.117" ry="1.102" transform="matrix(-1 0 0 1 69.264 145.679)"/><ellipse cx="1.117" cy="1.102" rx="1.117" ry="1.102" transform="matrix(-1 0 0 1 69.264 152.293)"/><ellipse cx="1.117" cy="1.102" rx="1.117" ry="1.102" transform="matrix(-1 0 0 1 69.264 158.906)"/><ellipse cx="1.117" cy="1.102" rx="1.117" ry="1.102" transform="matrix(-1 0 0 1 69.264 165.519)"/><ellipse cx="1.117" cy="1.102" rx="1.117" ry="1.102" transform="matrix(-1 0 0 1 69.264 172.132)"/><ellipse cx="1.117" cy="1.102" rx="1.117" ry="1.102" transform="matrix(-1 0 0 1 69.264 178.745)"/><ellipse cx="1.117" cy="1.102" rx="1.117" ry="1.102" transform="matrix(-1 0 0 1 69.264 185.359)"/><ellipse cx="1.117" cy="1.102" rx="1.117" ry="1.102" transform="matrix(-1 0 0 1 69.264 191.972)"/><ellipse cx="1.117" cy="1.102" rx="1.117" ry="1.102" transform="matrix(-1 0 0 1 69.264 198.585)"/><ellipse cx="1.117" cy="1.102" rx="1.117" ry="1.102" transform="matrix(-1 0 0 1 69.264 205.198)"/><ellipse cx="1.117" cy="1.102" rx="1.117" ry="1.102" transform="matrix(-1 0 0 1 69.264 211.811)"/><ellipse cx="1.117" cy="1.102" rx="1.117" ry="1.102" transform="matrix(-1 0 0 1 69.264 218.425)"/><ellipse cx="1.117" cy="1.102" rx="1.117" ry="1.102" transform="matrix(-1 0 0 1 69.264 225.038)"/><ellipse cx="1.117" cy="1.102" rx="1.117" ry="1.102" transform="matrix(-1 0 0 1 62.562 119.227)"/><ellipse cx="1.117" cy="1.102" rx="1.117" ry="1.102" transform="matrix(-1 0 0 1 62.562 125.84)"/><ellipse cx="1.117" cy="1.102" rx="1.117" ry="1.102" transform="matrix(-1 0 0 1 62.562 132.453)"/><ellipse cx="1.117" cy="1.102" rx="1.117" ry="1.102" transform="matrix(-1 0 0 1 62.562 139.066)"/><ellipse cx="1.117" cy="1.102" rx="1.117" ry="1.102" transform="matrix(-1 0 0 1 62.562 145.679)"/><ellipse cx="1.117" cy="1.102" rx="1.117" ry="1.102" transform="matrix(-1 0 0 1 62.562 152.293)"/><ellipse cx="1.117" cy="1.102" rx="1.117" ry="1.102" transform="matrix(-1 0 0 1 62.562 158.906)"/><ellipse cx="1.117" cy="1.102" rx="1.117" ry="1.102" transform="matrix(-1 0 0 1 62.562 165.519)"/><ellipse cx="1.117" cy="1.102" rx="1.117" ry="1.102" transform="matrix(-1 0 0 1 62.562 172.132)"/><ellipse cx="1.117" cy="1.102" rx="1.117" ry="1.102" transform="matrix(-1 0 0 1 62.562 178.745)"/><ellipse cx="1.117" cy="1.102" rx="1.117" ry="1.102" transform="matrix(-1 0 0 1 62.562 185.359)"/><ellipse cx="1.117" cy="1.102" rx="1.117" ry="1.102" transform="matrix(-1 0 0 1 62.562 191.972)"/><ellipse cx="1.117" cy="1.102" rx="1.117" ry="1.102" transform="matrix(-1 0 0 1 62.562 198.585)"/><ellipse cx="1.117" cy="1.102" rx="1.117" ry="1.102" transform="matrix(-1 0 0 1 62.562 205.198)"/><ellipse cx="1.117" cy="1.102" rx="1.117" ry="1.102" transform="matrix(-1 0 0 1 62.562 211.811)"/><ellipse cx="1.117" cy="1.102" rx="1.117" ry="1.102" transform="matrix(-1 0 0 1 62.562 218.425)"/><ellipse cx="1.117" cy="1.102" rx="1.117" ry="1.102" transform="matrix(-1 0 0 1 62.562 225.038)"/><ellipse cx="1.117" cy="1.102" rx="1.117" ry="1.102" transform="matrix(-1 0 0 1 55.858 119.227)"/><ellipse cx="1.117" cy="1.102" rx="1.117" ry="1.102" transform="matrix(-1 0 0 1 55.858 125.84)"/><ellipse cx="1.117" cy="1.102" rx="1.117" ry="1.102" transform="matrix(-1 0 0 1 55.858 132.453)"/><ellipse cx="1.117" cy="1.102" rx="1.117" ry="1.102" transform="matrix(-1 0 0 1 55.858 139.066)"/><ellipse cx="1.117" cy="1.102" rx="1.117" ry="1.102" transform="matrix(-1 0 0 1 55.858 145.679)"/><ellipse cx="1.117" cy="1.102" rx="1.117" ry="1.102" transform="matrix(-1 0 0 1 55.858 152.293)"/><ellipse cx="1.117" cy="1.102" rx="1.117" ry="1.102" transform="matrix(-1 0 0 1 55.858 158.906)"/><ellipse cx="1.117" cy="1.102" rx="1.117" ry="1.102" transform="matrix(-1 0 0 1 55.858 165.519)"/><ellipse cx="1.117" cy="1.102" rx="1.117" ry="1.102" transform="matrix(-1 0 0 1 55.858 172.132)"/><ellipse cx="1.117" cy="1.102" rx="1.117" ry="1.102" transform="matrix(-1 0 0 1 55.858 178.745)"/><ellipse cx="1.117" cy="1.102" rx="1.117" ry="1.102" transform="matrix(-1 0 0 1 55.858 185.359)"/><ellipse cx="1.117" cy="1.102" rx="1.117" ry="1.102" transform="matrix(-1 0 0 1 55.858 191.972)"/><ellipse cx="1.117" cy="1.102" rx="1.117" ry="1.102" transform="matrix(-1 0 0 1 55.858 198.585)"/><ellipse cx="1.117" cy="1.102" rx="1.117" ry="1.102" transform="matrix(-1 0 0 1 55.858 205.198)"/><ellipse cx="1.117" cy="1.102" rx="1.117" ry="1.102" transform="matrix(-1 0 0 1 55.858 211.811)"/><ellipse cx="1.117" cy="1.102" rx="1.117" ry="1.102" transform="matrix(-1 0 0 1 55.858 218.425)"/><ellipse cx="1.117" cy="1.102" rx="1.117" ry="1.102" transform="matrix(-1 0 0 1 55.858 225.038)"/><ellipse cx="1.117" cy="1.102" rx="1.117" ry="1.102" transform="matrix(-1 0 0 1 49.156 119.227)"/><ellipse cx="1.117" cy="1.102" rx="1.117" ry="1.102" transform="matrix(-1 0 0 1 49.156 125.84)"/><ellipse cx="1.117" cy="1.102" rx="1.117" ry="1.102" transform="matrix(-1 0 0 1 49.156 132.453)"/><ellipse cx="1.117" cy="1.102" rx="1.117" ry="1.102" transform="matrix(-1 0 0 1 49.156 139.066)"/><ellipse cx="1.117" cy="1.102" rx="1.117" ry="1.102" transform="matrix(-1 0 0 1 49.156 145.679)"/><ellipse cx="1.117" cy="1.102" rx="1.117" ry="1.102" transform="matrix(-1 0 0 1 49.156 152.293)"/><ellipse cx="1.117" cy="1.102" rx="1.117" ry="1.102" transform="matrix(-1 0 0 1 49.156 158.906)"/><ellipse cx="1.117" cy="1.102" rx="1.117" ry="1.102" transform="matrix(-1 0 0 1 49.156 165.519)"/><ellipse cx="1.117" cy="1.102" rx="1.117" ry="1.102" transform="matrix(-1 0 0 1 49.156 172.132)"/><ellipse cx="1.117" cy="1.102" rx="1.117" ry="1.102" transform="matrix(-1 0 0 1 49.156 178.745)"/><ellipse cx="1.117" cy="1.102" rx="1.117" ry="1.102" transform="matrix(-1 0 0 1 49.156 185.359)"/><ellipse cx="1.117" cy="1.102" rx="1.117" ry="1.102" transform="matrix(-1 0 0 1 49.156 191.972)"/><ellipse cx="1.117" cy="1.102" rx="1.117" ry="1.102" transform="matrix(-1 0 0 1 49.156 198.585)"/><ellipse cx="1.117" cy="1.102" rx="1.117" ry="1.102" transform="matrix(-1 0 0 1 49.156 231.651)"/><ellipse cx="1.117" cy="1.102" rx="1.117" ry="1.102" transform="matrix(-1 0 0 1 49.156 205.198)"/><ellipse cx="1.117" cy="1.102" rx="1.117" ry="1.102" transform="matrix(-1 0 0 1 49.156 238.264)"/><ellipse cx="1.117" cy="1.102" rx="1.117" ry="1.102" transform="matrix(-1 0 0 1 49.156 211.811)"/><ellipse cx="1.117" cy="1.102" rx="1.117" ry="1.102" transform="matrix(-1 0 0 1 49.156 244.877)"/><ellipse cx="1.117" cy="1.102" rx="1.117" ry="1.102" transform="matrix(-1 0 0 1 49.156 218.425)"/><ellipse cx="1.117" cy="1.102" rx="1.117" ry="1.102" transform="matrix(-1 0 0 1 49.156 251.49)"/><ellipse cx="1.117" cy="1.102" rx="1.117" ry="1.102" transform="matrix(-1 0 0 1 49.156 225.038)"/><ellipse cx="1.117" cy="1.102" rx="1.117" ry="1.102" transform="matrix(-1 0 0 1 49.156 258.104)"/><ellipse cx="1.117" cy="1.102" rx="1.117" ry="1.102" transform="matrix(-1 0 0 1 42.452 106)"/><ellipse cx="1.117" cy="1.102" rx="1.117" ry="1.102" transform="matrix(-1 0 0 1 42.452 112.613)"/><ellipse cx="1.117" cy="1.102" rx="1.117" ry="1.102" transform="matrix(-1 0 0 1 42.452 119.227)"/><ellipse cx="1.117" cy="1.102" rx="1.117" ry="1.102" transform="matrix(-1 0 0 1 42.452 125.84)"/><ellipse cx="1.117" cy="1.102" rx="1.117" ry="1.102" transform="matrix(-1 0 0 1 42.452 132.453)"/><ellipse cx="1.117" cy="1.102" rx="1.117" ry="1.102" transform="matrix(-1 0 0 1 42.452 139.066)"/><ellipse cx="1.117" cy="1.102" rx="1.117" ry="1.102" transform="matrix(-1 0 0 1 42.452 145.679)"/><ellipse cx="1.117" cy="1.102" rx="1.117" ry="1.102" transform="matrix(-1 0 0 1 42.452 152.293)"/><ellipse cx="1.117" cy="1.102" rx="1.117" ry="1.102" transform="matrix(-1 0 0 1 42.452 158.906)"/><ellipse cx="1.117" cy="1.102" rx="1.117" ry="1.102" transform="matrix(-1 0 0 1 42.452 165.519)"/><ellipse cx="1.117" cy="1.102" rx="1.117" ry="1.102" transform="matrix(-1 0 0 1 42.452 172.132)"/><ellipse cx="1.117" cy="1.102" rx="1.117" ry="1.102" transform="matrix(-1 0 0 1 42.452 178.745)"/><ellipse cx="1.117" cy="1.102" rx="1.117" ry="1.102" transform="matrix(-1 0 0 1 42.452 185.359)"/><ellipse cx="1.117" cy="1.102" rx="1.117" ry="1.102" transform="matrix(-1 0 0 1 42.452 191.972)"/><ellipse cx="1.117" cy="1.102" rx="1.117" ry="1.102" transform="matrix(-1 0 0 1 42.452 198.585)"/><ellipse cx="1.117" cy="1.102" rx="1.117" ry="1.102" transform="matrix(-1 0 0 1 42.452 231.651)"/><ellipse cx="1.117" cy="1.102" rx="1.117" ry="1.102" transform="matrix(-1 0 0 1 42.452 205.198)"/><ellipse cx="1.117" cy="1.102" rx="1.117" ry="1.102" transform="matrix(-1 0 0 1 42.452 238.264)"/><ellipse cx="1.117" cy="1.102" rx="1.117" ry="1.102" transform="matrix(-1 0 0 1 42.452 211.811)"/><ellipse cx="1.117" cy="1.102" rx="1.117" ry="1.102" transform="matrix(-1 0 0 1 42.452 244.877)"/><ellipse cx="1.117" cy="1.102" rx="1.117" ry="1.102" transform="matrix(-1 0 0 1 42.452 218.425)"/><ellipse cx="1.117" cy="1.102" rx="1.117" ry="1.102" transform="matrix(-1 0 0 1 42.452 251.49)"/><ellipse cx="1.117" cy="1.102" rx="1.117" ry="1.102" transform="matrix(-1 0 0 1 42.452 225.038)"/><ellipse cx="1.117" cy="1.102" rx="1.117" ry="1.102" transform="matrix(-1 0 0 1 42.452 258.104)"/><ellipse cx="1.117" cy="1.102" rx="1.117" ry="1.102" transform="matrix(-1 0 0 1 35.75 106)"/><ellipse cx="1.117" cy="1.102" rx="1.117" ry="1.102" transform="matrix(-1 0 0 1 35.75 112.613)"/><ellipse cx="1.117" cy="1.102" rx="1.117" ry="1.102" transform="matrix(-1 0 0 1 35.75 119.227)"/><ellipse cx="1.117" cy="1.102" rx="1.117" ry="1.102" transform="matrix(-1 0 0 1 35.75 125.84)"/><ellipse cx="1.117" cy="1.102" rx="1.117" ry="1.102" transform="matrix(-1 0 0 1 35.75 132.453)"/><ellipse cx="1.117" cy="1.102" rx="1.117" ry="1.102" transform="matrix(-1 0 0 1 35.75 139.066)"/><ellipse cx="1.117" cy="1.102" rx="1.117" ry="1.102" transform="matrix(-1 0 0 1 35.75 191.972)"/><ellipse cx="1.117" cy="1.102" rx="1.117" ry="1.102" transform="matrix(-1 0 0 1 35.75 198.585)"/><ellipse cx="1.117" cy="1.102" rx="1.117" ry="1.102" transform="matrix(-1 0 0 1 35.75 231.651)"/><ellipse cx="1.117" cy="1.102" rx="1.117" ry="1.102" transform="matrix(-1 0 0 1 35.75 205.198)"/><ellipse cx="1.117" cy="1.102" rx="1.117" ry="1.102" transform="matrix(-1 0 0 1 35.75 238.264)"/><ellipse cx="1.117" cy="1.102" rx="1.117" ry="1.102" transform="matrix(-1 0 0 1 35.75 211.811)"/><ellipse cx="1.117" cy="1.102" rx="1.117" ry="1.102" transform="matrix(-1 0 0 1 35.75 244.877)"/><ellipse cx="1.117" cy="1.102" rx="1.117" ry="1.102" transform="matrix(-1 0 0 1 35.75 218.425)"/><ellipse cx="1.117" cy="1.102" rx="1.117" ry="1.102" transform="matrix(-1 0 0 1 35.75 251.49)"/><ellipse cx="1.117" cy="1.102" rx="1.117" ry="1.102" transform="matrix(-1 0 0 1 35.75 225.038)"/><ellipse cx="1.117" cy="1.102" rx="1.117" ry="1.102" transform="matrix(-1 0 0 1 35.75 258.104)"/><ellipse cx="1.117" cy="1.102" rx="1.117" ry="1.102" transform="matrix(-1 0 0 1 2.234 106)"/><ellipse cx="1.117" cy="1.102" rx="1.117" ry="1.102" transform="matrix(-1 0 0 1 2.234 112.613)"/><ellipse cx="1.117" cy="1.102" rx="1.117" ry="1.102" transform="matrix(-1 0 0 1 2.234 119.227)"/><ellipse cx="1.117" cy="1.102" rx="1.117" ry="1.102" transform="matrix(-1 0 0 1 2.234 125.84)"/><ellipse cx="1.117" cy="1.102" rx="1.117" ry="1.102" transform="matrix(-1 0 0 1 2.234 132.453)"/><ellipse cx="1.117" cy="1.102" rx="1.117" ry="1.102" transform="matrix(-1 0 0 1 2.234 139.066)"/><ellipse cx="1.117" cy="1.102" rx="1.117" ry="1.102" transform="matrix(-1 0 0 1 2.234 191.972)"/><ellipse cx="1.117" cy="1.102" rx="1.117" ry="1.102" transform="matrix(-1 0 0 1 2.234 198.585)"/><ellipse cx="1.117" cy="1.102" rx="1.117" ry="1.102" transform="matrix(-1 0 0 1 2.234 231.651)"/><ellipse cx="1.117" cy="1.102" rx="1.117" ry="1.102" transform="matrix(-1 0 0 1 2.234 205.198)"/><ellipse cx="1.117" cy="1.102" rx="1.117" ry="1.102" transform="matrix(-1 0 0 1 2.234 238.264)"/><ellipse cx="1.117" cy="1.102" rx="1.117" ry="1.102" transform="matrix(-1 0 0 1 2.234 211.811)"/><ellipse cx="1.117" cy="1.102" rx="1.117" ry="1.102" transform="matrix(-1 0 0 1 2.234 218.424)"/><ellipse cx="1.117" cy="1.102" rx="1.117" ry="1.102" transform="matrix(-1 0 0 1 2.234 225.038)"/><ellipse cx="1.117" cy="1.102" rx="1.117" ry="1.102" transform="matrix(-1 0 0 1 29.046 106)"/><ellipse cx="1.117" cy="1.102" rx="1.117" ry="1.102" transform="matrix(-1 0 0 1 29.046 112.613)"/><ellipse cx="1.117" cy="1.102" rx="1.117" ry="1.102" transform="matrix(-1 0 0 1 29.046 119.227)"/><ellipse cx="1.117" cy="1.102" rx="1.117" ry="1.102" transform="matrix(-1 0 0 1 29.046 125.84)"/><ellipse cx="1.117" cy="1.102" rx="1.117" ry="1.102" transform="matrix(-1 0 0 1 29.046 132.453)"/><ellipse cx="1.117" cy="1.102" rx="1.117" ry="1.102" transform="matrix(-1 0 0 1 29.046 139.066)"/><ellipse cx="1.117" cy="1.102" rx="1.117" ry="1.102" transform="matrix(-1 0 0 1 29.046 191.972)"/><ellipse cx="1.117" cy="1.102" rx="1.117" ry="1.102" transform="matrix(-1 0 0 1 29.046 198.585)"/><ellipse cx="1.117" cy="1.102" rx="1.117" ry="1.102" transform="matrix(-1 0 0 1 29.046 231.651)"/><ellipse cx="1.117" cy="1.102" rx="1.117" ry="1.102" transform="matrix(-1 0 0 1 29.046 205.198)"/><ellipse cx="1.117" cy="1.102" rx="1.117" ry="1.102" transform="matrix(-1 0 0 1 29.046 238.264)"/><ellipse cx="1.117" cy="1.102" rx="1.117" ry="1.102" transform="matrix(-1 0 0 1 29.046 211.811)"/><ellipse cx="1.117" cy="1.102" rx="1.117" ry="1.102" transform="matrix(-1 0 0 1 29.046 244.877)"/><ellipse cx="1.117" cy="1.102" rx="1.117" ry="1.102" transform="matrix(-1 0 0 1 29.046 218.425)"/><ellipse cx="1.117" cy="1.102" rx="1.117" ry="1.102" transform="matrix(-1 0 0 1 29.046 251.49)"/><ellipse cx="1.117" cy="1.102" rx="1.117" ry="1.102" transform="matrix(-1 0 0 1 29.046 225.038)"/><ellipse cx="1.117" cy="1.102" rx="1.117" ry="1.102" transform="matrix(-1 0 0 1 29.046 258.104)"/><ellipse cx="1.117" cy="1.102" rx="1.117" ry="1.102" transform="matrix(-1 0 0 1 22.343 106)"/><ellipse cx="1.117" cy="1.102" rx="1.117" ry="1.102" transform="matrix(-1 0 0 1 22.343 112.613)"/><ellipse cx="1.117" cy="1.102" rx="1.117" ry="1.102" transform="matrix(-1 0 0 1 22.343 119.227)"/><ellipse cx="1.117" cy="1.102" rx="1.117" ry="1.102" transform="matrix(-1 0 0 1 22.343 125.84)"/><ellipse cx="1.117" cy="1.102" rx="1.117" ry="1.102" transform="matrix(-1 0 0 1 22.343 132.453)"/><ellipse cx="1.117" cy="1.102" rx="1.117" ry="1.102" transform="matrix(-1 0 0 1 22.343 139.066)"/><ellipse cx="1.117" cy="1.102" rx="1.117" ry="1.102" transform="matrix(-1 0 0 1 22.343 191.972)"/><ellipse cx="1.117" cy="1.102" rx="1.117" ry="1.102" transform="matrix(-1 0 0 1 22.343 198.585)"/><ellipse cx="1.117" cy="1.102" rx="1.117" ry="1.102" transform="matrix(-1 0 0 1 22.343 231.651)"/><ellipse cx="1.117" cy="1.102" rx="1.117" ry="1.102" transform="matrix(-1 0 0 1 22.343 205.198)"/><ellipse cx="1.117" cy="1.102" rx="1.117" ry="1.102" transform="matrix(-1 0 0 1 22.343 238.264)"/><ellipse cx="1.117" cy="1.102" rx="1.117" ry="1.102" transform="matrix(-1 0 0 1 22.343 211.811)"/><ellipse cx="1.117" cy="1.102" rx="1.117" ry="1.102" transform="matrix(-1 0 0 1 22.343 244.877)"/><ellipse cx="1.117" cy="1.102" rx="1.117" ry="1.102" transform="matrix(-1 0 0 1 22.343 218.425)"/><ellipse cx="1.117" cy="1.102" rx="1.117" ry="1.102" transform="matrix(-1 0 0 1 22.343 251.49)"/><ellipse cx="1.117" cy="1.102" rx="1.117" ry="1.102" transform="matrix(-1 0 0 1 22.343 225.038)"/><ellipse cx="1.117" cy="1.102" rx="1.117" ry="1.102" transform="matrix(-1 0 0 1 22.343 258.104)"/><ellipse cx="1.117" cy="1.102" rx="1.117" ry="1.102" transform="matrix(-1 0 0 1 15.64 106)"/><ellipse cx="1.117" cy="1.102" rx="1.117" ry="1.102" transform="matrix(-1 0 0 1 15.64 112.613)"/><ellipse cx="1.117" cy="1.102" rx="1.117" ry="1.102" transform="matrix(-1 0 0 1 15.64 119.227)"/><ellipse cx="1.117" cy="1.102" rx="1.117" ry="1.102" transform="matrix(-1 0 0 1 15.64 125.84)"/><ellipse cx="1.117" cy="1.102" rx="1.117" ry="1.102" transform="matrix(-1 0 0 1 15.64 132.453)"/><ellipse cx="1.117" cy="1.102" rx="1.117" ry="1.102" transform="matrix(-1 0 0 1 15.64 139.066)"/><ellipse cx="1.117" cy="1.102" rx="1.117" ry="1.102" transform="matrix(-1 0 0 1 15.64 191.972)"/><ellipse cx="1.117" cy="1.102" rx="1.117" ry="1.102" transform="matrix(-1 0 0 1 15.64 198.585)"/><ellipse cx="1.117" cy="1.102" rx="1.117" ry="1.102" transform="matrix(-1 0 0 1 15.64 231.651)"/><ellipse cx="1.117" cy="1.102" rx="1.117" ry="1.102" transform="matrix(-1 0 0 1 15.64 205.198)"/><ellipse cx="1.117" cy="1.102" rx="1.117" ry="1.102" transform="matrix(-1 0 0 1 15.64 238.264)"/><ellipse cx="1.117" cy="1.102" rx="1.117" ry="1.102" transform="matrix(-1 0 0 1 15.64 211.811)"/><ellipse cx="1.117" cy="1.102" rx="1.117" ry="1.102" transform="matrix(-1 0 0 1 15.64 218.425)"/><ellipse cx="1.117" cy="1.102" rx="1.117" ry="1.102" transform="matrix(-1 0 0 1 15.64 225.038)"/><ellipse cx="1.117" cy="1.102" rx="1.117" ry="1.102" transform="matrix(-1 0 0 1 8.937 106)"/><ellipse cx="1.117" cy="1.102" rx="1.117" ry="1.102" transform="matrix(-1 0 0 1 8.938 112.613)"/><ellipse cx="1.117" cy="1.102" rx="1.117" ry="1.102" transform="matrix(-1 0 0 1 8.938 119.227)"/><ellipse cx="1.117" cy="1.102" rx="1.117" ry="1.102" transform="matrix(-1 0 0 1 8.938 125.84)"/><ellipse cx="1.117" cy="1.102" rx="1.117" ry="1.102" transform="matrix(-1 0 0 1 8.938 132.453)"/><ellipse cx="1.117" cy="1.102" rx="1.117" ry="1.102" transform="matrix(-1 0 0 1 8.937 139.066)"/><ellipse cx="1.117" cy="1.102" rx="1.117" ry="1.102" transform="matrix(-1 0 0 1 8.937 191.972)"/><ellipse cx="1.117" cy="1.102" rx="1.117" ry="1.102" transform="matrix(-1 0 0 1 8.938 198.585)"/><ellipse cx="1.117" cy="1.102" rx="1.117" ry="1.102" transform="matrix(-1 0 0 1 8.938 231.651)"/><ellipse cx="1.117" cy="1.102" rx="1.117" ry="1.102" transform="matrix(-1 0 0 1 8.938 205.198)"/><ellipse cx="1.117" cy="1.102" rx="1.117" ry="1.102" transform="matrix(-1 0 0 1 8.938 238.264)"/><ellipse cx="1.117" cy="1.102" rx="1.117" ry="1.102" transform="matrix(-1 0 0 1 8.938 211.811)"/><ellipse cx="1.117" cy="1.102" rx="1.117" ry="1.102" transform="matrix(-1 0 0 1 8.938 218.425)"/><ellipse cx="1.117" cy="1.102" rx="1.117" ry="1.102" transform="matrix(-1 0 0 1 8.938 225.038)"/></g><g opacity=".24" fill="#8BABFB"><ellipse cx="99.82" cy="-.605" rx="1.117" ry="1.102"/><ellipse cx="99.82" cy="6.008" rx="1.117" ry="1.102"/><ellipse cx="99.82" cy="12.621" rx="1.117" ry="1.102"/><ellipse cx="99.82" cy="19.234" rx="1.117" ry="1.102"/><ellipse cx="99.82" cy="25.848" rx="1.117" ry="1.102"/><ellipse cx="99.82" cy="32.461" rx="1.117" ry="1.102"/><ellipse cx="99.82" cy="39.074" rx="1.117" ry="1.102"/><ellipse cx="99.82" cy="45.687" rx="1.117" ry="1.102"/><ellipse cx="99.82" cy="52.3" rx="1.117" ry="1.102"/><ellipse cx="99.82" cy="58.913" rx="1.117" ry="1.102"/><ellipse cx="99.82" cy="65.527" rx="1.117" ry="1.102"/><ellipse cx="99.82" cy="72.14" rx="1.117" ry="1.102"/><ellipse cx="106.523" cy="-.605" rx="1.117" ry="1.102"/><ellipse cx="106.523" cy="6.008" rx="1.117" ry="1.102"/><ellipse cx="106.523" cy="12.621" rx="1.117" ry="1.102"/><ellipse cx="106.523" cy="19.234" rx="1.117" ry="1.102"/><ellipse cx="106.523" cy="25.848" rx="1.117" ry="1.102"/><ellipse cx="106.523" cy="32.461" rx="1.117" ry="1.102"/><ellipse cx="106.523" cy="39.074" rx="1.117" ry="1.102"/><ellipse cx="106.523" cy="45.687" rx="1.117" ry="1.102"/><ellipse cx="106.523" cy="52.3" rx="1.117" ry="1.102"/><ellipse cx="106.523" cy="58.914" rx="1.117" ry="1.102"/><ellipse cx="106.523" cy="65.527" rx="1.117" ry="1.102"/><ellipse cx="106.523" cy="72.14" rx="1.117" ry="1.102"/><ellipse cx="113.226" cy="-.605" rx="1.117" ry="1.102"/><ellipse cx="113.226" cy="6.008" rx="1.117" ry="1.102"/><ellipse cx="113.226" cy="12.621" rx="1.117" ry="1.102"/><ellipse cx="113.226" cy="19.234" rx="1.117" ry="1.102"/><ellipse cx="113.226" cy="25.848" rx="1.117" ry="1.102"/><ellipse cx="113.226" cy="32.461" rx="1.117" ry="1.102"/><ellipse cx="113.226" cy="39.074" rx="1.117" ry="1.102"/><ellipse cx="113.226" cy="45.687" rx="1.117" ry="1.102"/><ellipse cx="113.226" cy="52.3" rx="1.117" ry="1.102"/><ellipse cx="113.226" cy="58.913" rx="1.117" ry="1.102"/><ellipse cx="113.226" cy="65.527" rx="1.117" ry="1.102"/><ellipse cx="113.226" cy="72.14" rx="1.117" ry="1.102"/><ellipse cx="119.929" cy="-.605" rx="1.117" ry="1.102"/><ellipse cx="119.929" cy="6.008" rx="1.117" ry="1.102"/><ellipse cx="119.929" cy="12.621" rx="1.117" ry="1.102"/><ellipse cx="119.929" cy="19.234" rx="1.117" ry="1.102"/><ellipse cx="119.929" cy="25.848" rx="1.117" ry="1.102"/><ellipse cx="119.929" cy="32.461" rx="1.117" ry="1.102"/><ellipse cx="119.929" cy="39.074" rx="1.117" ry="1.102"/><ellipse cx="119.929" cy="45.687" rx="1.117" ry="1.102"/><ellipse cx="119.929" cy="52.3" rx="1.117" ry="1.102"/><ellipse cx="119.929" cy="58.913" rx="1.117" ry="1.102"/><ellipse cx="119.929" cy="65.527" rx="1.117" ry="1.102"/><ellipse cx="119.929" cy="72.14" rx="1.117" ry="1.102"/><ellipse cx="126.632" cy="-.605" rx="1.117" ry="1.102"/><ellipse cx="126.632" cy="6.008" rx="1.117" ry="1.102"/><ellipse cx="126.632" cy="12.621" rx="1.117" ry="1.102"/><ellipse cx="126.632" cy="19.234" rx="1.117" ry="1.102"/><ellipse cx="126.632" cy="25.848" rx="1.117" ry="1.102"/><ellipse cx="126.632" cy="32.461" rx="1.117" ry="1.102"/><ellipse cx="126.632" cy="39.074" rx="1.117" ry="1.102"/><ellipse cx="126.632" cy="45.687" rx="1.117" ry="1.102"/><ellipse cx="126.632" cy="52.3" rx="1.117" ry="1.102"/><ellipse cx="126.632" cy="58.913" rx="1.117" ry="1.102"/><ellipse cx="126.632" cy="65.527" rx="1.117" ry="1.102"/><ellipse cx="126.632" cy="72.14" rx="1.117" ry="1.102"/><ellipse cx="133.335" cy="-.605" rx="1.117" ry="1.102"/><ellipse cx="133.335" cy="6.008" rx="1.117" ry="1.102"/><ellipse cx="133.335" cy="12.621" rx="1.117" ry="1.102"/><ellipse cx="133.335" cy="19.234" rx="1.117" ry="1.102"/><ellipse cx="133.335" cy="25.848" rx="1.117" ry="1.102"/><ellipse cx="133.335" cy="32.461" rx="1.117" ry="1.102"/><ellipse cx="133.335" cy="39.074" rx="1.117" ry="1.102"/><ellipse cx="133.335" cy="45.687" rx="1.117" ry="1.102"/><ellipse cx="133.335" cy="52.3" rx="1.117" ry="1.102"/><ellipse cx="133.335" cy="58.913" rx="1.117" ry="1.102"/><ellipse cx="133.335" cy="65.527" rx="1.117" ry="1.102"/><ellipse cx="133.335" cy="72.14" rx="1.117" ry="1.102"/><ellipse cx="140.038" cy="-.605" rx="1.117" ry="1.102"/><ellipse cx="140.038" cy="6.008" rx="1.117" ry="1.102"/><ellipse cx="140.038" cy="12.621" rx="1.117" ry="1.102"/><ellipse cx="140.038" cy="19.234" rx="1.117" ry="1.102"/><ellipse cx="140.038" cy="25.848" rx="1.117" ry="1.102"/><ellipse cx="140.038" cy="32.461" rx="1.117" ry="1.102"/><ellipse cx="140.038" cy="39.074" rx="1.117" ry="1.102"/><ellipse cx="140.038" cy="45.687" rx="1.117" ry="1.102"/><ellipse cx="140.038" cy="78.753" rx="1.117" ry="1.102"/><ellipse cx="140.038" cy="52.3" rx="1.117" ry="1.102"/><ellipse cx="140.038" cy="85.366" rx="1.117" ry="1.102"/><ellipse cx="140.038" cy="58.914" rx="1.117" ry="1.102"/><ellipse cx="140.038" cy="91.98" rx="1.117" ry="1.102"/><ellipse cx="140.038" cy="65.527" rx="1.117" ry="1.102"/><ellipse cx="140.038" cy="98.593" rx="1.117" ry="1.102"/><ellipse cx="140.038" cy="72.14" rx="1.117" ry="1.102"/><ellipse cx="140.038" cy="105.206" rx="1.117" ry="1.102"/><ellipse cx="146.741" cy="-.605" rx="1.117" ry="1.102"/><ellipse cx="146.741" cy="6.008" rx="1.117" ry="1.102"/><ellipse cx="146.741" cy="12.621" rx="1.117" ry="1.102"/><ellipse cx="146.741" cy="19.234" rx="1.117" ry="1.102"/><ellipse cx="146.741" cy="25.848" rx="1.117" ry="1.102"/><ellipse cx="146.741" cy="32.461" rx="1.117" ry="1.102"/><ellipse cx="146.741" cy="39.074" rx="1.117" ry="1.102"/><ellipse cx="146.741" cy="45.687" rx="1.117" ry="1.102"/><ellipse cx="146.741" cy="78.753" rx="1.117" ry="1.102"/><ellipse cx="146.741" cy="52.3" rx="1.117" ry="1.102"/><ellipse cx="146.741" cy="85.366" rx="1.117" ry="1.102"/><ellipse cx="146.741" cy="58.914" rx="1.117" ry="1.102"/><ellipse cx="146.741" cy="91.98" rx="1.117" ry="1.102"/><ellipse cx="146.741" cy="65.527" rx="1.117" ry="1.102"/><ellipse cx="146.741" cy="98.593" rx="1.117" ry="1.102"/><ellipse cx="146.741" cy="72.14" rx="1.117" ry="1.102"/><ellipse cx="146.741" cy="105.206" rx="1.117" ry="1.102"/><ellipse cx="153.444" cy="39.074" rx="1.117" ry="1.102"/><ellipse cx="153.444" cy="45.687" rx="1.117" ry="1.102"/><ellipse cx="153.444" cy="78.753" rx="1.117" ry="1.102"/><ellipse cx="153.444" cy="52.3" rx="1.117" ry="1.102"/><ellipse cx="153.444" cy="85.366" rx="1.117" ry="1.102"/><ellipse cx="153.444" cy="58.914" rx="1.117" ry="1.102"/><ellipse cx="153.444" cy="91.98" rx="1.117" ry="1.102"/><ellipse cx="153.444" cy="65.527" rx="1.117" ry="1.102"/><ellipse cx="153.444" cy="98.593" rx="1.117" ry="1.102"/><ellipse cx="153.444" cy="72.14" rx="1.117" ry="1.102"/><ellipse cx="153.444" cy="105.206" rx="1.117" ry="1.102"/><ellipse cx="186.959" cy="39.074" rx="1.117" ry="1.102"/><ellipse cx="186.959" cy="45.687" rx="1.117" ry="1.102"/><ellipse cx="186.959" cy="78.753" rx="1.117" ry="1.102"/><ellipse cx="186.959" cy="52.3" rx="1.117" ry="1.102"/><ellipse cx="186.959" cy="85.366" rx="1.117" ry="1.102"/><ellipse cx="186.959" cy="58.913" rx="1.117" ry="1.102"/><ellipse cx="186.959" cy="65.527" rx="1.117" ry="1.102"/><ellipse cx="186.959" cy="72.14" rx="1.117" ry="1.102"/><ellipse cx="160.147" cy="39.074" rx="1.117" ry="1.102"/><ellipse cx="160.147" cy="45.687" rx="1.117" ry="1.102"/><ellipse cx="160.147" cy="78.753" rx="1.117" ry="1.102"/><ellipse cx="160.147" cy="52.3" rx="1.117" ry="1.102"/><ellipse cx="160.147" cy="85.366" rx="1.117" ry="1.102"/><ellipse cx="160.147" cy="58.913" rx="1.117" ry="1.102"/><ellipse cx="160.147" cy="91.98" rx="1.117" ry="1.102"/><ellipse cx="160.147" cy="65.527" rx="1.117" ry="1.102"/><ellipse cx="160.147" cy="98.593" rx="1.117" ry="1.102"/><ellipse cx="160.147" cy="72.14" rx="1.117" ry="1.102"/><ellipse cx="160.147" cy="105.206" rx="1.117" ry="1.102"/><ellipse cx="166.85" cy="39.074" rx="1.117" ry="1.102"/><ellipse cx="166.85" cy="45.687" rx="1.117" ry="1.102"/><ellipse cx="166.85" cy="78.753" rx="1.117" ry="1.102"/><ellipse cx="166.85" cy="52.3" rx="1.117" ry="1.102"/><ellipse cx="166.85" cy="85.366" rx="1.117" ry="1.102"/><ellipse cx="166.85" cy="58.913" rx="1.117" ry="1.102"/><ellipse cx="166.85" cy="91.98" rx="1.117" ry="1.102"/><ellipse cx="166.85" cy="65.527" rx="1.117" ry="1.102"/><ellipse cx="166.85" cy="98.593" rx="1.117" ry="1.102"/><ellipse cx="166.85" cy="72.14" rx="1.117" ry="1.102"/><ellipse cx="166.85" cy="105.206" rx="1.117" ry="1.102"/><ellipse cx="173.553" cy="39.074" rx="1.117" ry="1.102"/><ellipse cx="173.553" cy="45.687" rx="1.117" ry="1.102"/><ellipse cx="173.553" cy="78.753" rx="1.117" ry="1.102"/><ellipse cx="173.553" cy="52.3" rx="1.117" ry="1.102"/><ellipse cx="173.553" cy="85.366" rx="1.117" ry="1.102"/><ellipse cx="173.553" cy="58.913" rx="1.117" ry="1.102"/><ellipse cx="173.553" cy="65.527" rx="1.117" ry="1.102"/><ellipse cx="173.553" cy="72.14" rx="1.117" ry="1.102"/><ellipse cx="180.256" cy="39.074" rx="1.117" ry="1.102"/><ellipse cx="180.256" cy="45.687" rx="1.117" ry="1.102"/><ellipse cx="180.256" cy="78.753" rx="1.117" ry="1.102"/><ellipse cx="180.256" cy="52.3" rx="1.117" ry="1.102"/><ellipse cx="180.256" cy="85.366" rx="1.117" ry="1.102"/><ellipse cx="180.256" cy="58.913" rx="1.117" ry="1.102"/><ellipse cx="180.256" cy="65.527" rx="1.117" ry="1.102"/><ellipse cx="180.256" cy="72.14" rx="1.117" ry="1.102"/></g></svg>