<svg width="14" height="24" fill="none" xmlns="http://www.w3.org/2000/svg"><path d="M7.112 21.288c-1.12 0-2.16-.208-3.12-.624a7.358 7.358 0 01-2.448-1.752 7.022 7.022 0 01-1.488-2.544l2.4-1.008c.432 1.104 1.064 1.952 1.896 2.544.832.592 1.792.888 2.88.888.64 0 1.2-.096 1.68-.288.48-.208.848-.496 1.104-.864.272-.368.408-.792.408-1.272 0-.656-.184-1.176-.552-1.56-.368-.384-.912-.688-1.632-.912L4.88 12.84c-1.344-.416-2.368-1.048-3.072-1.896C1.104 10.08.752 9.072.752 7.92c0-1.008.248-1.888.744-2.64.496-.768 1.176-1.368 2.04-1.8.88-.432 1.88-.648 3-.648 1.072 0 2.048.192 2.928.576.88.368 1.632.88 2.256 1.536a5.895 5.895 0 011.392 2.28L10.76 8.256c-.352-.944-.904-1.672-1.656-2.184-.736-.512-1.592-.768-2.568-.768-.592 0-1.112.104-1.56.312-.448.192-.8.48-1.056.864-.24.368-.36.8-.36 1.296 0 .576.184 1.088.552 1.536.368.448.928.784 1.68 1.008l3.12.984c1.424.432 2.496 1.056 3.216 1.872.72.8 1.08 1.8 1.08 3 0 .992-.264 1.872-.792 2.64-.512.768-1.224 1.376-2.136 1.824-.912.432-1.968.648-3.168.648zM6.008 23.4V.72h1.92V23.4h-1.92z" fill="url(#paint0_linear_240_22242)"/><defs><linearGradient id="paint0_linear_240_22242" x1="-1" y1="-1" x2="18.712" y2="-.847" gradientUnits="userSpaceOnUse"><stop stop-color="#5398FF"/><stop offset="1" stop-color="#2C68C2"/></linearGradient></defs></svg>