<svg width="774" height="259" fill="none" xmlns="http://www.w3.org/2000/svg"><path opacity=".16" d="M8.96 239L42.24.6h163.2l-6.08 43.2H85.76l-8.32 60.48h97.6l-6.08 43.2h-97.6L58.56 239H8.96zm171.492 0l24.32-174.72h48.321L228.773 239h-48.321zm26.56-190.4l6.72-48h48.321l-6.72 48h-48.321zM237.33 239l4.8-38.4L353.49 90.84l9.6 15.04H260.05l5.76-41.6h145.92l-4.8 38.4-110.4 109.76-8-15.04h104.96l-5.76 41.6h-150.4zm250.613 3.84c-17.707 0-33.067-3.733-46.08-11.2-13.014-7.68-23.04-18.027-30.08-31.04-6.827-13.013-10.24-27.413-10.24-43.2 0-13.44 2.346-25.92 7.04-37.44 4.693-11.733 11.306-22.08 19.84-31.04 8.533-8.96 18.453-15.893 29.76-20.8 11.306-5.12 23.573-7.68 36.8-7.68 17.706 0 32.64 3.52 44.8 10.56 12.16 6.827 21.333 16.213 27.52 28.16 6.4 11.947 9.6 25.493 9.6 40.64 0 4.053-.32 8.107-.96 12.16-.64 4.053-1.494 8.427-2.56 13.12h-131.2l2.56-35.2h103.68l-24 16c2.773-8.96 3.306-16.96 1.6-24-1.707-7.04-5.334-12.587-10.88-16.64-5.334-4.267-12.16-6.4-20.48-6.4-10.88 0-19.52 2.773-25.92 8.32-6.4 5.547-11.094 12.907-14.08 22.08-2.774 9.173-4.16 19.307-4.16 30.4 0 8.747 1.493 16.32 4.48 22.72 2.986 6.187 7.36 10.88 13.12 14.08 5.76 3.2 12.693 4.8 20.8 4.8 8.746 0 16.426-1.813 23.04-5.44 6.613-3.627 11.733-8.427 15.36-14.4l37.76 19.52c-4.054 8.533-9.92 16-17.6 22.4-7.68 6.187-16.64 10.987-26.88 14.4-10.027 3.413-20.907 5.12-32.64 5.12zM579.24 239l24.32-174.72h44.8l-4.48 34.56-1.92-8.96c5.547-10.453 12.907-17.92 22.08-22.4 9.387-4.693 19.947-7.04 31.68-7.04 13.44 0 24.853 3.2 34.24 9.6 9.387 6.187 16.213 14.613 20.48 25.28 4.48 10.667 5.76 22.613 3.84 35.84L739.24 239h-48l14.08-102.08c1.493-10.027-.32-18.027-5.44-24-5.12-6.187-12.373-9.28-21.76-9.28-6.187 0-11.947 1.387-17.28 4.16-5.12 2.773-9.387 6.613-12.8 11.52-3.413 4.907-5.653 10.773-6.72 17.6L627.24 239h-48z" fill="url(#paint0_radial_12_2)"/><path d="M16.96 255L50.24 16.6h163.2l-6.08 43.2H93.76l-8.32 60.48h97.6l-6.08 43.2h-97.6L66.56 255h-49.6zm171.492 0l24.32-174.72h48.321L236.773 255h-48.321zm26.56-190.4l6.72-48h48.321l-6.72 48h-48.321zM245.33 255l4.8-38.4 111.36-109.76 9.6 15.04H268.05l5.76-41.6h145.92l-4.8 38.4-110.4 109.76-8-15.04h104.96l-5.76 41.6h-150.4zm250.613 3.84c-17.707 0-33.067-3.733-46.08-11.2-13.014-7.68-23.04-18.027-30.08-31.04-6.827-13.013-10.24-27.413-10.24-43.2 0-13.44 2.346-25.92 7.04-37.44 4.693-11.733 11.306-22.08 19.84-31.04 8.533-8.96 18.453-15.893 29.76-20.8 11.306-5.12 23.573-7.68 36.8-7.68 17.706 0 32.64 3.52 44.8 10.56 12.16 6.827 21.333 16.213 27.52 28.16 6.4 11.947 9.6 25.493 9.6 40.64 0 4.053-.32 8.107-.96 12.16-.64 4.053-1.494 8.427-2.56 13.12h-131.2l2.56-35.2h103.68l-24 16c2.773-8.96 3.306-16.96 1.6-24-1.707-7.04-5.334-12.587-10.88-16.64-5.334-4.267-12.16-6.4-20.48-6.4-10.88 0-19.52 2.773-25.92 8.32-6.4 5.547-11.094 12.907-14.08 22.08-2.774 9.173-4.16 19.307-4.16 30.4 0 8.747 1.493 16.32 4.48 22.72 2.986 6.187 7.36 10.88 13.12 14.08 5.76 3.2 12.693 4.8 20.8 4.8 8.746 0 16.426-1.813 23.04-5.44 6.613-3.627 11.733-8.427 15.36-14.4l37.76 19.52c-4.054 8.533-9.92 16-17.6 22.4-7.68 6.187-16.64 10.987-26.88 14.4-10.027 3.413-20.907 5.12-32.64 5.12zM587.24 255l24.32-174.72h44.8l-4.48 34.56-1.92-8.96c5.547-10.453 12.907-17.92 22.08-22.4 9.387-4.693 19.947-7.04 31.68-7.04 13.44 0 24.853 3.2 34.24 9.6 9.387 6.187 16.213 14.613 20.48 25.28 4.48 10.667 5.76 22.613 3.84 35.84L747.24 255h-48l14.08-102.08c1.493-10.027-.32-18.027-5.44-24-5.12-6.187-12.373-9.28-21.76-9.28-6.187 0-11.947 1.387-17.28 4.16-5.12 2.773-9.387 6.613-12.8 11.52-3.413 4.907-5.653 10.773-6.72 17.6L635.24 255h-48z" fill="url(#paint1_radial_12_2)"/><defs><radialGradient id="paint0_radial_12_2" cx="0" cy="0" r="1" gradientUnits="userSpaceOnUse" gradientTransform="rotate(16.409 -93.08 112.145) scale(811.149 1302.83)"><stop stop-color="#8842FF"/><stop offset=".621" stop-color="#56A6E0"/><stop offset="1" stop-color="#050506"/></radialGradient><radialGradient id="paint1_radial_12_2" cx="0" cy="0" r="1" gradientUnits="userSpaceOnUse" gradientTransform="rotate(16.409 -144.566 147.888) scale(811.149 1302.83)"><stop stop-color="#8842FF"/><stop offset=".621" stop-color="#56A6E0"/><stop offset="1" stop-color="#050506"/></radialGradient></defs></svg>