<svg width="103" height="14" fill="none" xmlns="http://www.w3.org/2000/svg"><path d="M.152 13V1.08h7.952V3H2.328v3.296h5.056v1.92H2.328V13H.152zm14.495 0V1.08h2.176V13h-2.176zm8.66 0v-1.712L29.085 3h-5.44V1.08h8.208v1.712l-5.76 8.288h5.92V13h-8.704zm15.19 0V1.08h7.92V3h-5.745v3.056h5.424v1.92h-5.424v3.104h5.744V13h-7.92zm14.635 0V1.08h1.696l6.56 8.832-.88.176V1.08h2.176V13h-1.712l-6.464-8.896.8-.176V13h-2.176zm17.795 0v-2.24h2.112V13h-2.112zm10.351 0V1.08h2.176V13h-2.176zm15.461.192c-.875 0-1.69-.155-2.448-.464a6.036 6.036 0 01-3.312-3.248 6.412 6.412 0 01-.464-2.448c0-.885.155-1.701.464-2.448a5.83 5.83 0 013.296-3.232 6.454 6.454 0 012.464-.464 6.46 6.46 0 012.464.464c.757.31 1.419.741 1.984 1.296a5.66 5.66 0 011.312 1.936c.32.747.48 1.563.48 2.448 0 .875-.16 1.69-.48 2.448a6.04 6.04 0 01-1.328 1.952 6.084 6.084 0 01-1.984 1.296 6.335 6.335 0 01-2.448.464zm0-1.984c.587 0 1.125-.101 1.616-.304.49-.213.917-.507 1.28-.88.373-.373.656-.816.848-1.328a4.474 4.474 0 00.304-1.664 4.35 4.35 0 00-.304-1.648 3.685 3.685 0 00-.848-1.328 3.665 3.665 0 00-1.28-.88 4.193 4.193 0 00-1.616-.304 4.15 4.15 0 00-1.6.304c-.49.203-.923.496-1.296.88a3.989 3.989 0 00-.848 1.328 4.357 4.357 0 00-.304 1.648c0 .597.101 1.152.304 1.664.203.512.485.955.848 1.328.373.373.805.667 1.296.88a4.15 4.15 0 001.6.304z" fill="#F4F9FF"/></svg>