<svg width="120" height="106" fill="none" xmlns="http://www.w3.org/2000/svg"><path d="M40.248 105.444c-7.795 0-14.701-2.121-20.72-6.364-5.92-4.341-10.557-10.41-13.912-18.204C2.36 72.983.732 63.757.732 53.2c0-10.557 1.628-19.733 4.884-27.528 3.355-7.893 7.992-13.961 13.912-18.204C25.547 3.127 32.453.956 40.248.956c7.893 0 14.8 2.17 20.72 6.512 5.92 4.243 10.508 10.31 13.764 18.204 3.355 7.795 5.032 16.97 5.032 27.528 0 10.557-1.677 19.783-5.032 27.676-3.256 7.795-7.844 13.863-13.764 18.204-5.92 4.243-12.827 6.364-20.72 6.364zm0-2.812c7.301 0 13.665-2.023 19.092-6.068 5.525-4.045 9.817-9.768 12.876-17.168 3.059-7.4 4.588-16.132 4.588-26.196 0-10.163-1.53-18.895-4.588-26.196-3.059-7.4-7.35-13.123-12.876-17.168-5.427-4.045-11.79-6.068-19.092-6.068-7.203 0-13.567 2.023-19.092 6.068-5.525 4.045-9.817 9.768-12.876 17.168C5.221 34.305 3.692 43.037 3.692 53.2c0 10.064 1.53 18.796 4.588 26.196 3.059 7.4 7.35 13.123 12.876 17.168 5.525 4.045 11.89 6.068 19.092 6.068zM116.667 105V3.028l1.332 1.184H90.027V1.4h29.452V105h-2.812z" fill="url(#paint0_linear_240_22093)"/><defs><linearGradient id="paint0_linear_240_22093" x1="129.037" y1="52" x2="26.906" y2="52" gradientUnits="userSpaceOnUse"><stop offset=".434" stop-color="#fff"/><stop offset=".959" stop-color="#F0EEF3" stop-opacity="0"/></linearGradient></defs></svg>