<svg width="40" height="40" fill="none" xmlns="http://www.w3.org/2000/svg"><path d="M20 0l.749 12.398L23.902.384 22.218 12.69l5.436-11.168-4.053 11.74 7.51-9.891-6.265 10.724 9.296-8.237-8.237 9.296L36.63 8.889l-9.892 7.51 11.74-4.053-11.167 5.436 12.306-1.684-12.014 3.153L40 20l-12.398.749 12.014 3.153-12.306-1.684 11.168 5.436-11.74-4.053 9.891 7.51-10.724-6.265 8.237 9.296-9.296-8.237 6.265 10.724-7.51-9.892 4.053 11.74-5.436-11.167 1.684 12.306-3.153-12.014L20 40l-.749-12.398-3.153 12.014 1.684-12.306-5.436 11.168 4.053-11.74-7.51 9.891 6.265-10.724-9.296 8.237 8.237-9.296L3.37 31.111l9.892-7.51-11.74 4.053 11.167-5.436L.384 23.902l12.014-3.153L0 20l12.398-.749L.384 16.098l12.306 1.684-11.168-5.436 11.74 4.053-9.891-7.51 10.724 6.265-8.237-9.296 9.296 8.237L8.889 3.37l7.51 9.892-4.053-11.74 5.436 11.167L16.098.384l3.153 12.014L20 0z" fill="#71D0EE"/></svg>